/* XPM */
static char * monomaker131_xpm[] = {
"48 15 396 2",
"  	c #FFFFFF",
". 	c #445069",
"+ 	c #4D5567",
"@ 	c #4E5D76",
"# 	c #455064",
"$ 	c #3E424D",
"% 	c #404756",
"& 	c #424B5F",
"* 	c #455067",
"= 	c #47546F",
"- 	c #485675",
"; 	c #4C5B7B",
"> 	c #4D5C7E",
", 	c #4E5E81",
"' 	c #4D5E82",
") 	c #4A5D84",
"! 	c #485C85",
"~ 	c #465D89",
"{ 	c #506287",
"] 	c #5E616B",
"^ 	c #322D25",
"/ 	c #727481",
"( 	c #4D6892",
"_ 	c #50668C",
": 	c #516587",
"< 	c #4F6182",
"[ 	c #4D5F7F",
"} 	c #4B5D7C",
"| 	c #495976",
"1 	c #485671",
"2 	c #465165",
"3 	c #424547",
"4 	c #3F403D",
"5 	c #3F403F",
"6 	c #3E3E3D",
"7 	c #66635E",
"8 	c #666A6D",
"9 	c #556683",
"0 	c #5D7091",
"a 	c #5F7092",
"b 	c #5D6F91",
"c 	c #5C6C8F",
"d 	c #5B6B8D",
"e 	c #566587",
"f 	c #4E5E7F",
"g 	c #4B5A7A",
"h 	c #485777",
"i 	c #455474",
"j 	c #415071",
"k 	c #3D4C6E",
"l 	c #37476B",
"m 	c #33456B",
"n 	c #374A70",
"o 	c #3A4E76",
"p 	c #44567A",
"q 	c #5B5E67",
"r 	c #5E5E62",
"s 	c #1E1C19",
"t 	c #847268",
"u 	c #656975",
"v 	c #445B82",
"w 	c #425577",
"x 	c #425373",
"y 	c #405170",
"z 	c #415372",
"A 	c #43526F",
"B 	c #455471",
"C 	c #4F5B6D",
"D 	c #484C4C",
"E 	c #4A4D4B",
"F 	c #4D514F",
"G 	c #505452",
"H 	c #525654",
"I 	c #555957",
"J 	c #565A59",
"K 	c #4F5352",
"L 	c #545857",
"M 	c #9B9D9E",
"N 	c #696763",
"O 	c #868786",
"P 	c #6E7682",
"Q 	c #5A6B8A",
"R 	c #586B8D",
"S 	c #596C90",
"T 	c #5F7296",
"U 	c #68799D",
"V 	c #6D7C9F",
"W 	c #6A7A9C",
"X 	c #6D7D9E",
"Y 	c #7583A2",
"Z 	c #7A87A3",
"` 	c #7C8AA5",
" .	c #7C8BA7",
"..	c #8594AE",
"+.	c #8C99B1",
"@.	c #98A4B7",
"#.	c #A8B3C9",
"$.	c #646878",
"%.	c #5A595E",
"&.	c #5E5F66",
"*.	c #000000",
"=.	c #81726C",
"-.	c #77675E",
";.	c #848894",
">.	c #939DAE",
",.	c #8792A5",
"'.	c #8591A6",
").	c #8894AC",
"!.	c #8C99B3",
"~.	c #8390AD",
"{.	c #6F7D97",
"].	c #626564",
"^.	c #5B5D5A",
"/.	c #5A5C5B",
"(.	c #555857",
"_.	c #515453",
":.	c #515452",
"<.	c #4C4F4E",
"[.	c #676A69",
"}.	c #B0B0B1",
"|.	c #E1E0E3",
"1.	c #66635F",
"2.	c #848685",
"3.	c #7D7B77",
"4.	c #898C90",
"5.	c #D0D5DD",
"6.	c #D2D6DB",
"7.	c #DADDE0",
"8.	c #E1E4E5",
"9.	c #E7E9E9",
"0.	c #EDEEED",
"a.	c #F2F3F0",
"b.	c #F6F6F3",
"c.	c #F1F2EE",
"d.	c #F6F5F1",
"e.	c #FBFAF5",
"f.	c #F4F4EF",
"g.	c #FAFAF5",
"h.	c #F1F1F1",
"i.	c #78787C",
"j.	c #54555D",
"k.	c #5E5F67",
"l.	c #7F726D",
"m.	c #6F615B",
"n.	c #B2ADA8",
"o.	c #DADAD5",
"p.	c #D3D2CC",
"q.	c #D2D1CC",
"r.	c #D1D0CB",
"s.	c #D0CFC9",
"t.	c #CFCFCA",
"u.	c #CECFCC",
"v.	c #CCCCCA",
"w.	c #C8C9C8",
"x.	c #C4C5C4",
"y.	c #BEBFBE",
"z.	c #BBBDBC",
"A.	c #B3B4B3",
"B.	c #AEAFAE",
"C.	c #A5A6A5",
"D.	c #C2C1C2",
"E.	c #CBCACB",
"F.	c #D4D3D5",
"G.	c #64625E",
"H.	c #848585",
"I.	c #777776",
"J.	c #969794",
"K.	c #F4F5F3",
"L.	c #EEEFED",
"M.	c #EDEEEC",
"N.	c #EBEDEB",
"O.	c #EAEBEA",
"P.	c #E9EBEA",
"Q.	c #E8EAE9",
"R.	c #E7E9E8",
"S.	c #E8E9E9",
"T.	c #E8EAEA",
"U.	c #F2F4F3",
"V.	c #707177",
"W.	c #55565E",
"X.	c #5D5E66",
"Y.	c #6D5F5A",
"Z.	c #A9A6A3",
"`.	c #CCCECD",
" +	c #C4C5C3",
".+	c #C3C4C3",
"++	c #C5C6C5",
"@+	c #C6C7C6",
"#+	c #C7C8C7",
"$+	c #C9CAC9",
"%+	c #C8C8C7",
"&+	c #C3C2C3",
"*+	c #C0C0C0",
"=+	c #D3D3D4",
"-+	c #656563",
";+	c #767776",
">+	c #929392",
",+	c #F3F5F4",
"'+	c #E4E6E6",
")+	c #E5E7E7",
"!+	c #E5E6E6",
"~+	c #E5E7E6",
"{+	c #E6E8E8",
"]+	c #707278",
"^+	c #54565E",
"/+	c #6D605B",
"(+	c #CBCDCC",
"_+	c #C2C3C2",
":+	c #C3C3C2",
"<+	c #C1C2C1",
"[+	c #C0C1C0",
"}+	c #C0BFC0",
"|+	c #D3D2D3",
"1+	c #666666",
"2+	c #838483",
"3+	c #F0F2F2",
"4+	c #E4E5E5",
"5+	c #E3E4E4",
"6+	c #E3E5E5",
"7+	c #E4E6E5",
"8+	c #F1F3F2",
"9+	c #6F7077",
"0+	c #C0C2C0",
"a+	c #656564",
"b+	c #777877",
"c+	c #989998",
"d+	c #F1F4F4",
"e+	c #E9EDED",
"f+	c #E6EBEA",
"g+	c #E6EAE9",
"h+	c #E5E9E8",
"i+	c #E4E7E7",
"j+	c #E3E6E6",
"k+	c #E3E6E5",
"l+	c #EFF1F0",
"m+	c #6F7177",
"n+	c #5D5F66",
"o+	c #7E716C",
"p+	c #A8A5A2",
"q+	c #CACCCB",
"r+	c #CACBC9",
"s+	c #C4C4C4",
"t+	c #D3D3D3",
"u+	c #818281",
"v+	c #808281",
"w+	c #BABBBB",
"x+	c #D9CDCE",
"y+	c #E4D9DA",
"z+	c #E6DEDF",
"A+	c #E4E0E1",
"B+	c #E7E8E8",
"C+	c #E5E9E9",
"D+	c #E8EFEE",
"E+	c #EAF1F1",
"F+	c #EBF3F3",
"G+	c #ECF4F3",
"H+	c #ECF4F4",
"I+	c #EDF4F4",
"J+	c #F1F3F3",
"K+	c #72767C",
"L+	c #70625D",
"M+	c #B2AEAB",
"N+	c #D9DCDA",
"O+	c #D3D4D2",
"P+	c #D4D5D3",
"Q+	c #D3D4D3",
"R+	c #D0D1CF",
"S+	c #CFCFCE",
"T+	c #BCBEBD",
"U+	c #B9BAB9",
"V+	c #B0B1B1",
"W+	c #A8A9A8",
"X+	c #A2A3A2",
"Y+	c #969797",
"Z+	c #CECDCE",
"`+	c #D4D4D4",
" @	c #6A6A69",
".@	c #878887",
"+@	c #606261",
"@@	c #383B3A",
"#@	c #2E3231",
"$@	c #3B3736",
"%@	c #4E4242",
"&@	c #604749",
"*@	c #724D51",
"=@	c #8F626A",
"-@	c #9F6D76",
";@	c #B3848B",
">@	c #B38488",
",@	c #A98082",
"'@	c #AA8485",
")@	c #AE8E8F",
"!@	c #B49899",
"~@	c #AE9799",
"{@	c #B8A4A5",
"]@	c #716B71",
"^@	c #555A62",
"/@	c #82746F",
"(@	c #786A65",
"_@	c #797776",
":@	c #7B7E7E",
"<@	c #6B6D6D",
"[@	c #666868",
"}@	c #595C5C",
"|@	c #535556",
"1@	c #494B4C",
"2@	c #434546",
"3@	c #3C3E40",
"4@	c #373A3B",
"5@	c #333637",
"6@	c #343637",
"7@	c #343737",
"8@	c #363939",
"9@	c #303433",
"0@	c #505252",
"a@	c #A9A9AA",
"b@	c #E4E3E4",
"c@	c #24221E",
"d@	c #616160",
"e@	c #535655",
"f@	c #3E4140",
"g@	c #464948",
"h@	c #484B4A",
"i@	c #454A49",
"j@	c #414847",
"k@	c #3E4745",
"l@	c #3C4543",
"m@	c #3E4543",
"n@	c #494848",
"o@	c #5C5153",
"p@	c #745D5E",
"q@	c #866869",
"r@	c #9C7274",
"s@	c #A47577",
"t@	c #A17274",
"u@	c #8F6265",
"v@	c #75494E",
"w@	c #835E62",
"x@	c #555960",
"y@	c #60626A",
"z@	c #867771",
"A@	c #595453",
"B@	c #2F3335",
"C@	c #2F3233",
"D@	c #303334",
"E@	c #323436",
"F@	c #343738",
"G@	c #3B3E3E",
"H@	c #3F4242",
"I@	c #444747",
"J@	c #4A4D4D",
"K@	c #4B4E4D",
"L@	c #4B4E4E",
"M@	c #404343",
"N@	c #909292",
"O@	c #232423",
"P@	c #1B1C1B",
"Q@	c #333433",
"R@	c #363737",
"S@	c #393B3A",
"T@	c #383D3C",
"U@	c #383F3D",
"V@	c #373F3E",
"W@	c #394240",
"X@	c #444847",
"Y@	c #555252",
"Z@	c #6D6060",
"`@	c #81696A",
" #	c #785A5D",
".#	c #79585B",
"+#	c #494243",
"@#	c #5F626A",
"##	c #726B68",
"$#	c #3F4446",
"%#	c #3F4344",
"&#	c #444848",
"*#	c #464949",
"=#	c #484B4B",
"-#	c #494C4C",
";#	c #474A49",
">#	c #444746",
",#	c #404342",
"'#	c #3D3F3F",
")#	c #383A39",
"!#	c #343535",
"~#	c #2B2C2C",
"{#	c #1F1F1F",
"]#	c #554E45",
"^#	c #423C34",
"/#	c #4E3838",
"(#	c #575557",
"_#	c #585959",
":#	c #3B3C3D",
"<#	c #242524",
"[#	c #151515",
"}#	c #1C1C1C",
"                                        . +         @ #                                         ",
"              $ % & * = - ; > , ' ) ! ~ { ] ^       / ( _ : < [ } | 1 2 3 4 5 5 6               ",
"7 8 9 0 a b c d e f g h i j k l m n o p q r s       t u v w x y z A B | C D E F G H I J K L M   ",
"N O P Q R S T U V W X Y Z `  ...+.@.#.$.%.&.*.      =.-.;.>.,.'.).!.~.{.].^./.(.(._.:.<.[.}.|.^ ",
"1.2.3.4.5.6.7.8.9.0.a.b.c.d.d.e.f.g.h.i.j.k.*.      l.m.n.o.p.q.r.s.t.u.v.w.x.y.z.A.B.C.D.E.F.*.",
"G.H.I.J.K.L.M.N.O.P.Q.Q.R.R.S.R.9.T.U.V.W.X.*.      l.Y.Z.`.x.x. +x..+x.x.++++@+#+w.$+%+&+*+=+*.",
"-+H.;+>+,+'+'+)+!+~+~+)+)+)+)+)+{+{+U.]+^+k.*.      l./+Z.(+x.x..+.+_+:+_+_+<+_+<+<+[+[+}+}+|+*.",
"1+2+;+>+3+4+5+6+4+6+6+'+7+'+7+'+'+~+8+9+j.k.*.      l./+Z.(+.+_+_+_+_+_+_+<+<+<+[+<+0+[+}+*+=+*.",
"a+2+b+c+d+e+f+g+h+i+j+k+6+6+6+6+6+'+l+m+W.n+*.      o+/+p+q+_+.+_+_+.+_+.+x.++@+#+w.r+w.s+*+t+*.",
"a+O u+v+w+x+y+z+A+B+C+D+D+E+F+G+H+I+J+K+W.k.*.      l.L+M+N+O+P+O+Q+R+S+$+++T+U+V+W+X+Y+}+Z+`+*.",
" @.@+@@@#@$@%@&@*@=@-@;@>@,@'@)@!@~@{@]@^@n+*.      /@(@_@:@<@[@}@|@1@2@3@4@5@6@7@7@8@9@0@a@b@c@",
"d@e@f@g@h@i@j@k@l@m@n@o@p@q@r@s@t@u@v@w@x@y@*.      z@A@B@C@D@E@F@4@G@H@I@h@J@K@<.<.L@K@M@M@N@c@",
"  c@c@c@O@P@O@Q@R@S@T@U@V@W@X@Y@Z@`@ #.#+#@#*.      ##$#%#&#*#=#-#-#;#>#,#'#)#!#~#{#*.*.*.*.c@^ ",
"        ]#]#^#^#^ c@c@*.*.*.*.*.*.*.*.*./#(#c@      _#:#<#<#<#[#*.*.*.*.*.}#}#}#c@^ ^ ^#]#]#    ",
"                            ]#]#]#^#^#^ ^ c@^         ^ c@^ ^ ^#^#]#]#]#]#                      "};
