/* XPM */
static char * monomaker134_xpm[] = {
"68 36 590 2",
"  	c #5E503C",
". 	c #5E513D",
"+ 	c #5D503C",
"@ 	c #5D4F3C",
"# 	c #5D4F3B",
"$ 	c #5C4F3B",
"% 	c #5C4E3B",
"& 	c #5A4D39",
"* 	c #554934",
"= 	c #4D4234",
"- 	c #4E4234",
"; 	c #4D4132",
"> 	c #564A3A",
", 	c #665950",
"' 	c #66584E",
") 	c #65574E",
"! 	c #65574D",
"~ 	c #64574D",
"{ 	c #675950",
"] 	c #5F5247",
"^ 	c #504435",
"/ 	c #4C4132",
"( 	c #4D4333",
"_ 	c #4D4233",
": 	c #504534",
"< 	c #534733",
"[ 	c #564934",
"} 	c #574934",
"| 	c #564933",
"1 	c #564833",
"2 	c #554833",
"3 	c #5E503D",
"4 	c #5B4E3A",
"5 	c #574B36",
"6 	c #4D4334",
"7 	c #4E4333",
"8 	c #4E4232",
"9 	c #574C3C",
"0 	c #675A52",
"a 	c #62544A",
"b 	c #514535",
"c 	c #4C4133",
"d 	c #4E4334",
"e 	c #4F4433",
"f 	c #534633",
"g 	c #574B37",
"h 	c #4F4434",
"i 	c #4D4232",
"j 	c #544839",
"k 	c #64584F",
"l 	c #66584F",
"m 	c #534837",
"n 	c #514533",
"o 	c #5B4D3A",
"p 	c #574A36",
"q 	c #564835",
"r 	c #564936",
"s 	c #594C38",
"t 	c #4D4134",
"u 	c #524838",
"v 	c #61544A",
"w 	c #65584E",
"x 	c #554A3A",
"y 	c #4B4031",
"z 	c #473C2D",
"A 	c #463C2D",
"B 	c #483C2C",
"C 	c #50432E",
"D 	c #534632",
"E 	c #524530",
"F 	c #4F432E",
"G 	c #544732",
"H 	c #51442F",
"I 	c #5F513D",
"J 	c #7A6B56",
"K 	c #736450",
"L 	c #746652",
"M 	c #726450",
"N 	c #625541",
"O 	c #514431",
"P 	c #5A4C38",
"Q 	c #584C38",
"R 	c #514637",
"S 	c #685A51",
"T 	c #584C3F",
"U 	c #4A3E30",
"V 	c #524737",
"W 	c #655A49",
"X 	c #615545",
"Y 	c #625544",
"Z 	c #6E604A",
"` 	c #685A44",
" .	c #70624C",
"..	c #524531",
"+.	c #4E412D",
"@.	c #695B45",
"#.	c #6F604B",
"$.	c #554733",
"%.	c #6B5C48",
"&.	c #D6C3AB",
"*.	c #CFBCA5",
"=.	c #CFBDA5",
"-.	c #D4C1AA",
";.	c #D0BEA6",
">.	c #837561",
",.	c #4D412E",
"'.	c #584B37",
").	c #5A4C39",
"!.	c #584B38",
"~.	c #544734",
"{.	c #9A8973",
"].	c #95856F",
"^.	c #524532",
"/.	c #544834",
"(.	c #4A3F2F",
"_.	c #5A4D41",
":.	c #64564D",
"<.	c #62554B",
"[.	c #63554C",
"}.	c #65564D",
"|.	c #594D3F",
"1.	c #463A2C",
"2.	c #685C4B",
"3.	c #BFAE9A",
"4.	c #B5A591",
"5.	c #B8A793",
"6.	c #B8A893",
"7.	c #C5B298",
"8.	c #665944",
"9.	c #72644E",
"0.	c #C8B59C",
"a.	c #8B7C66",
"b.	c #3C311D",
"c.	c #6B5D47",
"d.	c #C3B198",
"e.	c #96856F",
"f.	c #594B38",
"g.	c #655743",
"h.	c #D1BEA7",
"i.	c #887965",
"j.	c #524633",
"k.	c #5F523E",
"l.	c #A5947E",
"m.	c #D1BFA7",
"n.	c #655845",
"o.	c #554834",
"p.	c #60523F",
"q.	c #6C5E4A",
"r.	c #6A5C48",
"s.	c #645643",
"t.	c #625441",
"u.	c #C7B49C",
"v.	c #968671",
"w.	c #554835",
"x.	c #574A37",
"y.	c #514532",
"z.	c #655843",
"A.	c #584C3C",
"B.	c #443A2C",
"C.	c #44392A",
"D.	c #4C4031",
"E.	c #645748",
"F.	c #64564E",
"G.	c #62554C",
"H.	c #5F5149",
"I.	c #6E6055",
"J.	c #695B51",
"K.	c #63544B",
"L.	c #5D5145",
"M.	c #645847",
"N.	c #BBAB96",
"O.	c #665A49",
"P.	c #443A2B",
"Q.	c #594C36",
"R.	c #514430",
"S.	c #473B27",
"T.	c #92826B",
"U.	c #BAA891",
"V.	c #655844",
"W.	c #A6947D",
"X.	c #AC9B84",
"Y.	c #665844",
"Z.	c #D5C3AB",
"`.	c #877863",
" +	c #4E412E",
".+	c #504330",
"++	c #675945",
"@+	c #D4C1A9",
"#+	c #8A7B66",
"$+	c #473A28",
"%+	c #8C7C67",
"&+	c #CEBBA3",
"*+	c #CCBAA2",
"=+	c #C6B39B",
"-+	c #4A3D2B",
";+	c #887762",
">+	c #C7B49D",
",+	c #B9A891",
"'+	c #AF9E88",
")+	c #A08E78",
"!+	c #C9B79F",
"~+	c #C5B39C",
"{+	c #C7B59D",
"]+	c #AD9C86",
"^+	c #D8C5AC",
"/+	c #7A6B57",
"(+	c #625440",
"_+	c #B6A48D",
":+	c #C0AF99",
"<+	c #A29481",
"[+	c #564A3B",
"}+	c #CAB8A1",
"|+	c #8F7F73",
"1+	c #554840",
"2+	c #716358",
"3+	c #D2BEAA",
"4+	c #8B7B6E",
"5+	c #5E5048",
"6+	c #5F5249",
"7+	c #483C2D",
"8+	c #655948",
"9+	c #B9A994",
"0+	c #5E5343",
"a+	c #3E3426",
"b+	c #453B2C",
"c+	c #50432F",
"d+	c #51432F",
"e+	c #574935",
"f+	c #AC9A83",
"g+	c #AC9C85",
"h+	c #B6A58D",
"i+	c #6D5F4A",
"j+	c #4A3E2A",
"k+	c #564834",
"l+	c #897A65",
"m+	c #5F513E",
"n+	c #D0BDA5",
"o+	c #9A8A74",
"p+	c #CFBBA3",
"q+	c #857662",
"r+	c #3F3322",
"s+	c #9B8B75",
"t+	c #493C2A",
"u+	c #B5A38B",
"v+	c #AA9983",
"w+	c #4A3E2C",
"x+	c #8C7C66",
"y+	c #685945",
"z+	c #C2B098",
"A+	c #998974",
"B+	c #504432",
"C+	c #CDBAA2",
"D+	c #978772",
"E+	c #A7957F",
"F+	c #B9A791",
"G+	c #5C4F3D",
"H+	c #5B4F3C",
"I+	c #B5A691",
"J+	c #968775",
"K+	c #362C1E",
"L+	c #AC9B87",
"M+	c #B5A293",
"N+	c #4C4039",
"O+	c #8F7E71",
"P+	c #CAB7A4",
"Q+	c #63564D",
"R+	c #605249",
"S+	c #64574F",
"T+	c #4A3F2E",
"U+	c #B7A793",
"V+	c #AB9B88",
"W+	c #B4A48F",
"X+	c #BAA995",
"Y+	c #9E8D77",
"Z+	c #4F422D",
"`+	c #433723",
" @	c #7B6C56",
".@	c #B1A089",
"+@	c #9A8A73",
"@@	c #564935",
"#@	c #867763",
"$@	c #8E7F6B",
"%@	c #D3C0A8",
"&@	c #A3927C",
"*@	c #9A8974",
"=@	c #B2A089",
"-@	c #D2BFA8",
";@	c #5A4D3A",
">@	c #8F7E69",
",@	c #D0BDA4",
"'@	c #CAB79F",
")@	c #81715D",
"!@	c #504431",
"~@	c #C5B29A",
"{@	c #8F7F6B",
"]@	c #463927",
"^@	c #CFBCA4",
"/@	c #71634F",
"(@	c #493D2A",
"_@	c #90806B",
":@	c #463A28",
"<@	c #403522",
"[@	c #8C7F6B",
"}@	c #B5A592",
"|@	c #3A3123",
"1@	c #796B5A",
"2@	c #CEBAA8",
"3@	c #5A4E46",
"4@	c #B19F8E",
"5@	c #A69586",
"6@	c #554941",
"7@	c #675A53",
"8@	c #4C412E",
"9@	c #786C5B",
"0@	c #665A4A",
"a@	c #6D6150",
"b@	c #695C48",
"c@	c #4F422E",
"d@	c #534631",
"e@	c #B3A189",
"f@	c #B4A28B",
"g@	c #655742",
"h@	c #4C3F2B",
"i@	c #665843",
"j@	c #D5C2AA",
"k@	c #82735F",
"l@	c #443825",
"m@	c #483C29",
"n@	c #D9C5AD",
"o@	c #D1BEA6",
"p@	c #837461",
"q@	c #665946",
"r@	c #756752",
"s@	c #756754",
"t@	c #4F422F",
"u@	c #685A47",
"v@	c #7E6F5A",
"w@	c #D2BFA7",
"x@	c #7C6D59",
"y@	c #C8B59D",
"z@	c #93836E",
"A@	c #443725",
"B@	c #6B5D49",
"C@	c #6E614D",
"D@	c #92836E",
"E@	c #423624",
"F@	c #3E341F",
"G@	c #928571",
"H@	c #AFA08C",
"I@	c #3E3527",
"J@	c #534738",
"K@	c #C7B3A0",
"L@	c #918275",
"M@	c #C5B2A0",
"N@	c #78695E",
"O@	c #5B4E45",
"P@	c #4D422E",
"Q@	c #BDAD98",
"R@	c #594E3F",
"S@	c #3C3324",
"T@	c #453B2B",
"U@	c #4C422E",
"V@	c #4A3D29",
"W@	c #8C7C64",
"X@	c #BFAD94",
"Y@	c #756651",
"Z@	c #A7967E",
"`@	c #685A45",
" #	c #A99983",
".#	c #958570",
"+#	c #A6957F",
"@#	c #B6A58F",
"##	c #534634",
"$#	c #C9B69E",
"%#	c #A4947E",
"&#	c #B19F88",
"*#	c #A79680",
"=#	c #B9A68E",
"-#	c #B7A58E",
";#	c #786A56",
">#	c #CEBBA4",
",#	c #776955",
"'#	c #AF9D87",
")#	c #D7C3AA",
"!#	c #71624E",
"~#	c #554734",
"{#	c #9E8D76",
"]#	c #C6B49D",
"^#	c #7F715A",
"/#	c #C0B09A",
"(#	c #7F7262",
"_#	c #403627",
":#	c #9F8E7D",
"<#	c #C4B2A1",
"[#	c #B8A696",
"}#	c #5A4D45",
"|#	c #675951",
"1#	c #504333",
"2#	c #C3B29D",
"3#	c #635847",
"4#	c #463B2C",
"5#	c #504533",
"6#	c #4B3F2C",
"7#	c #6F604A",
"8#	c #C3B097",
"9#	c #93836D",
"0#	c #3D311E",
"a#	c #73644E",
"b#	c #C4B198",
"c#	c #8A7A64",
"d#	c #493D29",
"e#	c #685A46",
"f#	c #BBA991",
"g#	c #B7A68F",
"h#	c #BBA993",
"i#	c #948570",
"j#	c #5E513E",
"k#	c #544633",
"l#	c #736550",
"m#	c #B6A58E",
"n#	c #C3B098",
"o#	c #70614E",
"p#	c #6E5F4B",
"q#	c #AE9C86",
"r#	c #C4B29A",
"s#	c #BFAC95",
"t#	c #92826D",
"u#	c #988770",
"v#	c #C1AF97",
"w#	c #BDAA93",
"x#	c #6E604C",
"y#	c #574936",
"z#	c #978671",
"A#	c #B5A58C",
"B#	c #857764",
"C#	c #453B2D",
"D#	c #493E2F",
"E#	c #413627",
"F#	c #6F6153",
"G#	c #D0BCAA",
"H#	c #958577",
"I#	c #574A3D",
"J#	c #AA9A87",
"K#	c #615646",
"L#	c #483D2E",
"M#	c #4E4332",
"N#	c #534734",
"O#	c #9D8C73",
"P#	c #A7957E",
"Q#	c #4D402C",
"R#	c #4D412C",
"S#	c #96866E",
"T#	c #A89780",
"U#	c #61533F",
"V#	c #514432",
"W#	c #504331",
"X#	c #584A37",
"Y#	c #524533",
"Z#	c #4D412D",
"`#	c #463C29",
" $	c #493E30",
".$	c #554939",
"+$	c #887968",
"@$	c #D2BEAC",
"#$	c #73655A",
"$$	c #665850",
"%$	c #493F2F",
"&$	c #4E4233",
"*$	c #4E4230",
"=$	c #4C402C",
"-$	c #514633",
";$	c #4F4435",
">$	c #B7A690",
",$	c #CDBBA5",
"'$	c #A39284",
")$	c #65574F",
"!$	c #4F4534",
"~$	c #4E4433",
"{$	c #4D4133",
"]$	c #504433",
"^$	c #574A35",
"/$	c #5C4E3A",
"($	c #473D2D",
"_$	c #594E3D",
":$	c #5F5343",
"<$	c #5C4F47",
"[$	c #62544B",
"}$	c #514635",
"|$	c #524733",
"1$	c #4F4336",
"2$	c #61544B",
"3$	c #67584F",
"4$	c #524734",
"5$	c #514537",
"6$	c #5A4E42",
"7$	c #4F4533",
"8$	c #554933",
"9$	c #EAE0D3",
"0$	c #E6DCD0",
"a$	c #E6DDD0",
"b$	c #E9DFD3",
"c$	c #E6DDD1",
"d$	c #DED5CA",
"e$	c #D8D0C6",
"f$	c #DAD1C7",
"g$	c #DAD2C7",
"h$	c #E1D7C9",
"i$	c #E2D8CB",
"j$	c #E0D6C9",
"k$	c #E7DDD1",
"l$	c #E7DED1",
"m$	c #DCD3C8",
"n$	c #DBD2C6",
"o$	c #D1C7BB",
"p$	c #D4CBBF",
"q$	c #E9E0D3",
"r$	c #E9DFD2",
"s$	c #E5DCCF",
"t$	c #E4DBCE",
"u$	c #E1D7CB",
"v$	c #E2D8CC",
"w$	c #DAD2C6",
"x$	c #D5CCC1",
"y$	c #CDC4B9",
"z$	c #E3D9CD",
"A$	c #D4CBC0",
"B$	c #EBE1D4",
"C$	c #E3DACE",
"D$	c #E8DDD3",
"E$	c #D4CABE",
"F$	c #D9D0C4",
"G$	c #E6DCCF",
"H$	c #D8CFC2",
"I$	c #D3CABE",
"J$	c #DFD6C9",
"K$	c #E5DBCE",
"L$	c #DAD1C6",
"M$	c #D8D1C6",
"N$	c #D8CEC7",
"O$	c #E3D9D0",
"P$	c #D9D1C7",
"Q$	c #D3CBC1",
"R$	c #D8D0C5",
"S$	c #DBD2C8",
"T$	c #CCC4B8",
"U$	c #D6CDC1",
"V$	c #E8DED2",
"W$	c #CFC6BB",
"X$	c #CAC1B7",
"Y$	c #D7CDC1",
"Z$	c #E1D7CA",
"`$	c #E5DBD2",
" %	c #D6CDC4",
".%	c #D1C8C0",
"+%	c #D7CEC1",
"@%	c #D8CEC2",
"#%	c #E8DED1",
"$%	c #D5CDC3",
"%%	c #E2D7CD",
"&%	c #E1D7CD",
"*%	c #DDD4C9",
"=%	c #DED4C7",
"-%	c #D1C8BC",
";%	c #E3D9CC",
">%	c #D0C7BC",
",%	c #D1C8BD",
"'%	c #DAD1C4",
")%	c #E5DCD0",
"!%	c #D5CCC0",
"~%	c #E1D8CC",
"{%	c #DED6CA",
"]%	c #E0D7CE",
"^%	c #DAD1C8",
"/%	c #E0D7CC",
"(%	c #C7BEB3",
"_%	c #DCD2C6",
":%	c #D9D1C5",
"<%	c #DCD2C7",
"[%	c #D5CBC0",
"}%	c #E0D7CA",
"|%	c #DED4C8",
"1%	c #C9C0B4",
"2%	c #DFD5C9",
"3%	c #DDD3C7",
"4%	c #D8D0C3",
"5%	c #E6DCD3",
"6%	c #D3CAC0",
"7%	c #CCC3B6",
"8%	c #D2C9BD",
"9%	c #E8DDD4",
"    .       +         @   @ #   # # # @ # + + # @ @ $ $ $ % $ $ $ @ & * = - ; > , ' ) ! ) ~ { ] ^ / ( ( _ : < [ } [ | 1 [ [ [ 1 [ 1 2 [ ",
"        3     3   + + + @ +   @ + + # + @ # + $ # # # # @ # $ @ $ # 4 5 6 7 8 9 0 ) ) ! ) ) { a b c d 7 7 e f } } [ [ [ [ 1 1 [ 2 [ [ 1 ",
".   . 3 . .   3 +     + + @ @ +   @ @ + + # $ $ # @ # @ @ @ # $ $ $ $ g c h i j k l ! ) ) ~ l ! m i _ 7 7 7 n [ } [ [ [ [ [ [ [ 1 [ 2 2 ",
"      o p q r r s   + 3 + +   + @   @ + # # # # @ # $ + $ # @ $ $ % + s t d ( u v l ) w ) ~ ) l x / y z z A B C D E F G | 2 H C G 2 2 2 ",
"I . % 3 J K L M N O 4 + @ + @ @ @ @ @ # # + # + P f   P @ $ $ % % %   Q - 7 _ R ] l ) ! ! ) ! S T U V W X X Y Z 2 `  ...H +.@.#.$.2 [ 2 ",
"    s %.&.*.=.-.;.>.,.# + & '.o   + + ).!.'.$ $ ~.{.].^.4 ).).'.o $ o /.(._ d d _.l ) :.<.[.}.S |.1.2.3.4.5.6.7.8.9.0.a.b.c.d.e.H 1 [ 2 ",
"  3 f.g.h.i.j.k.l.m.n.o.f p.q.4 f 4 f . r.s.~.O t.u.v.w.x.t.y.r.o O w.z.A.B.C.D.E.F.G.H.I.J.K.{ L.z M.N.O.P.D.Q.R.S.T.U.V.W.X.^.H [ 1 [ ",
"  . s Y.Z.`. +.+++@+#+$+%+&+*+=+K -+;+>+,+&+'+r )+!+~+v.q.{+]+^+/+(+_+{+:+<+d [+}+|+1+2+3+4+5+l 6+7+8+9+0+a+b+c+C d+e+f+g+h+i+j+k+[ 2 [ ",
"    s g.&.l+^.& m+n+o+r p+q+r+s+U.t+u+v+w+Y.x+r y+z+A+B+++C+D+q.O E+F+G+H+I+J+K+L+M+N+O+P+Q+R+l S+T+M.U+V+W+X+Y+Z+[ `+ @.@+@`+G @@2 1 [ ",
"    s Y.&.#@O s m+n+$@r.%@&@*@=@-@;@>@,@'@]+)@!@^.~@{@]@i+^@/@(@s 0._@:@<@[@}@|@1@2@3@4@5@6@) w 7@8@M.U+9@0@a@b@c@d@G W.e@f@g@h@[ [ 2 [ ",
".   s i@j@k@l@m@J n@L q.o@p@q@r@s@t@@@u@v@&@w@x@.+y@z@A@B@n+C@f o =+D@E@F@G@H@I@J@K@L@M@N@O@) ) 0 P@M.Q@R@S@T@U@D V@W@X@Y@f+Z@t@E [ [ 2 ",
"    s `@j@ #.#+#^@@#### $#%#++&#*#r =#-#k.;#>#,#O 0.'#u@Y.)#!#~#O {#]#)@^#/#(#_#C.:#<#[#}#G.) ~ |#1#O.2#3#4#_ 5#6#7#8#9#0#a#b#c#d#2 2 2 ",
"    o e#f#g#h#_+i#j#~.k#l#m#n#_+o#6#p#q#r#s#t#j.^.u#v#v.Y.w#x#x.y## z#U.A#B#C#D#E#F#G#H#1+) }.) l I#8+J#K#L#d M#N#O#P#f.Q#R#S#T#U#d@[ [ ",
"  . + '.~#O !@^.O '.  + ~.V#j.^.~#$ ~#W#w.~.^.s & f ####f X#w.% $ X#O Y#Z#`# $D#.$+$@$#$5+) }.:.$$v %$b+A i 7 &$*$d@=$c@[ E +.Z+E 2 [ [ ",
"3     + # +   +   3 + + 3 $ # $ @ @   # $ % # + @ $ % $ # $ $ # $ # # o s -$/ ;$>$,$'$O@:.) ~ ) )${ !$/ _ ~$i {$]$^$2 [ [ [ k+2 2 [ k+k+",
". .     3 + 3 3 @ + @ @ + # @ + + @ + @ @ + + # @ @ $ # @ @ $ % $ /$$ $ $ -$_ ($_$:$<$[$) ) w ~ ) { }$/ d 7 i / ]$} 1 [ [ [ 2 o.k+2 2 2 ",
"  . +       + + +   + +     +   @ + @ + + + # @ $ @ @ @ $ @ # $ $ @ $ @ @ |$_ d D#1$2$l ) ) w ~ ~ 3$x / _ 7 i _ 5#| 1 [ [ 1 1 @@@@[ [ [ ",
".     + + 3   + + +       @   + + + # + # @ # + # @ $ @ @ @ $ $ $ % # $ $ 4$_ 7 _ 5$v , ) ) ) ~ ) { 6$i ( 7 i ( 7$8$| ^$2 [ [ [ [ k+2 k+",
"    .       +         @   @ #   # # # @ # + + # @ @ $ $ $ % $ $ $ @ & * = - ; > , ' ) ! ) ~ { ] ^ / ( ( _ : < [ } [ | 1 [ [ [ 1 [ 1 2 [ ",
"        3     3   + + + @ +   @ + + # + @ # + $ # # # # @ # $ @ $ # 4 5 6 7 8 9 0 ) ) ! ) ) { a b c d 7 7 e f } } [ [ [ [ 1 1 [ 2 [ [ 1 ",
".   . 3 . .   3 +     + + @ @ +   @ @ + + # $ $ # @ # @ @ @ # $ $ $ $ g c h i j k l ! ) ) ~ l ! m i _ 7 7 7 n [ } [ [ [ [ [ [ [ 1 [ 2 2 ",
"      o p q r r s   + 3 + +   + @   @ + # # # # @ # $ + $ # @ $ $ % + s t d ( u v l ) w ) ~ ) l x / y z z A B C D E F G | 2 H C G 2 2 2 ",
"I . % 3 J K L M N O 4 + @ + @ @ @ @ @ # # + # + P f   P @ $ $ % % %   Q - 7 _ R ] l ) ! ! ) ! S T U V W X X Y Z 2 `  ...H +.@.#.$.2 [ 2 ",
"    s %.9$0$a$b$c$>.,.# + & '.o   + + ).!.'.$ $ ~.{.].^.4 ).).'.o $ o /.(._ d d _.l ) :.<.[.}.S |.1.2.d$e$f$g$h$8.9.i$a.b.c.j$e.H 1 [ 2 ",
"  3 f.g.k$i.j.k.l.l$n.o.f p.q.4 f 4 f . r.s.~.O t.i$v.w.x.t.y.r.o O w.z.A.B.C.D.E.F.G.H.I.J.K.{ L.z M.m$O.P.D.Q.R.S.T.n$V.o$p$^.H [ 1 [ ",
"  . s Y.q$`. +.+++r$#+$+%+s$t$u$K -+;+v$w$s$x$r y$z$u$v.q.v$A$B$/+(+_+v$d$<+d [+C$|+1+2+D$4+5+l 6+7+8+g$0+a+b+c+C d+e+E$p$F$i+j+k+[ 2 [ ",
"    s g.9$l+^.& m+a$o+r G$q+r+s+n$t+H$I$w+Y.x+r y+J$A+B+++K$D+q.O E+L$G+H+M$J+K+A$N$N+O+O$Q+R+l S+T+M.P$Q$R$S$T$Z+[ `+ @U$+@`+G @@2 1 [ ",
"    s Y.9$#@O s m+a$$@r.V$W$X$Y$V$;@>@a$z$A$)@!@^.Z${@]@i+0$/@(@s i$_@:@<@[@e$|@1@`$3@ %.%6@) w 7@8@M.P$9@0@a@b@c@d@G o$+%@%g@h@[ [ 2 [ ",
".   s i@b$k@l@m@J B$L q.k$p@q@r@s@t@@@u@v@W$#%x@.+v$z@A@B@a$C@f o u$D@E@F@G@$%I@J@%%L@&%N@O@) ) 0 P@M.*%R@S@T@U@D V@W@=%Y@E$-%t@E [ [ 2 ",
"    s `@b$ #.#+#0$@#### ;%>%++U$,%r '%F$k.;#)%,#O i$!%u@Y.9$!#~#O {#~%)@^#{%(#_#C.:#]%^%}#G.) ~ |#1#O./%3#4#_ 5#6#7#j$(%0#a#j$c#d#2 2 2 ",
"    o e#_%:%<%F$i#j#~.k#l#F$j$F$o#6#p#[%}%|%t#j.^.1%2%v.Y.3%x#x.y## z#n$4%B#C#D#E#F#5%H#1+) }.) l I#8+6%K#L#d M#N#7%-%f.Q#R#S#8%U#d@[ [ ",
"  . + '.~#O !@^.O '.  + ~.V#j.^.~#$ ~#W#w.~.^.s & f ####f X#w.% $ X#O Y#Z#`# $D#.$+$9%#$5+) }.:.$$v %$b+A i 7 &$*$d@=$c@[ E +.Z+E 2 [ [ ",
"3     + # +   +   3 + + 3 $ # $ @ @   # $ % # + @ $ % $ # $ $ # $ # # o s -$/ ;$:%)%'$O@:.) ~ ) )${ !$/ _ ~$i {$]$^$2 [ [ [ k+2 2 [ k+k+",
". .     3 + 3 3 @ + @ @ + # @ + + @ + @ @ + + # @ @ $ # @ @ $ % $ /$$ $ $ -$_ ($_$:$<$[$) ) w ~ ) { }$/ d 7 i / ]$} 1 [ [ [ 2 o.k+2 2 2 ",
"  . +       + + +   + +     +   @ + @ + + + # @ $ @ @ @ $ @ # $ $ @ $ @ @ |$_ d D#1$2$l ) ) w ~ ~ 3$x / _ 7 i _ 5#| 1 [ [ 1 1 @@@@[ [ [ ",
".     + + 3   + + +       @   + + + # + # @ # + # @ $ @ @ @ $ $ $ % # $ $ 4$_ 7 _ 5$v , ) ) ) ~ ) { 6$i ( 7 i ( 7$8$| ^$2 [ [ [ [ k+2 k+"};
