/* XPM */
static char * monomaker130_xpm[] = {
"227 15 340 2",
"  	c #574C3B",
". 	c #574B3B",
"+ 	c #574B3A",
"@ 	c #595246",
"# 	c #5D5957",
"$ 	c #5C5956",
"% 	c #5C5957",
"& 	c #5C5856",
"* 	c #5B5856",
"= 	c #5C5857",
"- 	c #5B5855",
"; 	c #5B5651",
"> 	c #554A3B",
", 	c #554939",
"' 	c #564A3A",
") 	c #564B3A",
"! 	c #554A39",
"~ 	c #554A3A",
"{ 	c #5A4F3A",
"] 	c #60523C",
"^ 	c #645641",
"/ 	c #645541",
"( 	c #635541",
"_ 	c #635540",
": 	c #625440",
"< 	c #62543F",
"[ 	c #635440",
"} 	c #61533F",
"| 	c #61543F",
"1 	c #60523E",
"2 	c #60533E",
"3 	c #534737",
"4 	c #524737",
"5 	c #524736",
"6 	c #5C5040",
"7 	c #6D5F56",
"8 	c #685B50",
"9 	c #584C3D",
"0 	c #504536",
"a 	c #514636",
"b 	c #524637",
"c 	c #514737",
"d 	c #524636",
"e 	c #544836",
"f 	c #564935",
"g 	c #574A36",
"h 	c #564936",
"i 	c #574936",
"j 	c #554835",
"k 	c #564B3B",
"l 	c #564D3D",
"m 	c #5A544D",
"n 	c #5B5755",
"o 	c #5B5652",
"p 	c #564D41",
"q 	c #584C39",
"r 	c #5F513C",
"s 	c #645542",
"t 	c #544837",
"u 	c #534837",
"v 	c #685A51",
"w 	c #6B5E55",
"x 	c #615447",
"y 	c #534736",
"z 	c #514535",
"A 	c #514637",
"B 	c #514736",
"C 	c #564A36",
"D 	c #574F43",
"E 	c #5C5854",
"F 	c #5B5754",
"G 	c #575045",
"H 	c #554B39",
"I 	c #5A4E3A",
"J 	c #60523D",
"K 	c #645642",
"L 	c #60533F",
"M 	c #54483A",
"N 	c #64564B",
"O 	c #6C5E55",
"P 	c #68594F",
"Q 	c #594D3D",
"R 	c #504535",
"S 	c #514536",
"T 	c #534836",
"U 	c #564835",
"V 	c #564D3F",
"W 	c #5B554F",
"X 	c #5E5A58",
"Y 	c #5D5956",
"Z 	c #585147",
"` 	c #5A4F39",
" .	c #60533D",
"..	c #60523F",
"+.	c #594C36",
"@.	c #544A36",
"#.	c #5E5142",
"$.	c #6B5C53",
"%.	c #6B5D54",
"&.	c #605447",
"*.	c #514635",
"=.	c #554935",
"-.	c #100E0B",
";.	c #100E0C",
">.	c #11100F",
",.	c #121111",
"'.	c #111110",
").	c #111010",
"!.	c #110F0D",
"~.	c #110F0B",
"{.	c #12100B",
"].	c #13100C",
"^.	c #12100C",
"/.	c #120F0B",
"(.	c #120F0C",
"_.	c #110E0A",
":.	c #100E0A",
"<.	c #0F0D0A",
"[.	c #141110",
"}.	c #12100D",
"|.	c #1B1711",
"1.	c #110E0B",
"2.	c #110F0C",
"3.	c #111111",
"4.	c #11100E",
"5.	c #13110F",
"6.	c #141210",
"7.	c #100D0A",
"8.	c #272218",
"9.	c #3E3527",
"0.	c #40382C",
"a.	c #40372B",
"b.	c #3F372B",
"c.	c #40382B",
"d.	c #3F362A",
"e.	c #423E36",
"f.	c #444241",
"g.	c #444240",
"h.	c #434140",
"i.	c #43413F",
"j.	c #43413E",
"k.	c #43403E",
"l.	c #454140",
"m.	c #433F39",
"n.	c #3E3629",
"o.	c #3F362B",
"p.	c #3E362A",
"q.	c #3E362B",
"r.	c #423A2A",
"s.	c #473D2D",
"t.	c #493E30",
"u.	c #493F30",
"v.	c #493E2F",
"w.	c #483E2F",
"x.	c #473D2E",
"y.	c #483E2E",
"z.	c #473E2E",
"A.	c #463D2E",
"B.	c #463C2D",
"C.	c #463C2E",
"D.	c #453B2B",
"E.	c #413828",
"F.	c #3B3328",
"G.	c #3C3428",
"H.	c #3D3428",
"I.	c #494138",
"J.	c #4F453E",
"K.	c #4E443E",
"L.	c #493F36",
"M.	c #3D352A",
"N.	c #3C3328",
"O.	c #3B3327",
"P.	c #3B3227",
"Q.	c #3C3327",
"R.	c #3E3528",
"S.	c #3F3528",
"T.	c #3F3627",
"U.	c #3F3628",
"V.	c #3E3627",
"W.	c #3F3527",
"X.	c #8F8A81",
"Y.	c #6E675C",
"Z.	c #41382B",
"`.	c #403B31",
" +	c #433F3C",
".+	c #454141",
"++	c #444140",
"@+	c #44413F",
"#+	c #43403B",
"$+	c #3E372B",
"%+	c #433B2B",
"&+	c #473E2D",
"*+	c #463D2D",
"=+	c #433A2A",
"-+	c #453C30",
";+	c #4E433D",
">+	c #4D433C",
",+	c #433A2F",
"'+	c #3D3427",
")+	c #403627",
"!+	c #40372A",
"~+	c #3F372A",
"{+	c #413A31",
"]+	c #443A2B",
"^+	c #42392F",
"/+	c #4A4138",
"(+	c #3A3227",
"_+	c #6D665C",
":+	c #41382C",
"<+	c #3F382C",
"[+	c #423F3B",
"}+	c #43403F",
"|+	c #413E38",
"1+	c #3E382B",
"2+	c #443B2C",
"3+	c #4E433E",
"4+	c #443B31",
"5+	c #3A3327",
"6+	c #8D8881",
"7+	c #6B655C",
"8+	c #28221B",
"9+	c #8F8A83",
"0+	c #8F8B83",
"a+	c #908C87",
"b+	c #918F8D",
"c+	c #92908F",
"d+	c #91908F",
"e+	c #918F8E",
"f+	c #918F8F",
"g+	c #91908E",
"h+	c #92908E",
"i+	c #908C89",
"j+	c #8F8A82",
"k+	c #8E8A83",
"l+	c #928D84",
"m+	c #958E86",
"n+	c #958E85",
"o+	c #958F86",
"p+	c #948E85",
"q+	c #938E85",
"r+	c #938D84",
"s+	c #938E84",
"t+	c #938D85",
"u+	c #938C84",
"v+	c #8E8981",
"w+	c #8E8881",
"x+	c #8C8881",
"y+	c #928C86",
"z+	c #98918E",
"A+	c #97918D",
"B+	c #96918C",
"C+	c #908B83",
"D+	c #8C8781",
"E+	c #CDCBC8",
"F+	c #949089",
"G+	c #1C1813",
"H+	c #6E685F",
"I+	c #6E675F",
"J+	c #6D685E",
"K+	c #6F6B67",
"L+	c #716F6E",
"M+	c #716F6D",
"N+	c #716E6D",
"O+	c #716E6E",
"P+	c #706E6C",
"Q+	c #6E6B65",
"R+	c #6D6860",
"S+	c #6E675E",
"T+	c #6D675F",
"U+	c #6D675E",
"V+	c #736B61",
"W+	c #766E62",
"X+	c #756D62",
"Y+	c #746D62",
"Z+	c #746D61",
"`+	c #746C61",
" @	c #746C60",
".@	c #736C60",
"+@	c #736B60",
"@@	c #736C61",
"#@	c #6F685C",
"$@	c #6C665C",
"%@	c #6F6862",
"&@	c #78716B",
"*@	c #78706B",
"=@	c #79716D",
"-@	c #746D65",
";@	c #BCB9B5",
">@	c #584D3A",
",@	c #5D503A",
"'@	c #5C4F3B",
")@	c #584D3B",
"!@	c #564A39",
"~@	c #564C39",
"{@	c #574F42",
"]@	c #5C5855",
"^@	c #5B5756",
"/@	c #5C5653",
"(@	c #595249",
"_@	c #554C3C",
":@	c #554A38",
"<@	c #5F523C",
"[@	c #554B36",
"}@	c #5E5143",
"|@	c #6A5C53",
"1@	c #6A5B52",
"2@	c #695B51",
"3@	c #66584F",
"4@	c #55493A",
"5@	c #504434",
"6@	c #5B503A",
"7@	c #61533C",
"8@	c #61533D",
"9@	c #5B4F3A",
"0@	c #5A554D",
"a@	c #5A5551",
"b@	c #575147",
"c@	c #554938",
"d@	c #564939",
"e@	c #61523E",
"f@	c #564B37",
"g@	c #65584C",
"h@	c #6A5B53",
"i@	c #695B52",
"j@	c #615449",
"k@	c #4F4434",
"l@	c #5D523B",
"m@	c #645741",
"n@	c #5E513D",
"o@	c #5D544E",
"p@	c #5B5956",
"q@	c #595149",
"r@	c #554B3A",
"s@	c #574C38",
"t@	c #625340",
"u@	c #574A37",
"v@	c #524735",
"w@	c #625548",
"x@	c #5B503F",
"y@	c #504534",
"    . .   +   +   . + + @ # # $ % % % % % & & % % % % % & % & % & & % % % & & % & % % % % * * & * * * = & * - & & * * & & * % ; > , ' ) ! ' ) ' ~ { ] ^ ^ / / ^ ^ ( ( ^ ^ ( / ^ ^ ^ ^ / ( ^ ( _ ( _ ( _ _ _ _ ( ( ( ( ( _ _ ( : ( ( : ( : : : _ : _ < [ _ : _ _ : _ : : : : : : : < < } : } < < } } } } } : : < | } : : } } } } 1 } } 1 } 1 1 } } 2 } } | 3 4 5 4 4 4 5 6 7 8 9 0 a a 4 5 a 4 a a a a b a a c 0 d e f g g g g f h g i g g h g g h f f f f f f j f f f ",
"k ) .         . ) . . ) l m # % % % $ & & & # % % % & % % & % & % $ & * * * & & % % & = & & * = * * * * & & & & - * - - n - % o p ! ' ' ' ) ) ~ ~ q r s / / ^ ^ ^ ^ _ ( / ^ / ( / ^ _ ( / _ ( _ ( ( ( _ ( ^ [ ( _ _ : ( _ _ [ ( _ ( ( [ : : _ _ [ : : : _ _ < : _ : : : : < : < : : } } : < < } } : : } } } < } } } < } } } } } } } 1 } } 1 } } 2 } 1 } } t b u d u a a . v w x y z 4 A 5 5 5 4 a d a B 4 a a a a d d e C g i h g g f h g f h g g g h h h f f f j f h ",
"  )   .     )   ) ) . ) ! D E # # # & # & % % % % & % % & % & & $ & & & & & & * & & & * % & * & & * * & & & & * - - - - n - & F G H ' ! ) ) ~ ' , I J / K ^ K ( ^ ^ ^ ( ( / ( _ ( ^ ( ( _ _ ( ^ _ ( / ( ( _ ( ( ( [ ( [ _ : : : _ _ ( ( : _ : : : : < _ : _ < : : : : : : : : < < } : : } } : < } < } } : } } } } } } } } } } 1 } } 1 } } 1 } } L 1 1 2 } g u 4 4 4 b a M N O P Q R S a 4 5 4 a d a 4 5 a a 5 a a R S 5 T e j h g f g h h f f h f f g f U U f f h h f ",
"  ) ) +     . .     . . ) V W X # Y % # Y & & % % % & & % % $ & & & * & * & % * * % * % & & * * * * & * * n - - & n n - n * & F Z H ' ~ ) ! ' ~ ~ `  .K ^ ^ ^ ^ ^ / ( ^ ( ^ _ ^ ( ( _ / _ / ( ( [ / ( _ ( _ / ( [ ( _ : _ _ : _ : : [ : : : _ : : : _ : : < : < : : : : : : < : : } : : < < } : < < } < | } } } } } } } } } } 2 1 } 1 } } } } 2 L } J ..} +.@.4 u a 4 a d #.$.%.&.4 S d d 4 5 4 a a a a a 5 a a a a a *.*.a d e =.g g f f f f g h g h h f h h =.f h j ",
"-.-.-.-.-.-.-.-.-.-.-.-.-.;.>.,.'.'.'.'.'.'.'.'.'.'.'.'.'.'.'.'.'.'.'.'.'.'.'.'.'.'.'.'.'.'.'.'.'.'.'.'.'.).'.'.'.).).'.).'.'.).!.-.-.-.-.-.-.-.-.~.{.].].].].].].].].].].].].].].].].].].].].].].].].].].].].].].].].^.].].^.].^.^.].^.^.^.].^.^.^.].^.^.^.^.^.^.^.^.^.^.^.^.^.^.^.^.^.^.^.^.^.^.^.^.^.^.^.^.^.^.^.^.^.^.^.^.{./.^./.^.^.^.^.{.^.^./.(.^._.:.<.:.<.<.<.<.(.[.[.}.<.<.<.<.<.<.<.<.<.<.<.<.<.<.<.<.<.<.<.<.<.<.:.:.:.:.:.:.:.:.:.:.:.:.:.:.:.:.:.:.:.|.",
"-.-.-.-.-.-.-.-.-.-.-.1.-.-.2.>.3.'.'.'.'.'.'.'.'.'.'.'.'.'.'.'.'.'.'.'.'.'.'.'.'.'.'.'.'.'.'.'.'.'.'.'.).'.'.'.'.'.).'.).'.'.'.4.-.-.-.-.-.-.-.-.~.{.].].].].].].].].].].].].].].].].].].].].].].].].].].].].].].].].^.].].].].^.^.^.^.^.^.^.^.^.^.].^.^.].].^.^.^.^.^.^.^.^.^.^.^.^.^.^.^.^.^.^.^.^.^.{.^.^.^.^.^.^.^.^.^.^.^.^.^./.^././.^.{./.{.{./.^.~.:.<.<.<.<.<.<.1.5.6.5.1.<.<.<.<.<.<.<.<.<.<.<.<.<.<.<.<.<.<.<.<.<.<.<.7.:.:.:.:.:.:.:.:.:.:.:.:.:.:.:.8.9.",
"-.-.0.a.b.c.b.b.c.b.c.c.b.d.a.e.f.g.h.i.i.i.h.i.i.i.i.h.i.i.i.i.h.i.i.i.h.i.i.i.i.i.i.i.i.i.i.i.i.i.i.i.i.j.i.k.j.k.k.j.j.k.i.l.m.n.d.o.p.p.o.p.q.r.s.t.u.t.u.t.u.t.t.u.t.v.t.t.t.t.t.t.v.u.t.v.t.t.v.v.v.v.v.t.w.t.w.w.w.w.w.t.v.w.w.w.v.w.w.v.w.w.w.w.w.w.w.w.w.x.w.y.y.w.y.x.x.y.x.w.x.w.x.w.x.x.z.x.x.x.x.x.x.x.x.A.x.x.B.B.x.x.B.x.x.B.B.B.B.x.A.C.x.D.E.F.G.H.G.G.F.q.I.J.K.L.M.F.N.N.N.N.G.F.F.N.G.G.F.O.F.N.O.F.F.O.F.F.P.F.F.Q.R.S.T.U.T.U.V.V.T.U.T.W.W.X.Y.",
"-.-.c.a.b.a.b.a.c.a.a.a.a.Z.b.`. +.+++i.i.i.@+h.i.i.i.h.i.i.i.h.i.i.i.i.i.i.i.i.i.i.i.i.i.i.i.i.i.i.i.i.i.i.k.i.i.k.k.j.k.i.i.h.#+$+p.o.q.q.b.b.p.%+&+t.t.u.t.t.t.t.u.t.t.t.t.t.v.t.t.t.u.t.t.v.v.v.v.t.v.v.v.v.v.w.w.t.w.w.w.t.w.w.w.w.y.y.w.w.y.y.w.v.w.w.y.w.w.w.y.y.y.w.w.w.w.w.x.x.x.x.x.y.x.x.x.x.x.x.x.x.x.x.x.x.B.x.x.B.x.x.B.x.*+B.x.x.B.B.B.B.C.B.=+F.G.N.G.G.N.G.-+;+;+>+,+O.O.F.G.F.G.G.N.G.G.F.N.F.F.N.N.F.F.F.F.O.F.F.O.O.O.P.O.Q.'+R.V.T.)+T.)+T.T.X.Y.",
"-.-.c.a.a.a.a.a.b.c.a.c.a.Z.!+~+{+k.h.i.i.h.i.h.h.i.i.h.h.i.h.i.i.h.i.i.i.i.i.h.i.h.i.i.i.i.i.i.i.i.i.i.k.i.i.k.i.i.j.k.j.i.j.h.#+$+o.o.o.q.b.p.q.%+y.t.t.u.t.v.t.u.u.v.u.u.t.u.t.v.t.t.t.v.t.t.v.v.v.t.v.v.v.v.t.v.v.w.v.v.w.v.v.v.w.w.w.v.v.y.w.y.w.w.y.y.y.w.w.y.w.x.w.x.x.x.w.y.x.x.y.y.x.w.y.w.y.x.x.x.x.x.x.x.x.x.x.x.x.x.x.B.A.x.B.x.B.A.B.B.B.B.B.x.]+F.G.G.N.F.F.F.^+>+;+K./+p.O.F.F.G.F.F.F.F.F.F.O.F.F.F.F.F.F.F.F.F.F.F.O.O.F.F.(+O.F.O.Q.'+'+9.9.V.V.X._+",
"-.-.c.a.:+c.a.b.c.a.a.b.b.c.b.d.<+[+f.h.++i.i.i.h.h.i.i.i.h.i.h.h.i.i.i.i.i.i.i.h.i.i.i.i.i.}+i.k.i.i.k.i.i.i.i.j.i.i.i.j.i.i.i.|+1+d.p.o.p.o.q.p.2+v.t.u.t.t.t.t.t.t.u.t.v.v.v.v.u.t.v.v.v.v.v.t.v.v.v.v.t.w.w.t.v.v.w.w.w.w.w.w.w.w.w.w.w.w.w.w.w.y.y.w.y.w.w.y.y.y.x.y.w.x.x.y.y.x.w.x.w.w.y.x.x.x.y.z.x.x.x.x.x.x.x.A.x.x.x.B.x.B.B.A.B.B.x.x.B.B.x.B.x.]+N.N.G.N.G.G.F.p.L.;+3+;+4+F.F.G.F.F.G.G.F.G.F.N.F.O.O.F.F.F.O.O.O.F.O.O.O.F.O.F.F.O.F.5+O.O.O.F.O.Q.6+7+",
"-.8+9+9+9+9+9+9+9+9+0+9+9+9+9+9+9+a+b+c+c+c+d+d+d+d+d+d+d+d+d+d+d+d+d+d+d+d+d+d+d+d+d+d+d+d+d+d+d+e+f+e+d+e+g+g+e+e+g+g+e+d+h+i+0+j+9+k+k+9+k+k+k+l+m+m+m+m+n+m+m+o+n+o+m+m+m+m+m+o+m+m+m+n+n+m+n+n+m+p+n+p+n+n+n+p+m+p+p+p+m+n+p+p+n+n+p+p+n+p+p+p+p+q+p+p+p+q+q+p+p+p+q+p+p+p+p+p+q+q+q+q+p+q+q+q+q+q+q+q+q+q+q+q+q+q+q+q+q+q+q+r+q+q+r+q+r+s+r+q+r+t+r+q+u+X.v+6+w+6+6+x+x+y+z+A+z+B+C+x+x+x+x+x+x+6+6+x+x+x+x+x+x+x+x+x+x+x+x+x+x+x+x+x+x+x+x+x+x+x+x+x+x+x+D+E+F+",
"G+b.H+H+H+H+H+I+H+I+I+H+H+H+H+H+H+J+K+L+L+L+L+L+L+L+L+L+L+L+L+L+L+L+L+L+L+L+L+L+L+L+L+L+L+L+M+L+N+L+L+L+L+L+N+O+L+N+L+L+L+P+Q+R+S+H+T+I+I+H+H+T+U+V+W+X+X+X+X+X+X+X+X+X+X+X+X+X+X+X+X+X+X+X+X+X+X+Y+X+X+X+X+X+X+X+Y+Y+Y+Y+X+Y+Y+X+X+Y+Z+Y+X+Y+Y+Y+Y+Y+Z+Y+Y+Y+Z+Y+Y+Y+Y+Z+Y+Y+`+`+`+`+`+Y+Y+`+ @ @Z+`+`+ @`+`+`+`+`+`+`+.@`+`++@`++@+@+@+@+@`+`+@@+@@@+@@@+@+@#@$@7+7+7+7+7+7+%@&@&@*@=@-@7+7+7+7+7+7+7+7+7+7+7+7+7+7+7+7+7+7+7+7+7+7+7+7+7+7+7+7+7+7+7+7+7+7+7+7+F+;@",
". ) .   ) . ) >@,@'@)@)   ) + . ) !@~@{@F % = & $ # $ & & & & & * * * * * * & * & * * * * & ]@n - n n n & n * & & ^@/@(@_@:@:@! , ' ' ' , ' ! ' ' 1 K K _ / ( _ ( / _ / / ( _ ( _ ( ( ( ( ( : _ _ ( _ _ ( _ _ _ ( [ : : : ( _ : : : _ : < : : < < < < : : < : : : : : : } } < : < | : } : } } } } } } } } } } } } 2 } } } 1 } 1 2 } 1 } 1 L 1 1 1 1 1 L 1 L 1 <@[@A b a a 4 S R }@|@1@2@|@3@4@R a d a 5 a 4 a a a a a R R a z R a a z R R R a 0 R R R R R R R 5@R R R ",
") ) ) . ) ) ' 6@7@8@9@) ) ) . . . ' !@' 0@Y % $ & & - * & & & = = * * * & * * & & * * & & * * & - * * n - * * $ & a@b@k c@d@~ ' ! ' ~ ~ , ~ ! ) !@L K _ _ _ ( / _ _ ( _ ( _ _ _ _ _ _ ( _ ( _ : [ ( : : : _ _ : : : _ : : : : _ : : : : : : : : : : : : : } : } : < < } } } } } : } | | } } < } } : } } } } } } } } } 1 1 L 1 } } } } 1 1 L ..1 1 L 1 1 1 1 1 e@f@a 4 4 4 A b R ' g@h@2@i@%.j@4 R a a a z a *.a a a a a a z a a R a R R a *.R R a R R R R R R R R R k@",
"  ) . ) ) k ' l@m@^ n@4@) k k )   ) ) , V o@p@# % & & $ * & & * & * * * * & * * ^@^@& * * n - - & & n * & & * E q@r@! :@!@' ~ ' ~ ' ' ! ! ) r@) s@} K ^ / ^ ^ ^ ( ( ( _ ( ( _ ( [ _ : ( : ( ( _ ( [ _ [ ( ( : _ _ _ : ( : _ : _ : < : : : : : : : : : } : : : < : : : : : : } } } < : : } } } } } } } } | } } 1 } } } 1 } 1 } } 1 } 1 1 1 } 1 1 1 1 1 1 L 1 L t@u@0 a a 5 d a R v@w@|@1@2@$.|@x@y@S a 5 a a *.a *.a a R R a a R a R R R 0 R R R R S R R R R R R R R R "};
