/* XPM */
static char * monomaker129_xpm[] = {
"227 15 395 2",
"  	c #584D3C",
". 	c #584C3C",
"+ 	c #584C3B",
"@ 	c #594D3C",
"# 	c #594E3D",
"$ 	c #594D3D",
"% 	c #584F40",
"& 	c #595044",
"* 	c #5A5249",
"= 	c #5E5854",
"- 	c #5E5C5A",
"; 	c #5E5B59",
"> 	c #5E5B58",
", 	c #5E5B57",
"' 	c #5E5A57",
") 	c #5E5A58",
"! 	c #5D5A57",
"~ 	c #5D5957",
"{ 	c #5D5A58",
"] 	c #5C5855",
"^ 	c #585046",
"/ 	c #564B3B",
"( 	c #574B3B",
"_ 	c #574C3B",
": 	c #574C3C",
"< 	c #574B3A",
"[ 	c #564B3A",
"} 	c #564A3A",
"| 	c #564C3A",
"1 	c #564C3B",
"2 	c #554B3B",
"3 	c #554B3C",
"4 	c #564C3D",
"5 	c #564C3C",
"6 	c #564D3D",
"7 	c #554C3C",
"8 	c #574D3E",
"9 	c #564A39",
"0 	c #554A39",
"a 	c #554939",
"b 	c #594E39",
"c 	c #5E523C",
"d 	c #655743",
"e 	c #645642",
"f 	c #645741",
"g 	c #645641",
"h 	c #645541",
"i 	c #635540",
"j 	c #635541",
"k 	c #625440",
"l 	c #635440",
"m 	c #584C38",
"n 	c #544939",
"o 	c #544938",
"p 	c #534838",
"q 	c #544838",
"r 	c #544839",
"s 	c #534738",
"t 	c #554937",
"u 	c #5A4D38",
"v 	c #594C38",
"w 	c #5A4C38",
"x 	c #594B37",
"y 	c #584B37",
"z 	c #584B36",
"A 	c #574A36",
"B 	c #584A36",
"C 	c #584A37",
"D 	c #564936",
"E 	c #564935",
"F 	c #584D3B",
"G 	c #584F42",
"H 	c #5C564F",
"I 	c #5F5B59",
"J 	c #5E5957",
"K 	c #5B544D",
"L 	c #574E3F",
"M 	c #574C3A",
"N 	c #564C3E",
"O 	c #574D3F",
"P 	c #574E41",
"Q 	c #574E42",
"R 	c #574F44",
"S 	c #585045",
"T 	c #585147",
"U 	c #585146",
"V 	c #575148",
"W 	c #585148",
"X 	c #554A3A",
"Y 	c #55493A",
"Z 	c #5A4E39",
"` 	c #665743",
" .	c #635641",
"..	c #5C4E38",
"+.	c #574C38",
"@.	c #524737",
"#.	c #564A38",
"$.	c #594C37",
"%.	c #574936",
"&.	c #594E3C",
"*.	c #584B3B",
"=.	c #584E3D",
"-.	c #5A5246",
";.	c #5B554A",
">.	c #5D5752",
",.	c #5F5A58",
"'.	c #5E5956",
").	c #595246",
"!.	c #585043",
"~.	c #585144",
"{.	c #585145",
"].	c #585247",
"^.	c #595449",
"/.	c #59534A",
"(.	c #59544C",
"_.	c #5A544D",
":.	c #59534D",
"<.	c #59544D",
"[.	c #5A554E",
"}.	c #5A554F",
"|.	c #59544E",
"1.	c #575042",
"2.	c #594D3A",
"3.	c #635640",
"4.	c #625540",
"5.	c #62543F",
"6.	c #5E513B",
"7.	c #584E38",
"8.	c #5A4D37",
"9.	c #584C3A",
"0.	c #574D3B",
"a.	c #594F42",
"b.	c #5B534A",
"c.	c #5F5C5A",
"d.	c #5E5B5A",
"e.	c #5E5A59",
"f.	c #5A544C",
"g.	c #574D3C",
"h.	c #574D3D",
"i.	c #584E40",
"j.	c #584E41",
"k.	c #584F43",
"l.	c #595147",
"m.	c #58524A",
"n.	c #5A544E",
"o.	c #5A5650",
"p.	c #5A5651",
"q.	c #5B5852",
"r.	c #5B5752",
"s.	c #5A5751",
"t.	c #59564F",
"u.	c #59554F",
"v.	c #5A564F",
"w.	c #595650",
"x.	c #574E40",
"y.	c #564B39",
"z.	c #574B39",
"A.	c #655642",
"B.	c #60523E",
"C.	c #5B4F39",
"D.	c #524738",
"E.	c #534837",
"F.	c #110E0B",
"G.	c #110F0B",
"H.	c #100E0B",
"I.	c #110F0C",
"J.	c #11100E",
"K.	c #121110",
"L.	c #121111",
"M.	c #111110",
"N.	c #111111",
"O.	c #110F0D",
"P.	c #110F0E",
"Q.	c #11100F",
"R.	c #11110F",
"S.	c #100F0C",
"T.	c #120F0B",
"U.	c #12100C",
"V.	c #13100C",
"W.	c #0F0D0A",
"X.	c #100E0A",
"Y.	c #110E0A",
"Z.	c #1C1811",
"`.	c #12100B",
" +	c #282219",
".+	c #403628",
"++	c #41382C",
"@+	c #41372C",
"#+	c #41382B",
"$+	c #413B2F",
"%+	c #413C33",
"&+	c #433F39",
"*+	c #44413E",
"=+	c #464342",
"-+	c #454341",
";+	c #454241",
">+	c #444240",
",+	c #444140",
"'+	c #444241",
")+	c #454240",
"!+	c #444141",
"~+	c #423C34",
"{+	c #3F382D",
"]+	c #40372B",
"^+	c #40382B",
"/+	c #41392C",
"(+	c #413B33",
"_+	c #423D35",
":+	c #423E37",
"<+	c #413D38",
"[+	c #423E38",
"}+	c #423E39",
"|+	c #423E3B",
"1+	c #423F3B",
"2+	c #43403B",
"3+	c #42403B",
"4+	c #423F3A",
"5+	c #413F3A",
"6+	c #413E3A",
"7+	c #413E39",
"8+	c #413E3B",
"9+	c #413E38",
"0+	c #413B32",
"a+	c #3F382C",
"b+	c #3F362A",
"c+	c #3F362B",
"d+	c #3E362B",
"e+	c #3E362A",
"f+	c #3F372B",
"g+	c #453B2B",
"h+	c #493E2F",
"i+	c #493F30",
"j+	c #493E30",
"k+	c #483E2F",
"l+	c #463B2D",
"m+	c #3E3529",
"n+	c #3E3629",
"o+	c #3D3529",
"p+	c #413829",
"q+	c #413728",
"r+	c #423829",
"s+	c #413828",
"t+	c #413628",
"u+	c #3F3627",
"v+	c #8F8A81",
"w+	c #6E675C",
"x+	c #41372B",
"y+	c #433E38",
"z+	c #45413E",
"A+	c #41392F",
"B+	c #40362B",
"C+	c #3F382B",
"D+	c #413A2F",
"E+	c #423E3A",
"F+	c #43413B",
"G+	c #40392F",
"H+	c #433B2B",
"I+	c #473E2D",
"J+	c #483E2E",
"K+	c #473D2E",
"L+	c #463C2E",
"M+	c #403728",
"N+	c #3D3528",
"O+	c #413729",
"P+	c #40382C",
"Q+	c #423D33",
"R+	c #43413A",
"S+	c #444341",
"T+	c #43413F",
"U+	c #40362A",
"V+	c #413930",
"W+	c #433F3B",
"X+	c #413C36",
"Y+	c #3F382E",
"Z+	c #40382A",
"`+	c #433A2B",
" @	c #483E30",
".@	c #473D2D",
"+@	c #423929",
"@@	c #403629",
"#@	c #423C36",
"$@	c #464341",
"%@	c #413C34",
"&@	c #403A31",
"*@	c #3F3729",
"=@	c #3D3429",
"-@	c #3E352A",
";@	c #2B2A28",
">@	c #929190",
",@	c #939190",
"'@	c #92918F",
")@	c #92908F",
"!@	c #918E8A",
"~@	c #8F8B83",
"{@	c #8F8A83",
"]@	c #908B83",
"^@	c #908E8B",
"/@	c #918F8C",
"(@	c #908F8C",
"_@	c #908E8C",
":@	c #918E8C",
"<@	c #918E8B",
"[@	c #908D8A",
"}@	c #8F8B84",
"|@	c #8E8A83",
"1@	c #938E84",
"2@	c #958F85",
"3@	c #958E86",
"4@	c #958F86",
"5@	c #958E85",
"6@	c #948E85",
"7@	c #938E85",
"8@	c #8F8B82",
"9@	c #8E8982",
"0@	c #8E8A82",
"a@	c #8E8981",
"b@	c #908B82",
"c@	c #908A81",
"d@	c #908B81",
"e@	c #CECCC8",
"f@	c #97918A",
"g@	c #1F1E1D",
"h@	c #73716F",
"i@	c #72706F",
"j@	c #71706F",
"k@	c #71706E",
"l@	c #72706E",
"m@	c #716F6E",
"n@	c #716F6F",
"o@	c #716F6D",
"p@	c #6F6B63",
"q@	c #6E685F",
"r@	c #6F685F",
"s@	c #6F6B66",
"t@	c #706D69",
"u@	c #716E6B",
"v@	c #706E6B",
"w@	c #706E6A",
"x@	c #6F6D6A",
"y@	c #6F6E6A",
"z@	c #6F6D69",
"A@	c #6F6D68",
"B@	c #6E6B65",
"C@	c #6D685F",
"D@	c #6D675E",
"E@	c #6E675F",
"F@	c #706A5F",
"G@	c #736B5F",
"H@	c #766E63",
"I@	c #756D62",
"J@	c #756E62",
"K@	c #746D62",
"L@	c #6F685D",
"M@	c #6D665E",
"N@	c #6D675D",
"O@	c #6D665D",
"P@	c #6C665D",
"Q@	c #6C665C",
"R@	c #70685D",
"S@	c #6F685C",
"T@	c #6F675C",
"U@	c #BEBAB6",
"V@	c #5D5956",
"W@	c #5E5958",
"X@	c #5B564F",
"Y@	c #584D3E",
"Z@	c #5B5751",
"`@	c #5B5650",
" #	c #59554E",
".#	c #58554E",
"+#	c #58544E",
"@#	c #5A4E3A",
"##	c #61533F",
"$#	c #5C4F3A",
"%#	c #554A37",
"&#	c #574A37",
"*#	c #5C5957",
"=#	c #5D5A59",
"-#	c #5C5754",
";#	c #584D40",
">#	c #574F43",
",#	c #5B5853",
"'#	c #575044",
")#	c #5E503B",
"!#	c #574B38",
"~#	c #5D5855",
"{#	c #585042",
"]#	c #584E3C",
"^#	c #58554F",
"/#	c #58514A",
"(#	c #564D3E",
"_#	c #594D3B",
":#	c #665843",
"<#	c #60523D",
"[#	c #534938",
"  . .       + . @     # $ + +   % & * = - ; > > , ' ) ) > ! ) ! ! ~ ~ ) ) ! ~ ~ ~ { ! ! ! { ~ { ] ^ / + . + . . . ( . _ . _ ( _ _ _ _ ( ( : < ( _ + < ( _ _ [ ( [ } < [ [ [ [ | 1 / 2 3 4 5 6 6 7 6 4 8 6 4 9 } [ } [ [ [ } [ } 0 } a b c d e f g e e g g e g h i i j j j j h i i i j j i j j i k i l k i i i k i k j i i m 0 n o p n n q n q r o n n p p s t u v w v v w x v x x v v y y y v x y y x y x z y y y y y y A A B A y A A y A A A y C A A A A A A D A A E ",
"  @ . . .     .   . @ + F ( + G H ' ) I ) ) ' ) ' ) ) ) ) ) ) ! ) ~ ) ) ' ~ ~ ) ) { ~ ' ~ ! ~ { J K L M _ _ . _ ( _ + _ : + ( _ _ + _ _ _ _ _ ( _ _ [ < [ < [ < 9 < [ M ( 5 N O P Q R S T U T T T T ^ V W S 1 } 9 [ } } [ X } X Y } Y X Z ` g  .h e g j e h g g i g j g h g g j h i i i i j l i k i i i k k k i k i j k k ..+.p p o p q n q p q o q q q p @.#.u v v v v v v y v y y v y v v x x $.y y y y y y y y y A B B y A A A A A y A A A A C A C A A A %.A A A A ",
"@ &.&.$ .         . *.( =.-.;.>.,.; { { > ) ) ) ) ) ) ! ) ) { ! { ! ~ ~ ) ! ~ ~ ) ) ) ' ! { ' ! ) '.).< ( _ _ _ _ _ _ + . _ _ ( ( _ ( } ( + ( < + [ / 8 P !.~.~.{.).].^././.(.(._.:.<.[.[.}.|.}.|.|.[.|.|.[.W 1.[ } [ [ [ } } } X X Y Y 2.3.e e e g g h j e j h i j j i g g j g j i i l k j j j i 4.j j k i k i j k k k 5.6.7.s n o n n q q n q q p p o p s 0 8.w v v x v v v y v v v y v y x x v y y y y y y B y y y B A y y y y A A A y A C A A A A A C A A %.%.A E ",
". &.&.. . . . @ 9.0.=.a.b.'.c.d.) ) ) ) ! ) ! { { { { { ~ ) { { ) { ~ ! { { ~ ! { ~ ~ { ~ ) ~ ~ { e.f.< + _ _ ( _ _ ( (   : ( + [ _ 0.| | g.h.8 i.j.k.l.m.:.n.}.o.p.p.q.r.p.r.o.s.s.p.t.t.t.t.u.t.o.v.t.w.w.u.(.x.1 y.[ } } } } a X X Y z.6.5.A.g g j h g j e j j j h g j j j j i i i l j i j j i j j l k k k k k k j k k B.C.D.n n q p q r q q o p p p p p E.u $.v m v v y v y v v y y v x y y y y y y y y y B y x y y y A A y y y A A B A A A A A A A C A A A %.%.E ",
"F.G.G.F.F.F.F.F.F.H.G.I.J.K.L.L.L.L.L.L.M.L.M.N.N.N.N.N.M.L.N.N.L.N.M.M.N.N.M.M.N.M.M.N.M.L.M.M.N.L.J.H.F.H.H.H.H.H.H.H.F.H.H.F.H.H.H.H.H.H.H.H.I.I.I.O.P.J.Q.Q.Q.Q.Q.R.Q.Q.Q.Q.Q.Q.Q.Q.Q.Q.Q.Q.Q.Q.Q.Q.Q.Q.Q.J.S.H.H.H.H.H.H.H.H.H.H.H.H.T.U.V.V.V.V.V.V.V.V.V.V.V.V.V.V.V.V.V.V.V.V.V.V.V.V.V.V.V.V.V.U.U.U.U.U.U.V.U.U.T.G.W.H.H.X.X.X.H.X.X.X.X.X.X.X.X.X.Y.Y.Y.Y.Y.Y.Y.Y.Y.Y.Y.Y.Y.Y.Y.Y.Y.Y.Y.Y.Y.Y.Y.Y.Y.Y.Y.Y.Y.Y.X.X.Y.Y.Y.X.X.Y.X.X.X.X.X.X.X.Y.X.X.X.X.X.Z.",
"F.F.F.F.F.F.F.F.F.I.Q.M.M.L.L.N.L.L.L.L.L.K.M.L.M.L.L.N.M.N.L.N.M.N.L.M.M.N.N.N.M.M.M.N.N.M.M.N.M.L.Q.H.H.H.H.H.F.F.F.F.H.H.H.H.F.F.S.S.O.J.J.Q.Q.Q.Q.Q.Q.Q.Q.Q.Q.Q.Q.Q.Q.Q.Q.Q.Q.Q.Q.Q.Q.Q.Q.Q.Q.Q.Q.Q.Q.Q.Q.Q.J.O.H.H.H.H.H.H.H.H.H.H.H.F.`.V.V.V.V.V.V.V.V.V.V.V.V.V.V.V.V.V.V.V.V.V.V.V.V.U.V.V.V.U.V.V.U.U.U.U.V.V.V.V.G.W.X.H.H.X.X.X.X.X.X.X.X.X.X.X.X.Y.Y.Y.Y.Y.Y.Y.Y.Y.Y.Y.Y.Y.Y.Y.Y.Y.Y.Y.Y.Y.Y.Y.Y.Y.Y.Y.Y.Y.Y.Y.Y.Y.X.Y.X.X.X.Y.X.X.X.X.X.X.X.X.X.X.X. +.+",
"F.G.++++@+#+$+%+&+*+=+-+-+;+;+;+>+-+;+-+-+>+;+,+;+;+'+;+'+'+'+,+;+>+,+>+,+;+>+;+'+,+,+,+;+,+,+)+!+'+*+~+{+]+#+^+^+^+^+]+^+/+%+(+_+:+<+[+}+|+1+2+3+2+1+3+4+1+3+4+4+1+5+1+6+6+6+7+4+5+4+4+6+4+5+5+6+7+6+7+4+6+6+5+8+9+0+a+b+c+d+e+c+e+c+f+f+d+g+h+i+i+j+j+i+j+i+j+j+j+j+h+j+i+h+h+j+j+h+h+h+h+j+k+h+h+k+h+h+j+k+k+h+k+h+j+h+j+l+m+n+e+e+m+n+n+m+o+o+n+o+o+o+o+n+p+q+r+p+r+p+p+p+p+q+q+p+q+p+q+s+q+q+q+q+q+q+q+q+q+.+q+q+q+q+q+.+q+q+.+t+.+.+.+.+.+.+.+.+.+.+.+.+.+u+v+w+",
"F.F.#+x+]+/+y+z+-+;+-+'+;+;+-+'+-+;+-+;+;+>+>+;+>+'+;+;+;+'+'+;+'+'+>+;+'+'+'+,+'+;+,+,+,+,+>+;+,+>+;+2+A+B+++#+^+^+^+^+C+D+E+|+F+3+2+1+1+1+1+2+1+4+1+4+1+6+4+5+6+4+4+4+6+4+6+4+1+7+5+4+4+4+7+5+6+7+6+7+6+5+7+7+6+1+9+G+b+b+c+f+c+e+f+e+f+d+H+I+i+i+i+i+i+i+j+h+j+j+j+i+h+j+h+j+j+j+h+h+j+h+h+j+j+h+k+h+k+k+h+h+k+k+J+k+K+j+L+M+n+o+m+m+n+n+n+n+n+o+N+n+o+N+n+O+p+r+q+q+p+p+q+p+p+q+q+q+p+q+q+q+q+q+q+q+q+q+q+t+q+.+q+q+q+q+q+q+.+t+q+q+t+q+.+.+.+.+.+.+.+.+.+.+.+v+w+",
"F.F.P+Q+R+*+S+;+'+;+;+;+;+;+;+;+;+>+)+>+)+;+;+'+;+>+'+'+>+'+,+'+,+>+,+'+>+'+;+;+'+,+,+'+,+,+,+)+>+,+'+T+0+U+++^+^+++#+^+C+V+W+2+F+2+3+4+1+1+1+4+1+4+4+1+6+1+4+6+4+6+6+7+4+4+4+6+4+4+4+4+6+6+7+7+6+7+7+6+6+6+6+7+6+6+6+X+Y+b+c+c+c+d+f+e+e+c+Z+`+j+i+i+j+i+i+j+i+i+j+i+i+j+j+h+j+j+j+h+j+j+k+k+h+j+k+h+h+h+k+k+k+j+ @j+h+J+k+.@+@n+e+m+m+e+n+e+n+n+o+n+o+o+m+m+@@p+s+p+q+p+p+p+s+q+q+p+q+q+q+q+s+q+q+q+q+q+q+q+q+q+q+q+.+q+.+q+.+t+.+q+.+.+.+.+.+.+.+t+.+.+.+.+u+u+v+w+",
"H.G.#@z+;+;+$@;+;+;+;+;+;+;+>+;+;+>+;+;+>+,+>+;+,+;+>+>+>+'+;+'+'+>+;+'+,+,+;+;+,+'+,+>+,+,+'+,+,+,+;+;+%@b+^+^+^+^+^+^+^+#+W+1+1+W+1+1+1+W+4+4+5+5+4+1+6+4+1+6+6+5+6+E+7+4+6+7+7+4+7+4+7+6+6+5+7+6+6+5+6+6+7+6+6+6+6+7+&@b+b+e+c+c+c+e+d+c+f+#+h+i+j+i+i+i+h+j+j+j+i+j+h+j+j+h+j+h+h+j+h+h+k+j+j+k+j+h+h+k+j+k+k+h+k+k+J+k+K+H+*@=@-@e+o+m+m+m+m+n+n+o+n+m+o+n+p+s+O+q+s+p+p+p+p+p+q+q+q+p+p+q+q+q+q+q+q+q+q+q+q+q+q+q+q+.+.+q+.+q+.+.+.+.+.+.+t+.+.+.+.+.+.+.+.+v+w+",
"Q.;@>@,@,@>@'@>@>@>@'@>@>@>@>@)@'@'@'@)@>@>@>@>@>@)@>@'@>@>@)@)@)@)@>@>@)@)@'@>@)@)@>@)@>@>@'@'@'@)@>@>@!@~@{@{@~@~@]@~@{@{@^@/@/@/@(@/@_@/@/@/@:@/@/@<@/@/@/@/@(@(@(@/@/@/@_@/@/@_@/@(@/@^@^@_@^@^@(@_@^@(@:@^@^@^@^@(@[@}@|@{@{@|@{@{@{@|@{@{@1@2@3@3@4@3@3@4@3@3@3@5@3@3@5@3@3@3@3@5@5@5@3@5@3@6@5@3@6@3@6@5@6@5@3@6@6@5@3@7@8@9@9@9@0@9@9@0@a@9@9@9@0@9@9@0@b@b@b@b@c@c@b@d@b@c@c@c@c@c@b@d@c@c@c@c@c@c@c@c@c@c@c@c@c@c@c@c@c@v+c@v+v+v+v+v+c@v+v+v+v+v+v+v+v+e@f@",
"g@-+h@i@j@j@k@i@k@i@l@i@i@i@k@i@i@i@j@j@i@j@j@k@i@i@i@m@m@i@j@i@m@i@j@m@m@m@i@m@m@j@m@k@m@k@m@n@m@m@m@j@o@p@q@q@q@r@q@q@q@q@s@t@u@v@w@w@u@w@w@x@x@w@y@x@x@x@x@z@w@w@x@y@x@w@w@w@w@z@x@x@y@x@z@z@z@z@w@x@z@z@z@z@z@z@z@y@A@B@C@D@D@D@D@E@D@q@E@D@F@G@H@I@J@J@I@I@J@I@I@I@I@I@I@I@I@I@K@I@I@I@I@I@I@K@I@K@K@K@K@I@K@K@K@K@K@K@I@K@L@M@N@N@O@P@N@O@O@N@N@Q@O@P@P@N@L@R@L@L@L@L@S@S@S@L@L@S@S@S@S@S@S@S@S@S@S@T@S@S@S@S@w+S@w+w+w+S@w+T@w+w+w+w+w+w+w+w+w+w+w+w+w+w+w+f@U@",
") ) ) ) ) { ! ! ! ) ! ) ) ! ! ) { ) { ! ~ ) { ) { ) { ~ ) { { ~ ~ { ~ ~ { ~ ~ ~ ~ ~ { ~ ~ ~ { ~ ! ~ V@W@{ X@Y@} _ + ( ( + < 6 l.Z@o.`@v.u.v.v.v.u.v.v.v.o.t.v.v.v.v.v.u.u.u. # # # # #u. #v. # #.# #u. # # #+# # #.#t. #u.t.x.9 X } X 0 } } } X 0 @#` j j j j h g j g j g h i j i j l j l j i k i j k j k k k i k k 5.##k k i j $#%#n p q p p q q o E.p p E.p @.&#v v v v v v y v y v x y x y y y y y y B y A y y y y A y y y y A A C A A A C A A %.A A A A A A A A A ",
") > ) { > > ! ) ) ) ) ! ) ~ ! ) ~ ! ! ) ~ ) { { ~ { { { ~ { ~ { { ) ~ ~ ~ ~ ! ~ ! { ! *#*#*#~ ~ ~ ~ ' ~ =#-#;#[ ( ( _ _ < < 1 >#,#o.o.o.o.v.v.v.o.v.o.o.o.u.v.v. #v.v.v. #v.v. #v. #v.v. # # # #u.u.t. # #u. #u.u. #+#.#u.w.'#| } [ } } X } } 0 n 2.` h j i g j j i h j i j l k j i k l j k j k j j j i k k i k i k k 5.k i k k )#+.n p q o p q o o p o o E.p D.!#$.x v x y x v x x y v y x x y y y y y y y C y y A A B A A y A A y y A A A A A A A A A D A %.A A A E ",
"> ) ) ) { { ) ! ) ! ' ) ! ' ) ~ ) ! { ! { ! ) ) ~ ~ { ~ ~ ~ { ! { { ~ ~ ~ { ~ ~ ! ~ ~ ~ { ! ~ ~ ~ ~ *#~ { ~#{#| 9.0.. / ( _ < ]#s.o.o.v.v.v.o.u.u.o.o.u.u.v.v.v.v.u. #u. #u.u.t.t.t.t. #u.t. #.#u.t. # # # # # # # # #u.^#u./#(#0 } } 0 [ X 0 [ a _#:#g i i i g g j i j i j i j i i j j i j i k j j k k i i k 5.k i 5.5.k k k k <#Z [#o o o o p p o o p E.p E.@.!#$.$.y x x v v v y y y v y y y y y y y y y y y C y A B B y A A A A A A y A A A C A A A A A A A A A E "};
