/* XPM */
static char *dbbrown[]={
"22 150 104 2",
"#w c #191600",
".V c #2c2a24",
".K c #34322c",
"#r c #3c2a04",
"#h c #3c2a0c",
".d c #3c3a34",
".c c #3c3a3c",
"#g c #443204",
"#q c #44360c",
"#b c #443a14",
".k c #444234",
".F c #444244",
".f c #44463c",
".4 c #4c3604",
"#c c #4c360c",
"#a c #4c3a04",
"#j c #4c3a0c",
"#i c #4c3e14",
".H c #4c4e44",
".u c #4c4e4c",
".2 c #543e04",
".1 c #543e0c",
"#x c #543e14",
"## c #544204",
"#A c #544214",
".R c #54461c",
"#L c #544a24",
".g c #545244",
".L c #54564c",
".p c #545654",
".U c #5c4604",
".X c #5c460c",
"#B c #5c461c",
"#y c #5c4a14",
".P c #5c4e1c",
"#K c #5c4e24",
".J c #5c5e4c",
".m c #5c5e54",
".x c #5c5e5c",
".T c #644e0c",
".Y c #644e14",
".Z c #64521c",
"#D c #64522c",
".w c #646264",
".h c #646654",
".S c #6c4e0c",
".5 c #6c561c",
"#C c #6c5624",
".Q c #6c5e2c",
"#J c #6c5e34",
".i c #6c6a5c",
".D c #6c6a6c",
".W c #74520c",
"#u c #745614",
"#d c #745e1c",
".0 c #745e24",
".O c #745e2c",
"#E c #745e34",
".M c #746234",
"#F c #74623c",
".# c #74725c",
"Qt c #747664",
".l c #74766c",
".b c #747674",
"#k c #7c5e24",
"#s c #7c6624",
"#. c #7c662c",
".6 c #7c6634",
"#I c #7c663c",
".N c #7c6a34",
".3 c #7c6a3c",
"#G c #7c6a44",
".j c #7c7a74",
".e c #7c7a7c",
".q c #7c7e6c",
"#e c #846e34",
"#p c #846e3c",
"#H c #846e44",
"#l c #84723c",
".9 c #847644",
".n c #848684",
".7 c #8c763c",
"#z c #8c7644",
".8 c #8c7a4c",
".o c #8c8e8c",
"#m c #947e4c",
"#t c #94824c",
"#o c #948254",
".a c #94928c",
".s c #949694",
"#f c #9c8654",
"#v c #9c865c",
"#n c #9c8a5c",
".G c #9c9a9c",
".B c #a4a6a4",
".A c #acaeac",
".z c #b4b2b4",
".v c #bcbebc",
".y c #c4c6c4",
".r c #cccacc",
".t c #d4d6d4",
".I c #dcdadc",
".E c #e4e2e4",
".C c #eceaec",
"Qt.#.a.b.c.c.c.c.d.c.d.c.c.c.d.e.b.f.g.h.iQt",
"QtQt.a.j.c.d.c.c.c.c.c.d.c.c.c.b.b.k.g.h.i.#",
"Qt.#.a.e.c.c.c.d.c.d.c.c.c.d.c.e.l.f.g.h.iQt",
"QtQt.a.j.c.d.c.c.c.c.c.d.c.c.c.b.b.k.g.m.i.#",
"Qt.#.a.b.c.c.c.d.c.d.c.c.c.d.c.e.l.c.g.h.iQt",
"QtQt.a.j.c.d.c.c.c.c.c.d.c.c.c.b.b.k.g.m.i.#",
"Qt.#.a.e.c.c.c.c.n.o.p.c.c.d.c.e.q.c.g.h.iQt",
"QtQt.a.j.c.d.c.o.r.s.t.p.u.c.c.b.b.k.g.h.i.#",
"Qt.#.a.b.c.c.c.v.b.c.r.s.w.c.c.j.b.c.g.h.iQt",
"QtQt.a.j.c.d.c.x.r.y.z.e.p.c.d.e.l.k.g.m.i.#",
"Qt.#.a.e.c.c.c.s.A.B.r.e.x.c.c.e.b.c.g.h.iQt",
"QtQt.a.j.c.d.c.C.w.u.s.B.D.d.c.b.b.k.g.h.i.#",
"Qt.#.a.b.c.c.c.r.w.d.v.A.n.c.c.e.q.c.g.h.iQt",
"QtQt.a.j.c.c.c.D.t.E.y.B.p.c.c.b.b.k.g.m.i.#",
"Qt.#.a.e.d.c.F.w.o.G.A.x.c.d.c.e.l.c.g.h.iQt",
"QtQt.a.j.c.c.c.c.c.c.c.c.c.c.c.b.b.k.g.h.i.#",
"Qt.#.a.b.c.c.c.d.c.c.d.c.d.c.d.e.j.c.g.h.iQt",
"QtQt.a.j.c.d.c.c.c.d.c.c.c.c.c.b.l.k.g.m.i.#",
"Qt.#.a.e.c.c.c.d.c.c.c.c.c.d.c.e.b.c.g.h.iQt",
"QtQt.a.j.c.d.c.c.c.c.c.c.c.c.c.b.b.k.g.h.i.#",
"Qt.#.a.b.c.c.c.o.o.o.o.w.F.d.c.e.q.c.g.h.iQt",
"QtQt.a.j.c.d.c.o.o.o.y.s.b.c.c.b.b.k.g.m.i.#",
"Qt.#.a.e.c.c.u.F.c.D.r.s.p.d.c.e.l.c.g.h.iQt",
"QtQt.a.j.c.d.c.d.c.z.B.s.c.c.c.b.b.k.g.h.i.#",
"Qt.#.a.b.c.c.c.c.x.y.o.u.c.d.c.e.q.c.g.h.iQt",
"QtQt.a.j.c.d.c.c.s.A.o.c.c.c.c.b.b.k.g.m.i.#",
"Qt.#.a.e.c.c.c.c.y.G.b.c.c.d.c.e.l.c.g.h.iQt",
"QtQt.a.j.c.d.c.d.E.G.u.d.c.c.c.b.b.k.g.h.i.#",
"Qt.#.a.b.c.c.c.p.o.e.c.c.c.d.c.e.l.f.H.h.iQt",
"QtQt.a.j.c.d.c.c.d.c.c.d.c.c.c.b.b.k.g.h.i.#",
"Qt.#.a.e.c.c.c.c.c.d.c.c.c.d.c.e.l.f.g.h.iQt",
"QtQt.a.j.c.d.c.d.c.c.c.d.c.c.c.b.b.k.g.m.i.#",
"Qt.#.a.b.c.c.c.c.c.d.c.c.c.d.c.e.l.c.g.h.iQt",
"QtQt.a.j.c.d.c.c.c.c.c.d.c.c.c.b.b.k.g.m.i.#",
"Qt.#.a.e.c.c.d.c.n.o.D.c.c.d.c.e.q.c.g.h.iQt",
"QtQt.a.j.c.c.c.G.v.o.t.D.p.c.c.b.b.k.g.h.i.#",
"Qt.#.a.b.c.d.c.E.F.c.o.s.w.c.c.j.b.c.g.h.iQt",
"QtQt.a.j.c.c.D.y.y.E.G.w.x.c.d.e.l.k.g.m.i.#",
"Qt.#.a.e.c.d.D.t.A.n.y.s.x.c.c.e.b.c.g.h.iQt",
"QtQt.a.j.c.c.x.v.b.c.n.A.b.d.c.b.l.k.g.h.i.#",
"Qt.#.a.b.c.c.c.t.x.F.z.A.o.c.c.e.j.c.g.h.iQt",
"QtQt.a.j.c.d.F.b.t.E.y.G.p.d.c.b.b.k.g.m.i.#",
"Qt.#.a.e.c.c.F.w.n.B.A.x.c.c.c.e.l.c.g.h.iQt",
"QtQt.a.j.c.c.c.c.c.d.c.c.c.d.c.b.b.k.g.h.i.#",
"Qt.#.a.b.c.d.c.d.c.c.c.d.c.c.c.e.q.c.g.h.iQt",
"QtQt.a.b.c.c.c.c.d.c.c.c.d.c.c.b.b.k.g.m.i.#",
"Qt.#.a.e.d.c.d.c.c.c.d.c.c.c.d.e.b.c.g.h.iQt",
"QtQt.a.j.c.c.c.c.c.c.c.c.c.c.c.b.l.k.g.h.i.#",
"Qt.#.a.b.c.c.c.p.o.o.o.p.F.d.c.e.b.f.H.h.iQt",
"QtQt.a.b.c.c.d.o.v.s.A.o.p.c.c.b.b.k.g.h.i.#",
"Qt.#.a.e.d.c.c.z.e.u.x.w.F.d.c.e.l.f.g.h.iQt",
"QtQt.a.j.c.c.d.r.r.E.s.c.F.c.c.b.b.k.g.m.i.#",
"Qt.#.a.e.d.c.c.s.G.n.v.o.p.d.c.e.l.c.g.h.iQt",
"QtQt.a.b.c.c.d.c.c.c.o.A.b.c.c.b.b.k.g.h.i.#",
"Qt.#.a.e.d.c.c.I.x.F.z.B.e.c.c.e.l.c.g.h.iQt",
"QtQt.a.j.c.c.d.D.r.E.y.G.u.c.d.e.b.k.g.m.i.#",
"Qt.#.a.e.d.c.u.w.o.B.A.x.c.c.c.b.b.k.g.h.iQt",
"QtQt.a.b.c.c.c.c.d.c.d.c.d.c.c.e.l.c.g.m.i.#",
"Qt.#.a.e.c.d.c.d.c.c.c.c.c.c.c.b.b.k.g.h.iQt",
"QtQt.a.j.c.c.c.c.c.d.c.c.d.c.d.e.l.c.g.h.i.#",
"Qt.#.a.b.c.c.c.d.c.c.d.c.c.c.c.e.b.k.g.J.iQt",
"QtQt.a.b.c.d.c.c.c.c.c.c.d.c.d.e.l.c.g.h.i.#",
"Qt.#.a.e.c.c.d.c.c.F.n.c.c.c.c.e.l.f.H.h.iQt",
"QtQt.a.j.c.c.c.c.d.z.z.p.c.c.d.e.b.k.g.h.i.#",
"Qt.#.a.b.c.c.d.c.n.E.v.b.c.c.c.e.l.f.g.h.iQt",
"QtQt.a.j.c.c.c.p.E.o.y.b.c.d.c.b.b.d.g.m.i.#",
"Qt.#.a.b.c.c.c.v.o.w.v.w.p.c.c.e.l.f.g.h.iQt",
"QtQt.a.b.c.d.w.E.v.y.I.G.D.c.d.e.b.k.g.m.i.#",
"Qt.#.a.e.c.c.x.s.G.A.t.B.w.c.c.e.l.c.g.h.iQt",
"QtQt.a.j.c.c.p.b.b.G.t.B.F.d.c.b.b.k.g.h.i.#",
"Qt.#.a.b.c.d.c.d.u.b.s.D.c.c.c.e.l.f.g.J.iQt",
"QtQt.a.b.c.c.c.c.c.c.c.d.c.d.c.e.b.k.u.h.i.#",
"Qt.#.a.e.c.d.c.c.d.c.d.c.c.c.c.j.b.d.g.J.iQt",
"QtQt.a.j.c.c.c.d.c.c.c.c.d.c.d.e.l.f.g.h.i.#",
"Qt.#.a.b.c.d.c.c.c.c.d.c.c.c.c.e.b.k.g.h.iQt",
"QtQt.a.b.c.c.c.d.c.c.c.d.c.d.c.b.b.k.u.h.i.#",
"Qt.#.a.e.c.d.c.c.n.o.p.c.c.c.c.e.b.d.g.J.iQt",
"QtQt.a.j.c.c.c.s.v.s.t.p.u.c.d.e.l.f.g.h.i.#",
"Qt.#.a.b.c.c.d.B.p.c.y.s.w.c.c.e.l.f.g.h.iQt",
"QtQt.a.b.c.c.F.u.p.B.v.b.p.c.c.e.b.d.g.m.i.#",
"Qt.#.a.e.d.c.d.c.u.o.r.n.x.d.c.b.b.k.g.h.iQt",
"QtQt.a.j.c.c.c.p.c.c.o.B.D.c.c.e.l.f.g.m.i.#",
"Qt.#.a.e.c.d.c.t.D.F.v.A.n.c.c.b.b.d.g.h.iQt",
"QtQt.a.j.c.c.c.D.r.E.y.B.p.c.c.e.l.f.g.h.i.#",
"Qt.#.a.b.c.c.u.w.o.B.A.x.c.c.d.e.l.f.g.J.iQt",
"QtQt.a.j.c.d.c.c.c.c.d.c.d.c.c.e.l.c.g.m.i.#",
"Qt.#.a.e.c.c.c.c.d.c.c.c.c.c.c.b.b.k.g.h.iQt",
"QtQt.a.j.c.d.c.d.c.c.d.c.d.c.d.e.l.c.g.h.i.#",
"Qt.#.a.b.c.c.c.c.c.c.c.c.c.c.c.e.b.k.g.h.iQt",
"QtQt.a.j.c.d.c.c.c.c.c.c.d.c.d.e.l.c.g.h.i.#",
"Qt.#.a.e.c.c.c.F.o.o.u.c.c.c.c.e.l.f.g.J.iQt",
"QtQt.a.j.c.d.c.t.G.s.I.w.F.c.d.e.b.k.g.m.i.#",
"Qt.#.a.b.c.c.p.A.e.F.B.B.D.c.c.e.l.f.H.h.iQt",
"QtQt.a.j.c.c.u.F.c.F.y.B.n.d.c.b.b.k.g.h.i.#",
"Qt.#.a.e.c.d.c.c.F.y.y.G.u.c.c.e.b.f.g.h.iQt",
"QtQt.a.j.c.c.c.F.r.B.n.w.c.d.c.b.l.k.g.m.i.#",
"Qt.#.a.b.c.d.c.v.n.d.c.c.c.c.c.e.b.c.g.h.iQt",
"QtQt.a.j.c.c.x.E.E.E.E.B.x.c.c.b.b.k.g.m.i.#",
"Qt.#.a.e.d.F.p.n.G.B.A.B.x.d.c.e.l.f.g.h.iQt",
"QtQt.a.b.c.c.d.c.c.c.c.c.d.c.c.b.b.k.g.m.i.#",
"Qt.#.a.e.d.c.c.c.d.c.d.c.c.c.c.j.b.c.g.h.iQt",
"QtQt.a.j.c.d.c.c.c.c.c.c.d.c.d.e.l.k.g.m.i.#",
"Qt.#.a.e.c.c.c.d.c.c.d.c.c.c.c.e.b.c.g.h.iQt",
"QtQt.a.j.c.c.c.c.c.d.c.c.d.c.c.b.b.k.g.h.i.#",
"Qt.#.a.b.c.d.c.d.c.n.c.c.c.d.c.e.q.c.g.h.iQt",
"QtQt.a.j.c.c.c.c.n.E.p.c.c.c.c.b.b.k.g.m.i.#",
"Qt.#.a.e.d.c.c.e.B.E.b.d.c.d.c.e.l.c.g.h.iQt",
"QtQt.a.b.c.c.c.F.c.I.n.c.c.c.c.b.b.k.g.h.i.#",
"Qt.#.a.e.d.c.c.c.d.E.e.c.c.d.c.e.l.f.H.h.iQt",
"QtQt.a.j.c.c.c.c.c.E.b.c.d.c.c.b.b.k.g.h.i.#",
"Qt.#.a.e.d.c.d.c.d.E.n.c.c.c.c.j.b.f.g.h.iQt",
"QtQt.a.b.c.c.c.c.c.E.G.c.c.d.c.e.l.d.g.m.i.#",
"Qt.#.a.e.c.d.c.d.p.o.e.d.c.c.c.j.b.f.g.h.iQt",
"QtQt.a.j.c.c.c.c.c.c.c.c.c.c.c.e.l.k.g.h.i.#",
"Qt.#.a.j.c.c.d.c.c.K.c.c.K.c.c.j.b.f.g.h.iQt",
"QtQt.a.j.c.c.c.c.c.c.c.c.c.c.d.e.l.d.g.h.i.#",
"Qt.#.a.e.c.d.c.d.c.d.c.d.c.d.c.e.b.f.g.h.iQt",
"QtQt.a.j.c.c.c.c.c.c.c.c.c.c.c.j.b.k.g.h.i.#",
".q.q.a.j.c.c.c.c.c.c.c.c.c.c.c.j.j.f.L.J.iQt",
".M.N.O.P.P.P.P.P.P.P.P.P.P.P.P.P.O.Q.R.L.g.m",
".S.T.T.S.U.S.T.T.T.S.S.S.S.S.S.U.T.S.T.H.H.J",
".T.S.T.T.S.T.S.U.U.S.S.U.S.U.S.S.S.U.S.V.d.g",
".T.S.U.S.T.T.S.S.S.T.T.S.T.S.S.U.S.S.U.V.d.g",
".T.S.S.S.T.S.U.S.S.S.S.U.S.S.U.S.T.T.U.V.K.H",
".W.U.S.U.T.S.S.U.U.S.S.S.T.T.S.S.T.T.T.V.V.H",
".S.T.S.S.S.U.S.S.S.S.S.U.S.S.U.S.T.S.U.V.V.H",
".T.W.U.S.U.S.S.U.U.S.S.T.S.T.T.S.S.U.T.V.V.H",
".S.U.S.T.S.T.T.S.S.T.T.T.T.S.S.U.S.S.U.V.V.H",
".T.S.S.T.U.X.U.U.U.U.U.U.U.U.U.S.U.T.X.V.V.F",
".T.U.X.U.U.X.Y.Z.Z.0.0.Z.Y.X.U.X.U.X.T.V.V.H",
".X.1.2.U.X.Y.0.M.M.3.3.M.0.Y.X.2.2.2.X.V.V.H",
".1.4.2.X.U.5.6.7.7.8.8.9#..5.T##.1#a.4.V.V.H",
"#b#c#a.X.U#d#e.8.8#f#f.8#e#d.U.X.2#g#h.V.V.H",
"#i#j#j.U.T#k#l#m#m#n#n#o#p#k.S.U#j#q#r.V.V.H",
"#j#j.X.T.W#s.7#t#t#n#n#t.7#s.W.T.X#a#i.V.V.H",
"#c.2.X.T#u#..9#o#o#v#v#o#l#.#u.T.X.1#j#w.V.H",
"#i#x#y.Z.0.N.9.8.8#o#o.8#z.N.0.Z.Y#A#i.V.V.H",
"#B.P#C.O#.#p.9.8.8.8.8.8.9#p.6.O#C.P#B.V.K.g",
"#D.Q#E#F#G#H#G#H#H.9.9#H#G#H#G.3.M.Q#D.V.K.g",
"#E#F#F#I.6#F#F#F#F#F#F#F#I#F#F#F#F#F#J.V.K.L",
"#E#J#E#J#E#E#E#E#E#J#J#E#J.O#E#E#J#E#J.V.K.L",
"#D#D#D#D#D#D#D#D#D#C#C#D#D#D#D#D#C#D#D.V.K.L",
"#K#K.P#K.P#K.P#K#K#K#K.P#K#K.P#K#K.P#K.V.K.J",
"#L.R#B.R.R.R.R.R.R.R.R.R.R.R.R.R.R.R.R.V.d.J",
"#A#x#i#i#i.1#i.1.1#i#i.1#i.1#i.1#i#i#i.K.d.J",
".m.k.K.V.V.V.V.V.V.V.V.V.V.V.V.V.V.V.V.V.f.m",
".i.m.k.K.V.V.V.V.V.V.V.V.V.V.V.V.V.V.V.V.f.m",
".#.h.g.f.d.d.d.d.d.d.d.d.d.d.d.d.d.d.d.f.g.h",
"Qt.i.h.J.L.J.L.J.J.L.L.J.L.J.L.J.L.J.J.J.h.i",
"QtQt.#.i.i.i.i.i.i.i.i.i.i.i.i.i.i.i.i.i.#Qt"};
