/* XPM */
static char *minioffon[]={
"11 24 48 1",
"K c #343234",
"H c #3c3e3c",
"N c #443e34",
"J c #444244",
"M c #4c463c",
"u c #4c4e4c",
"O c #544e44",
"L c #544e4c",
"q c #545654",
"D c #5c524c",
"P c #5c5654",
"S c #645e54",
"p c #6c625c",
"Q c #6c6664",
"n c #746e64",
"o c #746e6c",
"m c #74726c",
"f c #7c766c",
"d c #7c7674",
"G c #7c7a74",
"F c #7c7e7c",
"e c #847e74",
"h c #847e7c",
"s c #84827c",
"g c #848684",
"j c #8c867c",
"i c #8c8684",
"k c #8c8a84",
"I c #8c8a8c",
"t c #948e84",
"v c #948e8c",
"y c #94928c",
"x c #9c968c",
"w c #9c9694",
"A c #a49e94",
"T c #a49e9c",
"z c #a4a29c",
"B c #aca69c",
"C c #aca6a4",
"E c #b4aeac",
"R c #b4b6b4",
"c c #bcbebc",
"r c #c4c6c4",
"l c #cccecc",
"b c #d4d6d4",
"a c #dcdadc",
". c #e4e2e4",
"# c #eceaec",
".#a..a.a.bc",
"adefeghijfk",
"lmnoffffepq",
"rfoefdehipq",
"leefehijjfq",
"lheshtjitfu",
"lijkjtvwxeq",
"likjtvxxwsq",
"lytvwxwwzjq",
"lwxAxzzBCtD",
"EFnfnffGhFH",
"IJKKKKKKKKH",
"JKKKKKKKKLI",
"MNMMOOOuPQR",
"qDnoffGfejl",
"qPfGfeehijr",
"qSfGhsjjkvl",
"qpeshijtvwl",
"uQjkjktvxwl",
"qnjjtvxwxCl",
"umtvwxAxABl",
"qojtyxAxABr",
"FyATBBBBERa",
"cb.......##"};
