/* XPM */
static char *miniledred[]={
"14 18 64 1",
"x c #0c0204",
"o c #140604",
"y c #1c0604",
"n c #1c0e0c",
"q c #1c1614",
"p c #240e0c",
"u c #241214",
"k c #241e1c",
"t c #2c1614",
"A c #2c1e1c",
"c c #2c2624",
"# c #2c2a2c",
"r c #341e1c",
"a c #342624",
"b c #342a2c",
". c #343234",
"z c #3c2224",
"f c #3c2e2c",
"m c #3c3a3c",
"s c #442624",
"w c #444644",
"g c #4c3234",
"d c #4c524c",
"j c #543a3c",
"h c #643234",
"i c #644644",
"e c #6c6e6c",
"B c #747a74",
"l c #7c7e7c",
"v c #8c8a8c",
"C c #949294",
"3 c #ac6264",
"8 c #ac6e6c",
"7 c #ac7674",
"5 c #ac7a7c",
"6 c #ac8284",
"Z c #b46a6c",
"W c #bc6a6c",
"4 c #bc7a7c",
"2 c #c45a5c",
"Y c #d46264",
"0 c #d46e6c",
"1 c #d47674",
"L c #d47a7c",
"D c #dc8284",
"N c #e46264",
"V c #e46e6c",
"F c #ec7e7c",
"K c #ec8e8c",
"I c #eca6a4",
"O c #f46664",
"M c #f46a6c",
"X c #f47674",
"E c #f47e7c",
"G c #f48e8c",
"H c #f49e9c",
"J c #f4b2b4",
"P c #fc7274",
"Q c #fc7a7c",
"R c #fc8284",
"U c #fc8e8c",
"S c #fc9694",
"T c #fc9a9c",
"9 c #fed0f7",
".#a#b#bcc#c.de",
".bccafghiijakl",
"mnoopqrrsrtnuv",
"wnxyptrzrtnonv",
"dxoyntrAunoxov",
"BkkccAccAkqqav",
"lvCvCCCCvCCvvl",
"f##b#b#b##b.de",
".DEFFGHIJJIKLB",
"mMNOPQRSTUFVWl",
"mMNMXFUTKFXYZl",
"dNY01DFDLVY23v",
"B454566657784C",
"lvCvCCvCCvCCvl",
"99999999999999",
"99999999999999",
"99999999999999",
"99999999999999"};
