/* XPM */
static char *onoffgreen[]={
"25 22 16 1",
"n c #1a5829",
"k c #28733a",
"j c #318947",
"e c #363d3e",
"i c #399e55",
". c #515959",
"l c #53b76f",
"g c #5ace85",
"f c #64a974",
"m c #64e697",
"# c #6d7070",
"a c #828787",
"h c #90e9b4",
"b c #99a09f",
"c c #b3b8b9",
"d c #d0d2d1",
".......................#a",
".bbbbbbbbccddddddddccba.a",
"#a#...##abbccdddccbba#.#b",
".a....##abbccddccbba##.#b",
"#a....#abbccddccbba##..#b",
"##...#aabcccdccbbaa#...#b",
"#a..#aabbccdcccbba##....b",
"##..##abbcccccbaa#.....#b",
"#....#aaabbbbaa#.....ee#c",
"a#aaabbbbbbbbbaaaaaaaaabb",
"abccccccccccccccccccbcbba",
".......................#a",
".ffffffffgghhhhhhhhhbff#a",
"#ijkjjjjillgmmhmmgllijk#b",
".ikkkkjiilggmmmmgglijjk#b",
"#ikkkjjillgmmmmggliijkk#b",
"#ikkkjillgmmmmmgllijkkk#b",
"#ikkjiilggmmmmgllijjkkk#b",
"#jkkjillggmmggllijjkkkk#b",
"#kkkkjillfglliijkkknnnn.c",
"aaaabbbbbbbbbbbaaaaaaaabb",
"abccccccccccccccccccbcbba"};
