/* XPM */
static char *vonoff[]={
"15 56 58 1",
"z c #0c0604",
"d c #0c0e0c",
"e c #140a0c",
"q c #141214",
"v c #1c0604",
"D c #1c0e0c",
"k c #1c1614",
"p c #1c1a1c",
"L c #241a1c",
"h c #242624",
"y c #2c1214",
"2 c #2c1e1c",
"O c #2c2624",
"n c #2c2e2c",
"K c #342624",
"i c #342a2c",
"j c #343634",
"A c #3c1e1c",
"3 c #3c2e2c",
"f c #3c3a3c",
"C c #442224",
"S c #443634",
"m c #444244",
"u c #4c2e2c",
"F c #543234",
"U c #544644",
"l c #545654",
"B c #5c3e3c",
"G c #644244",
"X c #646264",
"E c #6c4e4c",
"g c #747674",
"I c #7c5654",
"t c #7c5e5c",
"s c #7c6264",
"1 c #7c7e7c",
"W c #848284",
"H c #8c6e6c",
"T c #8c7274",
"Y c #8c8a8c",
"Z c #949694",
"J c #9c7e7c",
"r c #9c8a8c",
"N c #a47e7c",
"P c #a48284",
"M c #ac8e8c",
"x c #ac9e9c",
"V c #acaeac",
"R c #b49294",
"0 c #b4b6b4",
"Q c #bc9e9c",
"w c #bcb6b4",
"c c #bcbebc",
"o c #c4c2c4",
"b c #cccecc",
"a c #dcdadc",
". c #e4e6e4",
"# c #eceeec",
".#..........abc",
".dddddeddddddfg",
"bdddddddddddhij",
"cekjjjjjjjjlmnj",
"odpnjjnjjjjlmjj",
"cdpjjjjjjnjlmnj",
"odkjjjjjjjjlmjj",
"cdpjnjjnjjjlmnj",
"odqjjjjjjjjlmjj",
"cdpjjjjjjjilmnj",
"odqjjijjijjlmjj",
"cdpjjjjjjjjlmnj",
"odkjjjjjijjlmjj",
"cepjnjjjjjjlmjj",
"odkjjjjjjjjlmij",
"cdprrststssuvjj",
"oepuwxxxxxxyzjj",
"cdkABAACACADzjj",
"cdpuEFFFFFFyejj",
"oeqBtGGGGGGkkij",
"cdpEHtItIItAkjj",
"cdptJHHHHHHKLjj",
"oepHMNNNNNNiOnj",
"cdkPQMRMMRMSOjj",
"odpTUiKiiOiOijj",
"VdnininKniiiimj",
"WhXYYYYYYYYZ0Wj",
"1jjjjjjjjjjjjjZ",
".#..........abc",
".ddddddddedddfg",
"bdedeedeedeqhij",
"cdprrssstssuvjj",
"odquwxxxxxxyzjj",
"cdpABCACACADzjj",
"odpuEuFFFFFyeij",
"ceqBtGGGGGGkkjj",
"odpEHIIIIIt2pnj",
"cdptJHHHHHHKLjj",
"cdpHRNNNNNN32jj",
"oepJQRMRMRMSOjj",
"cdkTUOiiKiOiKjj",
"odpniiiiiiiiinj",
"cdqjjjnjjjjlmjj",
"odpjjjjjjjnlmnj",
"cdknjjjjnjjlmjj",
"odpjjnjjjjjlmnj",
"cdkjjjjjjjjlmjj",
"odpjnjjjjnjlmnj",
"cdqjjjjjjjjlmjj",
"odpjjjjnjjjlmnj",
"cdkjnjjjjjjlmjj",
"oepjjjjjjjjlmnj",
"cdkjjnjnjnjlmjj",
"VqnVVVVVVVVoxmj",
"1hXYYYYYYYYZ0Wj",
"1jjjjjjjjjjjjjZ"};
