/* XPM */
static char *yellow[]={
"5 84 2 1",
"# c #ffecc8",
". c #ffffff",
".###.",
"#..#.",
"#..#.",
".....",
"#..#.",
"#..#.",
"###..",
"...#.",
"...#.",
"...#.",
".....",
"...#.",
"...#.",
"...#.",
".###.",
"...#.",
"...#.",
".##..",
"#....",
"#....",
"###..",
".###.",
"...#.",
"...#.",
".##..",
"...#.",
"...#.",
"###..",
"#..#.",
"#..#.",
"#..#.",
".##..",
"...#.",
"...#.",
"...#.",
".###.",
"#....",
"#....",
".##..",
"...#.",
"...#.",
"###..",
".###.",
"#....",
"#....",
".##..",
"#..#.",
"#..#.",
"###..",
".###.",
"...#.",
"...#.",
".....",
"...#.",
"...#.",
"...#.",
".##..",
"#..#.",
"#..#.",
".##..",
"#..#.",
"#..#.",
".##..",
".###.",
"#..#.",
"#..#.",
".##..",
"...#.",
"...#.",
"###..",
".....",
".....",
".....",
".....",
".....",
"....#",
"....#",
".#...",
"#.#.#",
".#.#.",
"..#..",
".#.#.",
"#.#.#",
"...#."};
