/* XPM */
static char *slider[]={
"14 14 44 1",
"P c #9c9c9d",
"s c #a7a7a7",
"p c #a9a9a9",
"O c #ababac",
"c c #acacac",
"I c #adaeaf",
"E c #b1b1b1",
"B c #b2b2b2",
"u c #b5b5b5",
"n c #bababa",
"b c #bcbcbc",
"J c #bcbdbe",
"e c #bdbdbd",
"i c #bebebe",
"N c #bfbfc0",
"y c #c3c3c3",
"x c #c7c8c8",
"H c #c9cacb",
"l c #cccccc",
"f c #cdcdcd",
"k c #d1d1d1",
"a c #d2d2d2",
"F c #d3d3d4",
"K c #d3d4d5",
"C c #d6d6d6",
"M c #d8d8d9",
"d c #dbdbdb",
"v c #dddddd",
"A c #dfdfdf",
"j c #e3e3e3",
"L c #e4e5e6",
"g c #e6e6e6",
"# c #ededed",
"G c #ededee",
"D c #f0f0f0",
"t c #f1f1f1",
"z c #f2f3f3",
"q c #f3f3f3",
"w c #f5f5f5",
"h c #f8f8f8",
"r c #fafafa",
"o c #fcfcfc",
"m c #fefefe",
". c #ffffff",
"...#abccba#...",
"..defghhgfed..",
".dij......jid.",
"#ej........je#",
"klmmmmmmmmmmlk",
"njoooooooooojn",
"pqrrrrrrrrrrqp",
"sthhhhhhhhhhts",
"uvwwwwwwwwwwvu",
"xyzzzzzzzzzzyx",
"ABCDDDDDDDDCBA",
".lEFGGGGGGFEl.",
"..HIJKLLKJIH..",
"...MNOPPONM..."};
