/* XPM */
static char * skidder00138[] = {
"74 36 31 1",
" 	c #3B4972",
".	c #566285",
"+	c #7A849F",
"@	c #4D597F",
"#	c #838CA6",
"$	c #9EA5B9",
"%	c #687393",
"&	c #959DB3",
"*	c #5F6B8C",
"=	c #445279",
"-	c #A7AEC0",
";	c #8C95AD",
">	c #717B99",
",	c #C2C7D3",
"'	c #B1B6C7",
")	c #B9BECD",
"!	c #596462",
"~	c #80874C",
"{	c #4F5B67",
"]	c #8A9047",
"^	c #A8AB36",
"/	c #6D7657",
"(	c #9DA23C",
"_	c #626C5C",
":	c #45526D",
"<	c #B1B431",
"[	c #949941",
"}	c #767E52",
"|	c #CFCE21",
"1	c #BBBC2C",
"2	c #C5C626",
"                                                                          ",
"                                                                          ",
"              .+@                                                         ",
"           .#$#%             &++*                            =*           ",
"  =*    =+-#.       .   +$   $  ;+     =;%  @+           =++@=;+          ",
"  >,++#=+,        =;-+  +#  *&  &+  .@ =$#= #=          =-.'$ %# ;;       ",
"  =$  >&@,=       ;+ ='+$'$@*+=+;  +'#+ .-+@+           ;; =@  +#-=       ",
"   -.  $ )*       ;     +%  +'$'  @+=+%% .--=           ,+     *-.        ",
"   +*  - $%.      #     +*  ++ '@ +@ .>+  %#          .+,+*    @'@        ",
"   ++ .+ #$%  =   $     #*  ++ ++ +=  $>  ;=          >;,;+    +>#        ",
"   ># #= %$ *#).  $@    +*  %+ @&@.+ %;  *+            +,=    @> &*       ",
"   ++%.  .)'$++= =;*    +.  %+  &+ %#+  =-=            +,     ;  +;       ",
"   >$%    +@     #;     '   ++  *=      ++             &-    *>  ==       ",
"    @           '+=     ;   &*         =)=             $;    $            ",
"                                        @              ,%                 ",
"                                                   .,%>$                  ",
"                                                   =;&+                   ",
"                                                                          ",
"                                                                          ",
"                                                                          ",
"              !~{                                                         ",
"           !]^]/             (~~_                            :_           ",
"  :_    :~<]!       !   ~^   ^  [~     :[/  {~           :~~{:[~          ",
"  }|~~]:~|        :[<~  ~]  _(  (~  !{ :^]: ]:          :<!1^ /] [[       ",
"  :^  }({|:       [~ :1~^1^{_~:~[  ~1]~ !<~{~           [[ :{  ~]<:       ",
"   <!  ^ 2_       [     ~/  ~1^1  {~:~// !<<:           |~     _<!        ",
"   ~_  < ^/!      ]     ~_  ~~ 1{ ~{ !}~  /]          !~|~_    {1{        ",
"   ~~ !~ ]^/  :   ^     ]_  ~~ ~~ ~:  ^}  [:          }[|[~    ~}]        ",
"   }] ]: /^ _]2!  ^{    ~_  /~ {({!~ /[  _~            ~|:    {} (_       ",
"   ~~/!  !21^~~: :[_    ~!  /~  (~ /]~  :<:            ~|     [  ~[       ",
"   }^/    ~{     ][     1   ~~  _:      ~~             (<    _}  ::       ",
"    {           1~:     [   (_         :2:             ^[    ^            ",
"                                        {              |/                 ",
"                                                   !|/}^                  ",
"                                                   :[(~                   ",
"                                                                          "};
