/* XPM */
static char * skidder00129[] = {
"246 18 3 1",
" 	c #3B4972",
".	c #2D2A1E",
"+	c #767D96",
"                                                                                                                                                                                                                                                      ",
"                                                                                                                                                                                                                                                      ",
"                                                                                                                                                                                                                                                      ",
"                                                                                                                                                                                                                                                      ",
"                                                                                                                                                                                                                                                      ",
"                                                                                                                                                                                                                                                      ",
"                                                                                                                                                                                                                                                      ",
"                                                                                                                                                                                                                                                      ",
"     ..........................................................................................................................................................................................................................................       ",
"     .++++++++++++++++++++++++++++++++++++++++++++++++++++++++++++++++++++++++++++++++++++++++++++++++++++++++++++++++++++++++++++++++++++++++++++++++++++++++++++++++++++++++++++++++++++++++++++++++++++++++++++++++++++++++++++++++++++++++.       ",
"                                                                                                                                                                                                                                                      ",
"                                                                                                                                                                                                                                                      ",
"                                                                                                                                                                                                                                                      ",
"                                                                                                                                                                                                                                                      ",
"                                                                                                                                                                                                                                                      ",
"                                                                                                                                                                                                                                                      ",
"                                                                                                                                                                                                                                                      ",
"                                                                                                                                                                                                                                                      "};
