/* XPM */
static char * skidder00140[] = {
"71 45 40 1",
" 	c #1E0E0F",
".	c #86686A",
"+	c #604244",
"@	c #602F31",
"#	c #3B1D1E",
"$	c #673A3C",
"%	c #6B4041",
"&	c #6E4547",
"*	c #806263",
"=	c #846768",
"-	c #795658",
";	c #876D6E",
">	c #755052",
",	c #8F7879",
"'	c #643537",
")	c #968384",
"!	c #724B4D",
"~	c #927D7E",
"{	c #8B7273",
"]	c #7D5C5D",
"^	c #271314",
"/	c #4D2628",
"(	c #7E5759",
"_	c #7E3E41",
":	c #B0898B",
"<	c #8C544D",
"[	c #9B6B59",
"}	c #936053",
"|	c #B08C6B",
"1	c #854947",
"2	c #BEA376",
"3	c #E9E69A",
"4	c #DBD08E",
"5	c #CCB982",
"6	c #D4C488",
"7	c #E2DB94",
"8	c #A2765F",
"9	c #A98165",
"0	c #C5AE7C",
"a	c #B79870",
"                                                                       ",
" ....................................................................+ ",
" .@@@@@@@@@@@@@@@@@@@@@@@@@@@@@@@@@@@@@@@@@@@@@@@@@@@@@@@@@@@@@@@@@@@# ",
" .@@@@@@@@@@@@@@@@@@@@@@@@@@@$$@@%%@@@@&*@@@@@@@@@@@@@@@@@@@@@@@@@@@@# ",
" .@@@@@@@@@@@@@@@@@@@@@@@@@@@=-@@;;@@@@>,@@@@@@@@@@@@@@@@@@@@@@@@@@@@# ",
" .@@@@@@@@@@@@@@-&>-'@@$--$@>);-@;;&-%@&-@&-$-!@@$-->>@@@@@@@@@@@@@@@# ",
" .@@@@@@@@@@@@@@)~;)*@&)**)&%)*&@;~{~~@-)@-){,)$$~]!~;@@@@@@@@@@@@@@@# ",
" .@@@@@@@@@@@@@@)-@;;@={@@{=@)-@@;;@-)@-)@-)@&)&-)@@;;@@@@@@@@@@@@@@@# ",
" .@@@@@@@@@@@@@@)-@;;@;;@@;;@)-@@;;@-)@-)@-)@&)&-)@@;;@@@@@@@@@@@@@@@# ",
" .@@@@@@@@@@@@@@)-@;;@-~$$~]@)]@@;;@-)@-)@-)@&)&>)&'~;@@@@@@@@@@@@@@@# ",
" .@@@@@@@@@@@@@@)-@;;@'*))*'@-)~@;;@-)@-)@-)@&)&';);{;@@@@@@@@@@@@@@@# ",
" .@@@@@@@@@@@@@@@@@@@@@@@@@@@@@@@@@@@@@@@@@@@@@@@-&>~-@@@@@@@@@@@@@@@# ",
" .@@@@@@@@@@@@@@@@@@@@@@@@@@@@@@@@@@@@@@@@@@@@@@@-;;>@@@@@@@@@@@@@@@@# ",
" +#################################################################### ",
"                                                                       ",
"^^^^^^^^^^^^^^^^^^^^^^^^^^^^^^^^^^^^^^^^^^^^^^^^^^^^^^^^^^^^^^^^^^^^^^^",
"^////////////////////////////////////////////////////////////////////(^",
"^/___________________________________________________________________:^",
"^/___<[_____<<_[}_[|||<__<[1___1}_______[2___________________________:^",
"^/___|3[____4|_35_|36738_|3[___|5_______94___________________________:^",
"^/___|35___93|_35_|3[<36_|3[__[44|<[|}|<[|__[|8|[_1||8|__<||<_<|}|[__:^",
"^/___|33[_173|_35_|3[_53_|3[__<66[1|3570|3_839|3|_65[63_[3223[[3647__:^",
"^/___|545_|23|_35_|3[_53_|3[___55__|3_}}|3_55__3|[3[_|3_04[[40[3[<[__:^",
"^/___|59394<3|_35_|3[_67_|3[___55__|3___|3_55__3|[3[_|3_57555a[3[____:^",
"^/___|5_43|_3|_35_|3||32_|3[___56__|3___|3_271[3|<3|_53_a4<_}<[3[____:^",
"^/___|5_|71_3|_35_|33351_|3[___873}|3___|3_}43a3|_a3403_12336<[3[____:^",
"^/_________________________________________}9[|3}_|[860______________:^",
"^/_________________________________________1a50[__805|1______________:^",
"^(::::::::::::::::::::::::::::::::::::::::::::::::::::::::::::::::::::^",
"^^^^^^^^^^^^^^^^^^^^^^^^^^^^^^^^^^^^^^^^^^^^^^^^^^^^^^^^^^^^^^^^^^^^^^^",
"^^^^^^^^^^^^^^^^^^^^^^^^^^^^^^^^^^^^^^^^^^^^^^^^^^^^^^^^^^^^^^^^^^^^^^^",
"^////////////////////////////////////////////////////////////////////(^",
"^/___________________________________________________________________:^",
"^/_______1[1____1}_<[1_|||9__1[<______________________<[_____________:^",
"^/_______[3|____25_|3[_37636_[3|______________________|3_____________:^",
"^/_______[371__<35_|3[_35_238[3|____<||[_<|}|9__99[|<_|3}|<__|}______:^",
"^/_______[33|__535_|3[_35_[3|[3|____2|a38[35a3|_57a671|313a_[31______:^",
"^/_______[3271[455_|3[_35_[3|[3|____|503|[3[_55_55_[3[|3_27_02_______:^",
"^/_______[3<3|6855_|3[_35_83|[3|___93}}3|[3[_55_55_[3[|3_[3|3<_______:^",
"^/_______[3_235_55_|3[_36[63<[3|___|3<}3|[3[_42_55_93<|3__475________:^",
"^/_______[3_[3[_55_|3[_33379_[3|___<4353|[36651_57549_|3__|3[________:^",
"^/_______________________________________[3[____55________|4_________:^",
"^/_______________________________________}5}____aa________08_________:^",
"^(::::::::::::::::::::::::::::::::::::::::::::::::::::::::::::::::::::^",
"^^^^^^^^^^^^^^^^^^^^^^^^^^^^^^^^^^^^^^^^^^^^^^^^^^^^^^^^^^^^^^^^^^^^^^^"};
