/* XPM */
static char * skidder00137[] = {
"36 30 157 2",
"  	c #2E3A5E",
". 	c #313E63",
"+ 	c #313E64",
"@ 	c #2F3C61",
"# 	c #2F3B60",
"$ 	c #2D3A5D",
"% 	c #2E3A5F",
"& 	c #2C385B",
"* 	c #2F3B5F",
"= 	c #354269",
"- 	c #384770",
"; 	c #384871",
"> 	c #3B4A75",
", 	c #3D4C78",
"' 	c #3E4E7A",
") 	c #3C4B76",
"! 	c #3B4A76",
"~ 	c #3A4975",
"{ 	c #394871",
"] 	c #3A4974",
"^ 	c #344168",
"/ 	c #313D63",
"( 	c #455686",
"_ 	c #465787",
": 	c #475788",
"< 	c #475888",
"[ 	c #465788",
"} 	c #445483",
"| 	c #36446B",
"1 	c #435382",
"2 	c #35436A",
"3 	c #3E4D79",
"4 	c #485988",
"5 	c #51608A",
"6 	c #4E5D89",
"7 	c #4C5C89",
"8 	c #495A88",
"9 	c #52608A",
"0 	c #4F5E8A",
"a 	c #435483",
"b 	c #303C61",
"c 	c #3C4B77",
"d 	c #6D7690",
"e 	c #6F7790",
"f 	c #69728F",
"g 	c #737A91",
"h 	c #727991",
"i 	c #69738F",
"j 	c #38476F",
"k 	c #58658C",
"l 	c #757C92",
"m 	c #6D7590",
"n 	c #6C7490",
"o 	c #5C688C",
"p 	c #394872",
"q 	c #2F3C60",
"r 	c #5E6A8D",
"s 	c #4D5D89",
"t 	c #646F8E",
"u 	c #66708F",
"v 	c #616C8E",
"w 	c #747B92",
"x 	c #717991",
"y 	c #55638B",
"z 	c #53628B",
"A 	c #656F8E",
"B 	c #57648B",
"C 	c #636E8E",
"D 	c #6E7690",
"E 	c #3B4975",
"F 	c #465687",
"G 	c #4A5A89",
"H 	c #505F8A",
"I 	c #2E3B5F",
"J 	c #35436B",
"K 	c #3F4E7B",
"L 	c #41517F",
"M 	c #425280",
"N 	c #40507D",
"O 	c #394873",
"P 	c #2D395D",
"Q 	c #323F65",
"R 	c #344268",
"S 	c #334068",
"T 	c #ABBBE7",
"U 	c #9DB1E7",
"V 	c #6D83C0",
"W 	c #6D83C1",
"X 	c #6C82C0",
"Y 	c #6A80BC",
"Z 	c #687EB9",
"` 	c #687DB8",
" .	c #6679B3",
"..	c #576899",
"+.	c #576798",
"@.	c #57689A",
"#.	c #576799",
"$.	c #566797",
"%.	c #6578B2",
"&.	c #586A9C",
"*.	c #677BB6",
"=.	c #586996",
"-.	c #758286",
";.	c #6B798B",
">.	c #64738F",
",.	c #5D6D93",
"'.	c #788384",
").	c #707D88",
"!.	c #697EBA",
"~.	c #677CB7",
"{.	c #CFCD54",
"].	c #D4D251",
"^.	c #C0C15C",
"/.	c #E0DC4A",
"(.	c #788484",
"_.	c #DDDA4B",
":.	c #C3C35A",
"<.	c #8B9479",
"[.	c #E7E246",
"}.	c #CCCB55",
"|.	c #C9C957",
"1.	c #979E73",
"2.	c #9FA56E",
"3.	c #69778C",
"4.	c #B2B564",
"5.	c #979E72",
"6.	c #B9BB60",
"7.	c #A8AD69",
"8.	c #6E7B8A",
"9.	c #E5E047",
"0.	c #DBD84D",
"a.	c #9EA46F",
"b.	c #818C7F",
"c.	c #6275AC",
"d.	c #7D8881",
"e.	c #B4B763",
"f.	c #89927B",
"g.	c #AFB365",
"h.	c #566798",
"i.	c #5F72A7",
"j.	c #697FBB",
"k.	c #D1D052",
"l.	c #D1CF52",
"m.	c #5E71A6",
"n.	c #57699B",
"o.	c #57689B",
"p.	c #616F93",
"q.	c #788385",
"r.	c #748088",
"s.	c #596997",
"t.	c #758CCE",
"u.	c #6F87C5",
"v.	c #7087C7",
"w.	c #6E85C4",
"x.	c #6478B0",
"y.	c #6477B0",
"z.	c #6377AF",
"          . + + . @ # # $             % %   % %   %       % %         & ",
"* = - ; > , ' ' , ) ! ~ { ; ; ; ; { ; > ! > > > > > > > > > ! ! ! ] ^ & ",
"/ , ( _ : < < < < : : [ [ [ [ [ [ [ [ [ [ [ [ [ [ [ [ [ [ [ [ [ [ } | & ",
"+ ' [ < < < < < < < < < < < < < < < < < < < < < < < < < < < < < < 1 2 * ",
"+ 3 [ < < < < < < < < < < 4 5 6 7 7 < < 8 9 0 < < < < < < < < < < a | * ",
"b c [ < < < < < < < < < 8 d e f g f < 9 h f e i 8 < < < < < < < < ( j $ ",
"@ ! _ < < < < < < < < < k l 9 < h f < m n < 6 l o < < < < < < < < _ p   ",
"q ! _ < < < < < < < < < r l s < e f < l t < < l t < < < < < < < < [ > # ",
"q c [ < < < < < < < < < o l 0 4 h f < h u < 8 l v < < < < < < < < [ ! q ",
"# c [ < < < < < < < < < 0 w i t x f < r h y v w 0 < < < < < < < < [ ! q ",
"# ! [ < < < < < < < < < < 9 r z d A < < B C v 0 < < < < < < < < < [ > q ",
"q ! _ < < < < < < < < < < x f D D s < < < < < < < < < < < < < < < [ ! q ",
"q E F < : : : < < < < < < G 9 H 4 < < [ [ [ [ [ [ [ [ [ [ [ [ < < [ > q ",
"I J , ' ' ' K L M M M M M M M M M M M ! ! ! > > > ! ! > ! c 3 N L L O @ ",
"P   + Q . / + ^ R R R R R R R R R R R b @ @ @ @ b b b @ q @ . Q ^ R S . ",
"T U U U U U U U U U U U U U U U U U U U U U U U U U U U U U U U U U U T ",
"U V V V V V V W W V W W V V W V W W V W V W X X Y Z ` ` ` ` Z ` Z ` ` U ",
"U  ...+.+.+.+.@.@.@.@.@.@.@.@.#.@.@.@.@...@.@.@.........#.......@.$.` U ",
"U %.#.$.$.$.$.$.$.$.$.$.$.$.$.$.$.$.$.$.$.$.$.$.$.$.$.$.$.$.$.$.$.&.` U ",
"U *.#.$.$.$.$.$.$.$.$.$.$.=.-.;.>.>.$.$.,.'.).$.$.$.$.$.$.$.$.$.$.#.!.U ",
"U ~.#.$.$.$.$.$.$.$.$.$.,.{.].^./.^.$.(._.^.].:.,.$.$.$.$.$.$.$.$.@.` U ",
"U ` +.$.$.$.$.$.$.$.$.$.<.[.(.$._.^.$.}.|.$.;.[.1.$.$.$.$.$.$.$.$...Z U ",
"U ` +.$.$.$.$.$.$.$.$.$.2.[.3.$.].^.$.[.4.$.$.[.4.$.$.$.$.$.$.$.$...` U ",
"U ` +.$.$.$.$.$.$.$.$.$.5.[.).=._.^.$._.6.$.,.[.7.$.$.$.$.$.$.$.$.#.%.U ",
"U ` +.$.$.$.$.$.$.$.$.$.8.9.:.4.0.^.$.a._.b.7.9.).$.$.$.$.$.$.$.$.+.c.U ",
"U ` +.$.$.$.$.$.$.$.$.$.$.'.2.d.{.e.$.$.f.g.7.8.$.$.$.$.$.$.$.$.$.h.i.U ",
"U j.#.$.$.$.$.$.$.$.$.$.$.0.^.k.l.3.$.$.$.$.$.$.$.$.$.$.$.$.$.$.$.h.m.U ",
"U V n.@.o.o.@.+.+.+.+.+.+.p.q.r.s.+.+.+.+.+.+.+.+.+.+.+.+.+.+.+.+.#.V U ",
"U t.Z Y u.v.w.V x.y.z.z.z.z.z.z.z.z.z.z.z.z.z.z.y.z.z.z.z.y.y.V V V V U ",
"T U U U U U U U U U U U U U U U U U U U U U U U U U U U U U U U U U U T "};
