/* XPM */
static char * skidder00134[] = {
"11 18 106 2",
"  	c #FFFFFF",
". 	c #263159",
"+ 	c #172246",
"@ 	c #172247",
"# 	c #222D54",
"$ 	c #2F3B62",
"% 	c #39466E",
"& 	c #3E4C73",
"* 	c #3D4B73",
"= 	c #3B4972",
"- 	c #2A365D",
"; 	c #1D264A",
"> 	c #222B4D",
", 	c #212A4C",
"' 	c #20294C",
") 	c #1D2549",
"! 	c #1A2448",
"~ 	c #283359",
"{ 	c #38456D",
"] 	c #3E4B73",
"^ 	c #1C264A",
"/ 	c #1E2849",
"( 	c #2B3456",
"_ 	c #333B59",
": 	c #313958",
"< 	c #2A3353",
"[ 	c #232B4D",
"} 	c #1A2447",
"| 	c #253055",
"1 	c #3C4A72",
"2 	c #121D42",
"3 	c #242E4F",
"4 	c #39425F",
"5 	c #4C536A",
"6 	c #464D67",
"7 	c #3F4561",
"8 	c #192347",
"9 	c #152046",
"0 	c #2C3556",
"a 	c #5B6177",
"b 	c #656A7C",
"c 	c #606679",
"d 	c #535A70",
"e 	c #424963",
"f 	c #18234B",
"g 	c #374060",
"h 	c #6F7283",
"i 	c #7B808C",
"j 	c #747887",
"k 	c #676C7D",
"l 	c #52596F",
"m 	c #3B435F",
"n 	c #293152",
"o 	c #1B2448",
"p 	c #313D64",
"q 	c #17224A",
"r 	c #464F6C",
"s 	c #7A7C8B",
"t 	c #8A8D96",
"u 	c #828691",
"v 	c #737786",
"w 	c #5D6377",
"x 	c #444B65",
"y 	c #2E3755",
"z 	c #28335A",
"A 	c #1A2650",
"B 	c #4F5472",
"C 	c #858893",
"D 	c #8F919A",
"E 	c #888B95",
"F 	c #777B89",
"G 	c #303857",
"H 	c #1E284B",
"I 	c #8A8E96",
"J 	c #747786",
"K 	c #5D6276",
"L 	c #151F45",
"M 	c #767B89",
"N 	c #666B7D",
"O 	c #52586E",
"P 	c #3C4460",
"Q 	c #263259",
"R 	c #53596F",
"S 	c #414863",
"T 	c #162045",
"U 	c #2F3A62",
"V 	c #162043",
"W 	c #4A5169",
"X 	c #3D4560",
"Y 	c #2E3757",
"Z 	c #343C5A",
"` 	c #131D43",
" .	c #243057",
"..	c #1F284B",
"+.	c #172145",
"@.	c #111B41",
"#.	c #202A52",
"$.	c #36436B",
"%.	c #141D43",
"&.	c #161F44",
"*.	c #151E44",
"=.	c #121D43",
"-.	c #243056",
";.	c #242F57",
">.	c #101C42",
",.	c #101A41",
"                      ",
"  . + @ # $ % & * = = ",
"- ; > , ' ) ! ~ { ] = ",
"^ / ( _ : < [ } | { 1 ",
"2 3 4 5 6 7 : 3 8 ~ ] ",
"9 0 a b c d e : , + % ",
"f g h i j k l m n o p ",
"q r s t u v w x y ; z ",
"A B C D E F c 6 G H + ",
"q r s I u J K x y ; L ",
"f g h i M N O P n 8 Q ",
"9 0 a k c R S : , T U ",
"V / W 5 6 X : 3 o L { ",
"2 } Y Z : < > } `  .1 ",
"^ ; , > ..; +.@.#.$.= ",
"- %.&.*.%.2 =.-.$.= = ",
"  ;.>.,.# $ $.1 = = = ",
"                      "};
