/* XPM */
static char * skidder00141[] = {
"47 18 4 1",
" 	c #000000",
".	c #3B4972",
"+	c #EDDEF0",
"@	c #CBD0E0",
"         ................+............+.+......",
" @@@@@@@ ................+..............+......",
" @@@@@@@ ....+...+..++...+..++....++..+++++...+",
" @@@@@@@ .....+.+..+..+..+.+..+..+..+.+.+..+.+.",
" @@@@@@@ .....+.+..++++..+.+..+..+....+.+..+.+.",
" @@@@@@@ .....+.+..+.....+.+..+..+..+.+.+..+.+.",
" @@@@@@@ ......+....+++..+..++....++..+.++..+..",
" @@@@@@@ ...................................+..",
"         ..................................+...",
"         ................+............+.+......",
" @@@@@@@ ................+..............+......",
" @ @@@ @ ....+...+..++...+..++....++..+++++...+",
" @@ @ @@ .....+.+..+..+..+.+..+..+..+.+.+..+.+.",
" @@@ @@@ .....+.+..++++..+.+..+..+....+.+..+.+.",
" @@ @ @@ .....+.+..+.....+.+..+..+..+.+.+..+.+.",
" @ @@@ @ ......+....+++..+..++....++..+.++..+..",
" @@@@@@@ ...................................+..",
"         ..................................+..."};
