/* XPM */
static char * skidder00136[] = {
"67 30 157 2",
"  	c #1E0E0F",
". 	c #86686A",
"+ 	c #604244",
"@ 	c #602F31",
"# 	c #3B1D1E",
"$ 	c #775355",
"% 	c #7D5D5E",
"& 	c #643537",
"* 	c #8A7171",
"= 	c #856869",
"- 	c #673A3C",
"; 	c #613032",
"> 	c #653739",
", 	c #6D4344",
"' 	c #6C4143",
") 	c #693C3E",
"! 	c #6A3E40",
"~ 	c #623335",
"{ 	c #66393A",
"] 	c #744E4F",
"^ 	c #948081",
"/ 	c #917B7C",
"( 	c #876C6D",
"_ 	c #785556",
": 	c #937F80",
"< 	c #846768",
"[ 	c #927D7D",
"} 	c #7B595A",
"| 	c #968384",
"1 	c #8A7172",
"2 	c #816364",
"3 	c #8D7576",
"4 	c #897071",
"5 	c #958282",
"6 	c #826566",
"7 	c #927D7E",
"8 	c #876D6E",
"9 	c #8F7879",
"0 	c #886E6F",
"a 	c #7E5E60",
"b 	c #7A5759",
"c 	c #866A6B",
"d 	c #876B6C",
"e 	c #795657",
"f 	c #8C7475",
"g 	c #836667",
"h 	c #765253",
"i 	c #7A5859",
"j 	c #734D4E",
"k 	c #7E5D5F",
"l 	c #806263",
"m 	c #8B7273",
"n 	c #683B3D",
"o 	c #806061",
"p 	c #724B4D",
"q 	c #643638",
"r 	c #623234",
"s 	c #6B4041",
"t 	c #7F5F60",
"u 	c #795658",
"v 	c #6D4446",
"w 	c #704849",
"x 	c #6F4749",
"y 	c #6E4547",
"z 	c #85696A",
"A 	c #7D5C5D",
"B 	c #7C5A5B",
"C 	c #734C4E",
"D 	c #693D3F",
"E 	c #7C5B5D",
"F 	c #714A4B",
"G 	c #755051",
"H 	c #271314",
"I 	c #4D2628",
"J 	c #7E5759",
"K 	c #7E3E41",
"L 	c #B0898B",
"M 	c #AC8768",
"N 	c #B89A72",
"O 	c #854947",
"P 	c #D2C287",
"Q 	c #C7B17E",
"R 	c #8C554D",
"S 	c #804142",
"T 	c #884F4A",
"U 	c #976556",
"V 	c #8C544D",
"W 	c #956254",
"X 	c #8F594F",
"Y 	c #915C51",
"Z 	c #834645",
"` 	c #8A514B",
" .	c #A57C62",
"..	c #E6E298",
"+.	c #DFD692",
"@.	c #CCB983",
"#.	c #AE8A69",
"$.	c #E4DF97",
"%.	c #C5AF7D",
"&.	c #E0D994",
"*.	c #B3926E",
"=.	c #B4936E",
"-.	c #E9E79B",
";.	c #D2C388",
">.	c #C0A779",
",.	c #D7CB8C",
"'.	c #D0C086",
").	c #E7E49A",
"!.	c #C2A97A",
"~.	c #976656",
"{.	c #E2DC95",
"].	c #CCBA83",
"^.	c #DBD08F",
"/.	c #CEBD84",
"(.	c #BA9D74",
"_.	c #B18F6C",
":.	c #C9B480",
"<.	c #D0BF86",
"[.	c #CBB782",
"}.	c #B08C6B",
"|.	c #D5C88A",
"1.	c #C4AC7C",
"2.	c #AA8466",
"3.	c #C9B580",
"4.	c #B2906C",
"5.	c #A47A61",
"6.	c #B99B72",
"7.	c #BEA377",
"8.	c #C0A678",
"9.	c #D3C589",
"0.	c #8E574E",
"a.	c #BDA176",
"b.	c #A2765F",
"c.	c #874C48",
"d.	c #814344",
"e.	c #B99B73",
"f.	c #936053",
"g.	c #BB9E74",
"h.	c #B08D6B",
"i.	c #D4C589",
"j.	c #996858",
"k.	c #9E705C",
"l.	c #9C6E5A",
"m.	c #9B6B59",
"n.	c #C7B27F",
"o.	c #B79871",
"p.	c #9D6E5B",
"q.	c #925D52",
"r.	c #B5956F",
"s.	c #A37960",
"t.	c #905A50",
"u.	c #B79771",
"v.	c #A0745E",
"w.	c #A77F64",
"x.	c #B8968D",
"y.	c #B48F8C",
"z.	c #B5918C",
"                                                                                                                                      ",
"  . . . . . . . . . . . . . . . . . . . . . . . . . . . . . . . . . . . . . . . . . . . . . . . . . . . . . . . . . . . . . . . . +   ",
"  . @ @ @ @ @ @ @ @ @ @ @ @ @ @ @ @ @ @ @ @ @ @ @ @ @ @ @ @ @ @ @ @ @ @ @ @ @ @ @ @ @ @ @ @ @ @ @ @ @ @ @ @ @ @ @ @ @ @ @ @ @ @ @ #   ",
"  . @ @ @ $ % @ @ @ @ @ @ @ @ @ @ @ @ @ @ @ @ @ @ @ @ @ @ @ @ @ @ @ @ @ @ @ @ @ @ @ @ @ @ @ @ @ @ @ @ @ @ @ @ @ @ @ @ @ @ @ @ @ @ #   ",
"  . @ @ & * = - ; @ > , - @ @ & - ; ' - @ ) ! @ @ - & - ' @ @ @ ~ , ! @ @ @ @ @ @ ! , & { & @ @ & > @ - & { , ; @ @ & , ) @ @ @ @ #   ",
"  . @ @ ] ^ / ( > _ : < [ } @ } | 1 | : 2 | | _ @ | 3 4 5 6 @ , 7 8 9 0 ~ @ @ @ a 9 6 b c 4 @ @ d e @ | f 5 | g @ h ^ = c , @ @ @ #   ",
"  . @ @ @ 9 6 @ > 5 i @ j | { } | - ' | k ; f ( @ | l @ 2 | & f m @ n | _ @ @ @ 9 o ~ @ p | - n ^ q @ | 2 ; d 9 q 5 l @ @ @ @ @ @ #   ",
"  . @ @ @ 9 6 @ , | [ 9 / | , } | @ - | ] @ ( ( @ | } @ } | - | 6 @ @ | 6 @ @ @ i | ^ e r 7 } k l @ @ | } @ 6 9 , | ] @ @ @ @ @ @ #   ",
"  . @ @ @ 9 6 @ s | h @ @ @ @ } | @ - | ] @ ( ( @ | } @ k | q 7 = @ ~ | t @ @ @ @ n c ^ @ l 9 7 n @ @ | } @ 6 9 ! | u @ @ @ @ @ @ #   ",
"  . @ @ @ 8 m v ~ f 9 w x i @ } | @ - | ] @ ( ( @ | 8 y 9 4 @ } 7 w t 5 ! @ @ @ $ , z 3 @ ' | d @ @ @ | } @ 6 9 @ 0 [ A l s @ @ @ #   ",
"  . @ @ @ - l t ~ ~ _ 6 t x @ v } @ & } ! @ ] ] @ | c l B q @ @ C 2 t D @ @ @ @ B 6 E { @ r ^ x @ @ @ } v @ F $ @ ~ h 6 B q @ @ @ #   ",
"  . @ @ @ @ @ @ @ @ @ @ @ @ @ @ @ @ @ @ @ @ @ @ @ | } @ @ @ @ @ @ @ @ @ @ @ @ @ @ @ @ @ @ G 3 @ @ @ @ @ @ @ @ @ @ @ @ @ @ @ @ @ @ #   ",
"  . @ @ @ @ @ @ @ @ @ @ @ @ @ @ @ @ @ @ @ @ @ @ @ - & @ @ @ @ @ @ @ @ @ @ @ @ @ @ @ @ @ @ q q @ @ @ @ @ @ @ @ @ @ @ @ @ @ @ @ @ @ #   ",
"  + # # # # # # # # # # # # # # # # # # # # # # # # # # # # # # # # # # # # # # # # # # # # # # # # # # # # # # # # # # # # # # # #   ",
"                                                                                                                                      ",
"H H H H H H H H H H H H H H H H H H H H H H H H H H H H H H H H H H H H H H H H H H H H H H H H H H H H H H H H H H H H H H H H H H H ",
"H I I I I I I I I I I I I I I I I I I I I I I I I I I I I I I I I I I I I I I I I I I I I I I I I I I I I I I I I I I I I I I I I J H ",
"H I K K K K K K K K K K K K K K K K K K K K K K K K K K K K K K K K K K K K K K K K K K K K K K K K K K K K K K K K K K K K K K K L H ",
"H I K K K K K K K K K K K K K K K K K K K K K K K K K K K K K K K K K K K K K K K K K K K K K K K K K K K K K K K K K K K K K K K L H ",
"H I K K K K M N K K K K K K K K K K K K K K K K K K K K K K K K K K K K K K K K K K K K K K K K K K K K K K K K K K K K K K K K K L H ",
"H I K K K O P Q R S K T U V K K O R S W V K X Y K K R O V W K K K Z U Y K K K K K K Y U O ` O K K O T K R O ` U S K K O U X K K K L H ",
"H I K K K  ...+.@.T #.$.%.&.*.K =.-.;.-.$.>.-.-.#.K -.,.'.).!.K ~.{.].^./.Z K K K (.^.!._.:.<.K K [.}.K -.|.).-.1.K 2...Q 3.U K K L H ",
"H I K K K K ^.!.K T ).4.K 5.-.` =.-.V W -.6.S |.@.K -.7.K 8.-.O |.9.K 0.-.#.K K K ^.a.Z K b.-.V 0...c.K -.8.S [.^.c.).7.K K K K K L H ",
"H I K K K K ^.!.K U -.&.^.+.-.U =.-.K R -. .K @.@.K -.=.K =.-.R -.!.K K -.!.K K K 4.-...}.d.{.*.e.7.K K -.=.K !.^.U -. .K K K K K L H ",
"H I K K K K ^.!.K f.-.2.K K K K =.-.K R -. .K @.@.K -.=.K 6.-.c.{.Q K Z -.g.K K K K 0.3...K 7.^.{.0.K K -.=.K !.^.Y -.h.K K K K K L H ",
"H I K K K K ].i.j.Z |.^.k.l.4.K =.-.K R -. .K @.@.K -.].m.^.'.K *.{.k.g.).Y K K K M U n.,.K W -.[.K K K -.=.K !.^.K /.&.o.7.f.K K L H ",
"H I K K K K R 7.g.Z Z #.!.g.p.K j.=.K O =.q.K  . .K -.3.7.r.c.K K s.8.g.t.K K K K r.!.u.` K d...l.K K K =.j.K v.M K Z 2.!.r.c.K K L H ",
"H I K K K K K K K K K K K K K K K K K K K K K K K K -.=.K K K K K K K K K K K K K K K K K K w.,.K K K K K K K K K K K K K K K K K L H ",
"H J L L L L L L L L L L L L L L L L L L L L L L L L x.y.L L L L L L L L L L L L L L L L L L z.z.L L L L L L L L L L L L L L L L L L H ",
"H H H H H H H H H H H H H H H H H H H H H H H H H H H H H H H H H H H H H H H H H H H H H H H H H H H H H H H H H H H H H H H H H H H "};
