/* XPM */
static char * skidder00135[] = {
"11 18 154 2",
"  	c #FFFFFF",
". 	c #263159",
"+ 	c #172246",
"@ 	c #172247",
"# 	c #222D54",
"$ 	c #2F3B62",
"% 	c #39466E",
"& 	c #3E4C73",
"* 	c #3D4B73",
"= 	c #3B4972",
"- 	c #2A365D",
"; 	c #1E264A",
"> 	c #232B4D",
", 	c #222B4C",
"' 	c #222A4C",
") 	c #1E2649",
"! 	c #1B2448",
"~ 	c #283359",
"{ 	c #38456D",
"] 	c #3E4B73",
"^ 	c #1D274A",
"/ 	c #202A48",
"( 	c #2F3655",
"_ 	c #373D57",
": 	c #363C56",
"< 	c #2E3552",
"[ 	c #252C4C",
"} 	c #1B2547",
"| 	c #263055",
"1 	c #3C4A72",
"2 	c #172041",
"3 	c #2C334D",
"4 	c #43485A",
"5 	c #575863",
"6 	c #515360",
"7 	c #494B5C",
"8 	c #393D55",
"9 	c #28314E",
"0 	c #1B2447",
"a 	c #293359",
"b 	c #1F2744",
"c 	c #3D3F50",
"d 	c #6D6967",
"e 	c #797267",
"f 	c #766F64",
"g 	c #686460",
"h 	c #52525A",
"i 	c #3B3F54",
"j 	c #262D4B",
"k 	c #192346",
"l 	c #3A466E",
"m 	c #2C3046",
"n 	c #565152",
"o 	c #8A7B60",
"p 	c #98845D",
"q 	c #958059",
"r 	c #87775B",
"s 	c #6D655B",
"t 	c #4D4D57",
"u 	c #32374F",
"v 	c #1F2647",
"w 	c #323D64",
"x 	c #353543",
"y 	c #706452",
"z 	c #9E8451",
"A 	c #AC8B45",
"B 	c #AB8942",
"C 	c #9E824B",
"D 	c #827255",
"E 	c #5E5956",
"F 	c #3B3F50",
"G 	c #232A49",
"H 	c #29345A",
"I 	c #3F3D45",
"J 	c #7F6C4E",
"K 	c #AB8944",
"L 	c #B68B30",
"M 	c #B68A2E",
"N 	c #AA863C",
"O 	c #8D784E",
"P 	c #665E54",
"Q 	c #404251",
"R 	c #252C49",
"S 	c #3E3B40",
"T 	c #7C6A4A",
"U 	c #A88640",
"V 	c #B68A2B",
"W 	c #AA853A",
"X 	c #8D764B",
"Y 	c #655D52",
"Z 	c #3F414F",
"` 	c #242A48",
" .	c #172045",
"..	c #393843",
"+.	c #6A5C48",
"@.	c #9C804A",
"#.	c #AB873D",
"$.	c #AA863B",
"%.	c #9C7F44",
"&.	c #7E6D4E",
"*.	c #595452",
"=.	c #383A4D",
"-.	c #1F2746",
";.	c #283358",
">.	c #2B2E41",
",.	c #504B49",
"'.	c #817155",
").	c #917B50",
"!.	c #8E784D",
"~.	c #7F6E4E",
"{.	c #645B50",
"].	c #474650",
"^.	c #2B3049",
"/.	c #1A2244",
"(.	c #303B61",
"_.	c #222841",
":.	c #343544",
"<.	c #625D5A",
"[.	c #6A6256",
"}.	c #675E54",
"|.	c #5A5552",
"1.	c #30364B",
"2.	c #212847",
"3.	c #39456D",
"4.	c #242A45",
"5.	c #3B3F52",
"6.	c #444553",
"7.	c #424351",
"8.	c #393C4E",
"9.	c #2D324A",
"0.	c #202846",
"a.	c #161F42",
"b.	c #253157",
"c.	c #1E274A",
"d.	c #212849",
"e.	c #292F4B",
"f.	c #262D49",
"g.	c #1B2344",
"h.	c #131C41",
"i.	c #212B52",
"j.	c #37436B",
"k.	c #2B365D",
"l.	c #151D43",
"m.	c #172044",
"n.	c #171F44",
"o.	c #171F42",
"p.	c #141E42",
"q.	c #131E43",
"r.	c #253056",
"s.	c #242F57",
"t.	c #111C42",
"u.	c #111A41",
"v.	c #232D54",
"w.	c #303B62",
"                      ",
"  . + @ # $ % & * = = ",
"- ; > , ' ) ! ~ { ] = ",
"^ / ( _ : < [ } | { 1 ",
"2 3 4 5 6 7 8 9 0 a ] ",
"b c d e f g h i j k l ",
"m n o p q r s t u v w ",
"x y z A B C D E F G H ",
"I J K L M N O P Q R k ",
"S T U M V W X Y Z `  .",
"..+.@.#.$.%.&.*.=.-.;.",
">.,.'.).!.~.{.].^./.(.",
"_.:.<.[.}.|.].1.2. .3.",
"2 4.5.6.7.8.9.0.a.b.1 ",
"c.d.j e.f.G g.h.i.j.= ",
"k.l.m.n.o.p.q.r.j.= = ",
"  s.t.u.v.w.j.1 = = = ",
"                      "};
