/* XPM */
static char * skidder00130[] = {
"17 16 134 2",
"  	c #3B4972",
". 	c #3C4A72",
"+ 	c #3E4B73",
"@ 	c #39466E",
"# 	c #313D64",
"$ 	c #28335A",
"% 	c #172246",
"& 	c #151F45",
"* 	c #263259",
"= 	c #2F3A62",
"- 	c #38456D",
"; 	c #FFFFFF",
"> 	c #283359",
", 	c #1B2448",
"' 	c #1D264A",
") 	c #1E284B",
"! 	c #192347",
"~ 	c #162045",
"{ 	c #243057",
"] 	c #36436B",
"^ 	c #3D4B73",
"/ 	c #253055",
"( 	c #212A4C",
"_ 	c #293152",
": 	c #2E3755",
"< 	c #303857",
"[ 	c #131D43",
"} 	c #202A52",
"| 	c #3E4C73",
"1 	c #1A2447",
"2 	c #242E4F",
"3 	c #313958",
"4 	c #3B435F",
"5 	c #444B65",
"6 	c #464D67",
"7 	c #3C4460",
"8 	c #111B41",
"9 	c #243056",
"0 	c #1A2448",
"a 	c #232B4D",
"b 	c #424963",
"c 	c #52596F",
"d 	c #5D6377",
"e 	c #606679",
"f 	c #5D6276",
"g 	c #52586E",
"h 	c #414863",
"i 	c #222B4D",
"j 	c #172145",
"k 	c #121D43",
"l 	c #1D2549",
"m 	c #2A3353",
"n 	c #3F4561",
"o 	c #535A70",
"p 	c #676C7D",
"q 	c #737786",
"r 	c #777B89",
"s 	c #747786",
"t 	c #666B7D",
"u 	c #53596F",
"v 	c #3D4560",
"w 	c #121D42",
"x 	c #303D64",
"y 	c #28345A",
"z 	c #20294C",
"A 	c #747887",
"B 	c #828691",
"C 	c #888B95",
"D 	c #767B89",
"E 	c #1F284B",
"F 	c #141D43",
"G 	c #222E56",
"H 	c #172247",
"I 	c #333B59",
"J 	c #4C536A",
"K 	c #656A7C",
"L 	c #7B808C",
"M 	c #8A8D96",
"N 	c #8F919A",
"O 	c #8A8E96",
"P 	c #343C5A",
"Q 	c #151E44",
"R 	c #101A41",
"S 	c #4A5169",
"T 	c #63687B",
"U 	c #7B7E8B",
"V 	c #898B96",
"W 	c #8D8F98",
"X 	c #7A7D8B",
"Y 	c #64697B",
"Z 	c #161F44",
"` 	c #101C42",
" .	c #1D284E",
"..	c #2F3756",
"+.	c #434A64",
"@.	c #5A6074",
"#.	c #6E7382",
"$.	c #81848F",
"%.	c #7C808D",
"&.	c #18234B",
"*.	c #313C63",
"=.	c #262F50",
"-.	c #373F5B",
";.	c #686D7E",
">.	c #6D7282",
",.	c #5C6176",
"'.	c #383F5C",
").	c #192346",
"!.	c #2B3760",
"~.	c #172146",
"{.	c #1D274A",
"].	c #2B3353",
"^.	c #39415E",
"/.	c #50566E",
"(.	c #38405D",
"_.	c #101B41",
":.	c #263158",
"<.	c #3A425E",
"[.	c #101A40",
"}.	c #232F56",
"|.	c #222C53",
"1.	c #1C2548",
"2.	c #252E4F",
"3.	c #1E2A51",
"4.	c #3A4871",
"5.	c #38446C",
"6.	c #253158",
"7.	c #121C41",
"8.	c #111C42",
"9.	c #243158",
"0.	c #141E45",
"a.	c #121D44",
"b.	c #2C3860",
"c.	c #37446C",
"    . + @ # $ % & * = - .       ; ",
"  + - > % , ' ) ' ! ~ & { ]     ; ",
"^ - / ! ( _ : < : _ ( , [ } ]   ; ",
"| > 1 2 3 4 5 6 5 7 3 2 1 8 9 . ; ",
"@ 0 a 3 b c d e f g h 3 i j k ] ; ",
"# l m n o p q r s t u v m ' w x ; ",
"y z 3 6 e A B C B D e 6 3 E F G ; ",
"H ( I J K L M N O L p J P i Q R ; ",
"% i I S T U V W C X Y S I ( Z ` ; ",
" .' ..+.@.#.L $.%.#.@.+...' F &.; ",
"*.! =.-.J f ;.>.;.,.S '.=.).8 !.; ",
"- ~.{.].^.6 /.o /.6 (.m ) Z _.] ; ",
"+ :.~ z _ 3 (.<.'.3 _ E ~ [.}.. ; ",
". - |.Z 1.i 2 2.2 ( , ~ 8 3.] 4.; ",
"  . 5.6.& Z j ).j Q 7.8.}.]     ; ",
"    . . - = 9.0.a.{ b.c..   4.  ; "};
