/* XPM */
static char * skidder00131[] = {
"17 16 185 2",
"  	c #3C4972",
". 	c #3C4A71",
"+ 	c #3E4B71",
"@ 	c #404C71",
"# 	c #3E486B",
"$ 	c #374061",
"% 	c #2F3757",
"& 	c #1F2744",
"* 	c #1D2443",
"= 	c #2C3657",
"- 	c #333D60",
"; 	c #3B476B",
"> 	c #3B4972",
", 	c #FFFFFF",
"' 	c #3C476B",
") 	c #2F3756",
"! 	c #232943",
"~ 	c #292D45",
"{ 	c #2D3046",
"] 	c #2F3346",
"^ 	c #272C44",
"/ 	c #212743",
"( 	c #293355",
"_ 	c #38446A",
": 	c #3D4A71",
"< 	c #3F4C72",
"[ 	c #2D3552",
"} 	c #343647",
"| 	c #41404A",
"1 	c #49474B",
"2 	c #4C494C",
"3 	c #1C2341",
"4 	c #252D50",
"5 	c #414D71",
"6 	c #292D44",
"7 	c #3A3B48",
"8 	c #4E4A4D",
"9 	c #5F574E",
"0 	c #6B604F",
"a 	c #6E624F",
"b 	c #5F574F",
"c 	c #1A213F",
"d 	c #283255",
"e 	c #3D4B71",
"f 	c #3E496B",
"g 	c #262C45",
"h 	c #383847",
"i 	c #4F4B4C",
"j 	c #695E4E",
"k 	c #7E6E4F",
"l 	c #8B764D",
"m 	c #8F794C",
"n 	c #8B764C",
"o 	c #7E6D4E",
"p 	c #685D4E",
"q 	c #504B4C",
"r 	c #373847",
"s 	c #232942",
"t 	c #192142",
"u 	c #39446A",
"v 	c #394160",
"w 	c #2D2F45",
"x 	c #45434A",
"y 	c #645A4E",
"z 	c #816F4E",
"A 	c #977D49",
"B 	c #A48443",
"C 	c #A8863F",
"D 	c #816F4D",
"E 	c #635A4D",
"F 	c #2E3146",
"G 	c #1B2340",
"H 	c #333F62",
"I 	c #313956",
"J 	c #333547",
"K 	c #514C4C",
"L 	c #72644D",
"M 	c #91794A",
"N 	c #A6853F",
"O 	c #B18935",
"P 	c #B58A30",
"Q 	c #A78640",
"R 	c #333546",
"S 	c #1F2441",
"T 	c #263155",
"U 	c #232944",
"V 	c #373846",
"W 	c #564F4B",
"X 	c #7A6A4C",
"Y 	c #997D46",
"Z 	c #AD8838",
"` 	c #B78A2B",
" .	c #BA8A25",
"..	c #997E46",
"+.	c #56504C",
"@.	c #212641",
"#.	c #151E40",
"$.	c #222944",
"%.	c #79684C",
"&.	c #987C46",
"*.	c #AD8738",
"=.	c #AD8739",
"-.	c #987D46",
";.	c #78684C",
">.	c #554F4B",
",.	c #222742",
"'.	c #151F41",
").	c #272E4B",
"!.	c #313345",
"~.	c #4F4A4A",
"{.	c #6F624C",
"].	c #8E7748",
"^.	c #A5833E",
"/.	c #B08834",
"(.	c #B4892F",
"_.	c #A4833E",
":.	c #1E2441",
"<.	c #1C264A",
"[.	c #384060",
"}.	c #2A2E43",
"|.	c #414048",
"1.	c #5F564A",
"2.	c #7C6B4B",
"3.	c #937946",
"4.	c #A08140",
"5.	c #927846",
"6.	c #7C6A4A",
"7.	c #5F554B",
"8.	c #424047",
"9.	c #2A2E42",
"0.	c #2E395F",
"a.	c #3D476A",
"b.	c #333545",
"c.	c #4B4648",
"d.	c #62584B",
"e.	c #77664A",
"f.	c #846F49",
"g.	c #897348",
"h.	c #77674A",
"i.	c #62584A",
"j.	c #4A4648",
"k.	c #343545",
"l.	c #222741",
"m.	c #161F40",
"n.	c #414C71",
"o.	c #2E3655",
"p.	c #252A42",
"q.	c #363746",
"r.	c #474348",
"s.	c #574F49",
"t.	c #665A4A",
"u.	c #625749",
"v.	c #575049",
"w.	c #484448",
"x.	c #363645",
"y.	c #181F3F",
"z.	c #273155",
"A.	c #2A3151",
"B.	c #242841",
"C.	c #303243",
"D.	c #3B3A46",
"E.	c #414046",
"F.	c #434046",
"G.	c #403F47",
"H.	c #3A3A45",
"I.	c #2F3143",
"J.	c #242942",
"K.	c #222D50",
"L.	c #3B4871",
"M.	c #3C466A",
"N.	c #2C3555",
"O.	c #202643",
"P.	c #282C41",
"Q.	c #272B42",
"R.	c #232741",
"S.	c #1D233F",
"T.	c #182141",
"U.	c #3E4B70",
"V.	c #343D5F",
"W.	c #2B3555",
"X.	c #1A2242",
"Y.	c #2A3455",
"Z.	c #303B5E",
"`.	c #3A456B",
" +	c #3A4871",
"  . + @ # $ % & * = - ; + . . > , ",
". @ ' ) ! ~ { ] { ^ / * ( _ :   , ",
"< ' [ ^ } | 1 2 1 | } ~ 3 4 _ . , ",
"5 ) 6 7 8 9 0 a 0 b 8 7 6 c d e , ",
"f g h i j k l m n o p q r s t u , ",
"v w x y z A B C B A D E x F G H , ",
"I J K L M N O P O Q M L K R S T , ",
"U V W X Y Z `  .` Z ..X +.h @.#., ",
"$.h W %.&.*.`  .` =.-.;.>.V ,.'., ",
").!.~.{.].^./.(./._.].{.~.!.:.<., ",
"[.}.|.1.2.3.4._.4.5.6.7.8.9.c 0., ",
"a.! b.c.d.e.f.g.f.h.i.j.k.l.m._ , ",
"n.o.p.q.r.s.i.t.u.v.w.x.p.y.z.e , ",
"+ ' A.B.C.D.E.F.G.H.I.J.c K._ L., ",
". + M.N.O.B.P.9.Q.R.S.T.z._ .   , ",
"> . e U.' V.W.* X.Y.Z.`.e    +> , "};
