/* XPM */
static char * skidder00132[] = {
"11 18 137 2",
"  	c #FFFFFF",
". 	c #3B4972",
"+ 	c #3D4B73",
"@ 	c #3E4C73",
"# 	c #39466E",
"$ 	c #2F3B62",
"% 	c #222D54",
"& 	c #172247",
"* 	c #172246",
"= 	c #263159",
"- 	c #3E4B73",
"; 	c #38456D",
"> 	c #283359",
", 	c #1B2549",
"' 	c #1E264A",
") 	c #212A4D",
"! 	c #222B4D",
"~ 	c #232C4E",
"{ 	c #1D264A",
"] 	c #2A365D",
"^ 	c #3C4A72",
"/ 	c #263156",
"( 	c #1B2548",
"_ 	c #252D4E",
": 	c #2D3555",
"< 	c #333B5A",
"[ 	c #353D5A",
"} 	c #2D3657",
"| 	c #1F294A",
"1 	c #1C264A",
"2 	c #29345A",
"3 	c #1A2448",
"4 	c #273051",
"5 	c #343C5B",
"6 	c #444965",
"7 	c #4A516B",
"8 	c #50566D",
"9 	c #3C4562",
"0 	c #263050",
"a 	c #131E43",
"b 	c #182347",
"c 	c #242D4E",
"d 	c #353D5B",
"e 	c #484F68",
"f 	c #5A6176",
"g 	c #676D7F",
"h 	c #6B7081",
"i 	c #60657B",
"j 	c #2F3859",
"k 	c #323E65",
"l 	c #1D2649",
"m 	c #2C3455",
"n 	c #414964",
"o 	c #5B6176",
"p 	c #717585",
"q 	c #7D818F",
"r 	c #838793",
"s 	c #757888",
"t 	c #3C4464",
"u 	c #1B264D",
"v 	c #29345B",
"w 	c #1F284B",
"x 	c #323B58",
"y 	c #4B526B",
"z 	c #676C7F",
"A 	c #7E828F",
"B 	c #8C909A",
"C 	c #92959D",
"D 	c #818391",
"E 	c #4B5470",
"F 	c #1A254C",
"G 	c #202A4C",
"H 	c #343C5A",
"I 	c #4D546D",
"J 	c #696F81",
"K 	c #828592",
"L 	c #92959E",
"M 	c #9799A1",
"N 	c #8B8E98",
"O 	c #545976",
"P 	c #1D2952",
"Q 	c #162046",
"R 	c #313A58",
"S 	c #4A516A",
"T 	c #65697C",
"U 	c #7D808E",
"V 	c #8A8E98",
"W 	c #91959C",
"X 	c #7F8190",
"Y 	c #4A536F",
"Z 	c #263259",
"` 	c #2C3354",
" .	c #404863",
"..	c #575D73",
"+.	c #6D7183",
"@.	c #7C818E",
"#.	c #808591",
"$.	c #737686",
"%.	c #3A4362",
"&.	c #2F3A62",
"*.	c #172146",
"=.	c #444B65",
"-.	c #575D72",
";.	c #646A7C",
">.	c #6A6F80",
",.	c #5E6379",
"'.	c #2E3757",
").	c #162147",
"!.	c #151F45",
"~.	c #1C2549",
"{.	c #252F50",
"].	c #333B59",
"^.	c #3F4661",
"/.	c #484F69",
"(.	c #4D546B",
"_.	c #4B526A",
":.	c #162043",
"<.	c #243057",
"[.	c #131D43",
"}.	c #1A2447",
"|.	c #2B3454",
"1.	c #323A59",
"2.	c #2F3858",
"3.	c #121D42",
"4.	c #36436B",
"5.	c #202A52",
"6.	c #111B41",
"7.	c #172145",
"8.	c #212A4C",
"9.	c #243056",
"0.	c #121D43",
"a.	c #141D43",
"b.	c #151E44",
"c.	c #161F44",
"d.	c #101A41",
"e.	c #101C42",
"f.	c #242F57",
"                      ",
". . + @ # $ % & * =   ",
". - ; > , ' ) ! ~ { ] ",
"^ ; / ( _ : < [ } | 1 ",
"- 2 3 4 5 6 7 8 9 0 a ",
"# b c d e f g h i j & ",
"k l m n o p q r s t u ",
"v w x y z A B C D E F ",
"b G H I J K L M N O P ",
"Q w R S T U V W X Y F ",
"Z 3 `  ...+.@.#.$.%.F ",
"&.*.! < =.-.;.>.,.'.).",
"; !.~.{.].^./.(._.| :.",
"^ <.[.}.~ |.1.d 2.}.3.",
". 4.5.6.7.{ w ! 8.{ 1 ",
". . 4.9.0.3.a.b.c.a.] ",
". . . ^ 4.$ % d.e.f.  ",
"                      "};
