/* XPM */
static char * skidder00139[] = {
"110 36 31 1",
" 	c #3B4972",
".	c #5F6B8C",
"+	c #566285",
"@	c #445279",
"#	c #7A849F",
"$	c #4D597F",
"%	c #717B99",
"&	c #8C95AD",
"*	c #B1B6C7",
"=	c #B9BECD",
"-	c #959DB3",
";	c #838CA6",
">	c #9EA5B9",
",	c #687393",
"'	c #C2C7D3",
")	c #A7AEC0",
"!	c #5D685F",
"~	c #556064",
"{	c #43516D",
"]	c #777F51",
"^	c #4C5968",
"/	c #6E7756",
"(	c #888E48",
"_	c #AAAD35",
":	c #B3B530",
"<	c #919643",
"[	c #7F874D",
"}	c #999E3E",
"|	c #656F5B",
"1	c #BBBC2C",
"2	c #A1A53A",
"                                                                                                              ",
"                                                                                                 .            ",
"             +@                                   +#$         @%%                               &*$.          ",
"             =-           -##.                 +;>;,       @%--#$             %;##@             -#@@ $+       ",
"      @$     ')     )@    >  &#   =.        @#);+     ;  .&>%@    @###%   =.  #. $)$       ,*)  *+$>@.&,      ",
"     ,)* ,@  '*    %'#   .-  -#   '@        #'        -  =#      @)&###   '@  >+ +*@ @.    -*#++=  -  ## *%   ",
"    $)+ $)=% '>$   ---   .#@#& ;&#'>#       $'@       >  &;      #>    ;&#'># > .>+ @=&&+  #*>.#>  >  @-;&    ",
"    #$  .-&#.-;.   =.)   #*>*     )          =.      .>  #>      -#       )   =-=%  ;$+%;  >#)#-#  =   %)@    ",
"    #@  .-;;%&##  ,> ;,  ## *$    >          >,+     %-  .>+@    '.       >   = %&  ;  ;# +>,;&*,  =   %>     ",
"    %%  .>@>;%.-  #;.#;  ## ##   @>          ;>,  @  ##  @'#@  @ >%      @>  .>  >$ ;  #& ,>$+='$  >   #&,    ",
"    ,;  #> >'# *  >'*>*  ,# $-$  .#          ,> .;=+ ##   ).@#-- +),$@   .#  .;  ;% &@ >+ #>  *'   *  %$$>@   ",
"    %;  ,> -'# )$$'+  )+ ,#  -#  .#          +=*>##@ ;.   -)=##,  $&'+   .#  ,#  ,) @;#+  >&  @+   ' @;  -%   ",
"   +-,     $$  &%,-   #; ##  .@  #%           #$    +*)#. .,             #%  ##   ,       *%       , #$  $    ",
"  %).          #&     $= -.      .%                    $$                .%  %;           '.        $&        ",
"                       )%                                                                .'$                  ",
"                       #&                                                                                     ",
"                                                                                                              ",
"                                                                                                              ",
"                                                                                                              ",
"                                                                                                 !            ",
"             ~{                                   ~]^         {//                               (_^!          ",
"             :<           <]]!                 ~[}[|       {/<<]^             /[]]{             <]{{ ^~       ",
"      {^     12     2{    }  (]   :!        {]2[~     [  !(}/{    {]]]/   :!  ]! ^2^       |_2  _~^}{!(|      ",
"     |2_ |{  1_    /1]   !<  <]   1{        ]1        <  :]      {2(]]]   1{  }~ ~_{ {!    <_]~~:  <  ]] _/   ",
"    ^2~ ^2:/ 1}^   <<<   !]{]( [(]1}]       ^1{       }  ([      ]}    [(]1}] } !}~ {:((~  ]_}!]}  }  {<[(    ",
"    ]^  !<(]!<[!   :!2   ]_}_     2          :!      !}  ]}      <]       2   :<:/  [^~/[  }]2]<]  :   /2{    ",
"    ]{  !<[[/(]]  |} [|  ]] _^    }          }|~     /<  !}~{    1!       }   : /(  [  [] ~}|[(_|  :   /}     ",
"    //  !}{}[/!<  ][!][  ]] ]]   {}          [}|  {  ]]  {1]{  { }/      {}  !}  }^ [  ]( |}^~:1^  }   ](|    ",
"    |[  ]} }1] _  }1_}_  |] ^<^  !]          |} ![:~ ]]   2!{]<< ~2|^{   !]  ![  [/ ({ }~ ]}  _1   _  /^^}{   ",
"    /[  |} <1] 2^^1~  2~ |]  <]  !]          ~:_}]]{ [!   <2:]]|  ^(1~   !]  |]  |2 {[]~  }(  {~   1 {[  </   ",
"   ~<|     ^^  (/|<   ][ ]]  !{  ]/           ]^    ~_2]! !|             ]/  ]]   |       _/       | ]^  ^    ",
"  /2!          ](     ^: <!      !/                    ^^                !/  /[           1!        ^(        ",
"                       2/                                                                !1^                  ",
"                       ](                                                                                     ",
"                                                                                                              ",
"                                                                                                              "};
