/* XPM */
static char * skidder00133[] = {
"11 18 158 2",
"  	c #FFFFFF",
". 	c #3B4972",
"+ 	c #3D4B73",
"@ 	c #3E4C73",
"# 	c #3A466E",
"$ 	c #303B62",
"% 	c #232D54",
"& 	c #182247",
"* 	c #172246",
"= 	c #263159",
"- 	c #3E4B73",
"; 	c #38456D",
"> 	c #293459",
", 	c #1D2649",
"' 	c #202849",
") 	c #232C4C",
"! 	c #242C4C",
"~ 	c #252D4D",
"{ 	c #1E274A",
"] 	c #2B365D",
"^ 	c #3C4A72",
"/ 	c #39456D",
"( 	c #283255",
"_ 	c #1E2747",
": 	c #2A304C",
"< 	c #343952",
"[ 	c #3A3F57",
"} 	c #3B4157",
"| 	c #323955",
"1 	c #222B49",
"2 	c #2B3559",
"3 	c #1E2647",
"4 	c #2F354E",
"5 	c #414455",
"6 	c #54525C",
"7 	c #5B5A60",
"8 	c #5F5D63",
"9 	c #484C5C",
"0 	c #2E354D",
"a 	c #172142",
"b 	c #3A476D",
"c 	c #1C2546",
"d 	c #2D324B",
"e 	c #464754",
"f 	c #615C59",
"g 	c #776D5D",
"h 	c #837760",
"i 	c #837864",
"j 	c #746D67",
"k 	c #414252",
"l 	c #212845",
"m 	c #343F64",
"n 	c #232A47",
"o 	c #3B3D50",
"p 	c #5C5756",
"q 	c #807156",
"r 	c #998050",
"s 	c #A2864E",
"t 	c #A18957",
"u 	c #907F61",
"v 	c #585455",
"w 	c #2B3049",
"x 	c #2B355A",
"y 	c #282D49",
"z 	c #464650",
"A 	c #6F6454",
"B 	c #957C4C",
"C 	c #AD883C",
"D 	c #B48B33",
"E 	c #B18D3F",
"F 	c #A18754",
"G 	c #6E6558",
"H 	c #313446",
"I 	c #1B2546",
"J 	c #2A3049",
"K 	c #4A4951",
"L 	c #756852",
"M 	c #9D8045",
"N 	c #B48930",
"O 	c #BA8A24",
"P 	c #B78C31",
"Q 	c #A98B4D",
"R 	c #796B58",
"S 	c #38394A",
"T 	c #192245",
"U 	c #474750",
"V 	c #706452",
"W 	c #977C47",
"X 	c #B08835",
"Y 	c #B78A2D",
"Z 	c #B38C38",
"` 	c #A28650",
" .	c #706655",
"..	c #333545",
"+.	c #283358",
"@.	c #212846",
"#.	c #3D3D4E",
"$.	c #5F5952",
"%.	c #83714F",
"&.	c #9D8048",
"*.	c #A78744",
"=.	c #A4884D",
"-.	c #937F5A",
";.	c #5B5552",
">.	c #2D3147",
",.	c #303B61",
"'.	c #1C2445",
").	c #2D324A",
"!.	c #474752",
"~.	c #645C53",
"{.	c #7C6E54",
"].	c #887757",
"^.	c #88795D",
"/.	c #776D62",
"(.	c #43434F",
"_.	c #222844",
":.	c #172045",
"<.	c #212848",
"[.	c #30364D",
"}.	c #454552",
"|.	c #565355",
"1.	c #5F5B5B",
"2.	c #615E5E",
"3.	c #595961",
"4.	c #2B3047",
"5.	c #1C2442",
"6.	c #253057",
"7.	c #161F42",
"8.	c #1F2746",
"9.	c #2B314C",
"0.	c #363A50",
"a.	c #3D4055",
"b.	c #3E4257",
"c.	c #373D55",
"d.	c #151F41",
"e.	c #36436B",
"f.	c #202A52",
"g.	c #131C41",
"h.	c #1A2344",
"i.	c #212849",
"j.	c #232B4A",
"k.	c #262D4C",
"l.	c #232C4B",
"m.	c #1F274A",
"n.	c #1D264A",
"o.	c #243056",
"p.	c #131D43",
"q.	c #131D42",
"r.	c #151E43",
"s.	c #161F44",
"t.	c #171F44",
"u.	c #141D43",
"v.	c #2A365D",
"w.	c #2F3B62",
"x.	c #222D54",
"y.	c #101A41",
"z.	c #101C42",
"A.	c #242F57",
"                      ",
". . + @ # $ % & * =   ",
". - ; > , ' ) ! ~ { ] ",
"^ / ( _ : < [ } | 1 { ",
"- 2 3 4 5 6 7 8 9 0 a ",
"b c d e f g h i j k l ",
"m n o p q r s t u v w ",
"x y z A B C D E F G H ",
"I J K L M N O P Q R S ",
"T y U V W X Y Z `  ...",
"+.@.#.$.%.&.*.=.-.;.>.",
",.'.).!.~.{.].^./.(._.",
"/ :.<.[.}.|.1.2.3.4.5.",
"^ 6.7.8.9.0.a.b.c.8.d.",
". e.f.g.h.i.j.k.l.m.n.",
". . e.o.p.q.r.s.t.u.v.",
". . . ^ e.w.x.y.z.A.  ",
"                      "};
