/* XPM */
static char * skidder00143[] = {
"49 26 12 1",
" 	c #1B0D0E",
".	c #7B6061",
"+	c #583D3E",
"@	c #582B2D",
"#	c #361B1C",
"$	c #968384",
"%	c #271314",
"&	c #4D2628",
"*	c #7E5759",
"=	c #7E3E41",
"-	c #B0898B",
";	c #E9E69A",
"                                                 ",
" ..............................................+ ",
" .@@@@@@@@@@@@@@@@@@@@@@@@@@@@@@@@@@@@@@@@@@@@@# ",
" .@$@@@@@$@$@@$$$$@@$@@@@@@@@@@@@@@@@@@@@@@@@@@# ",
" .@$$@@@$$@$@@$@@@$@$@@@@@@@@@@@@@@@@@@@@@@$@@@# ",
" .@$$@@@$$@$@@$@@@$@$@@@@$$$@$$@@@$$$@@$$@$$$@@# ",
" .@$@$@$@$@$@@$@@@$@$@@@@$@@$@@$@$@@@@$@@$@$@@@# ",
" .@$@$@$@$@$@@$@@@$@$@@@@$@@$$$$@@$$@@$$$$@$@@@# ",
" .@$@$@$@$@$@@$@@@$@$@@@@$@@$@@@@@@@$@$@@@@$@@@# ",
" .@$@@$@@$@$@@$$$$@@$@@@@$@@@$$$@$$$@@@$$$@$$@@# ",
" .@@@@@@@@@@@@@@@@@@@@@@@@@@@@@@@@@@@@@@@@@@@@@# ",
" +############################################## ",
"                                                 ",
"%%%%%%%%%%%%%%%%%%%%%%%%%%%%%%%%%%%%%%%%%%%%%%%%%",
"%&&&&&&&&&&&&&&&&&&&&&&&&&&&&&&&&&&&&&&&&&&&&&&*%",
"%&=============================================-%",
"%&==;=====;=;==;;;;==;=========================-%",
"%&==;;===;;=;==;===;=;======================;==-%",
"%&==;;===;;=;==;===;=;====;;;=;;===;;;==;;=;;;=-%",
"%&==;=;=;=;=;==;===;=;====;==;==;=;====;==;=;==-%",
"%&==;=;=;=;=;==;===;=;====;==;;;;==;;==;;;;=;==-%",
"%&==;=;=;=;=;==;===;=;====;==;=======;=;====;==-%",
"%&==;==;==;=;==;;;;==;====;===;;;=;;;===;;;=;;=-%",
"%&=============================================-%",
"%*----------------------------------------------%",
"%%%%%%%%%%%%%%%%%%%%%%%%%%%%%%%%%%%%%%%%%%%%%%%%%"};
