/* XPM */
static char *bmp00132[]={
"13 14 60 1",
"# c #6d7062",
"f c #6d7163",
"a c #6e7263",
"j c #6f7264",
"g c #6f7364",
"m c #707466",
"o c #717567",
"r c #727568",
"w c #737768",
"u c #737769",
"B c #747769",
"y c #74776a",
"F c #74786b",
"C c #75786b",
"A c #75796b",
"H c #76796c",
"M c #777a6c",
"S c #777a6d",
"Q c #777a6e",
"Y c #787b6e",
"4 c #787c6e",
"P c #818376",
"K c #858a79",
"V c #86897b",
"E c #8e9383",
". c #959a86",
"k c #989d89",
"i c #989e8a",
"W c #a3a895",
"5 c #a4a997",
"3 c #a5aa97",
"e c #c7ceb4",
"d c #c7cfb4",
"c c #c7cfb5",
"b c #c8cfb5",
"U c #cacfba",
"l c #cad0b6",
"h c #cad1b7",
"n c #ccd3ba",
"q c #cdd5bb",
"p c #ced5bb",
"t c #d0d6bd",
"s c #d0d6be",
"x c #d1d8be",
"v c #d1d8bf",
"D c #d2d8c1",
"z c #d3d9c1",
"G c #d4dac2",
"J c #d5dac2",
"O c #d5dac3",
"L c #d6dcc3",
"I c #d7dcc4",
"R c #d7ddc5",
"N c #d8ddc5",
"X c #d8dec6",
"T c #d9dec7",
"2 c #d9dfc7",
"1 c #d9dfc8",
"0 c #dadfc8",
"Z c #dae0c8",
".###########.",
"abbbbcccddeef",
"ghiggjjjjjklj",
"mnmmmmmmmmmnm",
"opoooooooooqo",
"rsrrrrrrrrrtr",
"uvuuuuuuuwwxw",
"yzAyyyyyyyyzB",
"CDEFFFFFFFFGF",
"HIJKAAAAAAALA",
"MNNOPQHHHHHRH",
"STTTUVSSSSWXS",
"YZZ0TT112222S",
"344YYYYYYYYY5"};
