/* XPM */
static char *bmp00130[]={
"13 14 75 2",
".h c #515645",
".t c #515745",
".# c #525745",
".a c #525746",
".E c #525846",
"#f c #535846",
".b c #535847",
".F c #535848",
".w c #535948",
".c c #545848",
".N c #545947",
".I c #545948",
".x c #555948",
".d c #555949",
".y c #55594a",
"#g c #555a48",
".K c #555a49",
".e c #555a4a",
".G c #565a4a",
".f c #565a4b",
".z c #565b4a",
".A c #565b4b",
".s c #565b4c",
".L c #575b4b",
".C c #575b4c",
".5 c #575c4b",
".O c #575c4c",
"#h c #585c4c",
".V c #585c4d",
"#d c #585d4d",
".Y c #5c6050",
".T c #5f6651",
".4 c #606552",
".Q c #666c57",
"Qt c #70765e",
"#e c #71785e",
".v c #717860",
".g c #767c67",
".6 c #787e68",
"#i c #787f69",
".3 c #90987b",
".D c #969e7f",
".u c #969f7e",
".i c #969f7f",
".j c #969f80",
".S c #979f80",
".M c #97a080",
".k c #97a081",
".0 c #97a180",
".W c #97a181",
".8 c #98a181",
".l c #98a183",
".X c #99a181",
".1 c #99a182",
".m c #99a183",
".n c #9aa285",
".2 c #9aa383",
".o c #9ba386",
".p c #9ba487",
".q c #9ca488",
".9 c #9ca586",
"#. c #9ca587",
".r c #9da489",
".B c #9da58a",
"## c #9da688",
".H c #9ea589",
"#a c #9ea688",
".J c #9ea68a",
".P c #9ea78a",
"#b c #9fa78a",
".R c #9fa78b",
".7 c #9fa88a",
".Z c #9fa88b",
"#c c #a0a78b",
".U c #a0a88b",
"Qt.#.a.b.b.c.d.d.e.e.f.f.g",
".h.i.j.k.l.m.n.o.p.q.q.r.s",
".t.u.v.b.w.x.d.y.z.A.g.B.C",
".t.D.E.b.F.x.y.y.G.A.A.H.C",
".#.D.b.b.I.x.d.G.G.A.A.J.C",
".#.j.b.F.I.d.d.G.G.A.C.J.C",
".#.i.b.b.I.K.e.z.A.A.L.J.C",
".#.M.I.N.x.d.G.A.A.L.O.P.O",
".#.i.Q.I.x.d.z.z.L.L.O.R.O",
".#.M.S.T.x.K.z.z.L.L.C.U.V",
".a.W.X.W.Y.A.z.A.L.O.O.Z.V",
".a.0.1.2.3.4.z.A.L.5.6.7.V",
".#.M.8.2.2.9#.###a#b#b#c#d",
"#e#f.b.x#g.G.z.A.5.O.O#h#i"};
