/* XPM */
static char *bmp00129[]={
"171 18 644 2",
"#V c #505642",
"aJ c #505643",
"bp c #515643",
"b5 c #515743",
"aK c #515744",
"#W c #525644",
".V c #525744",
".a c #525745",
"gw c #525844",
"aL c #525845",
".b c #525846",
"bq c #535845",
"b6 c #535846",
".c c #535847",
"aI c #535946",
".Q c #545846",
"aH c #545946",
".P c #545947",
".d c #545948",
"b4 c #545a47",
"bo c #555946",
"#S c #555947",
".e c #555949",
".O c #555a47",
".N c #555a48",
".f c #555a4a",
"cx c #555b47",
"d. c #555b48",
"bn c #565a47",
"cw c #565b47",
".M c #565b48",
".L c #565b49",
".g c #565b4b",
"ed c #565c48",
"dI c #575c48",
"c9 c #575c49",
".K c #575c4a",
".h c #575c4b",
".i c #575c4c",
"eJ c #575d48",
"dH c #575d4a",
"fL c #585d49",
"ec c #585d4a",
".J c #585d4b",
".j c #585d4c",
".I c #585d4d",
"eI c #585e4a",
"fg c #585e4b",
".H c #595d4d",
".k c #595d4e",
"fK c #595e4b",
".G c #595e4d",
".F c #595e4e",
"h# c #595f4b",
"gv c #595f4c",
".E c #5a5e4e",
".l c #5a5e4f",
".m c #5a5e50",
"gT c #5a5f4c",
"hs c #5a604c",
".D c #5b5e4f",
"hv c #5b5f4d",
".C c #5b5f4f",
".n c #5b5f50",
"ib c #5b604d",
".B c #5b6050",
".o c #5b6051",
"hw c #5b614f",
".p c #5c6051",
".q c #5c6052",
"ia c #5c614e",
"hx c #5c6150",
".A c #5c6151",
".r c #5c6152",
".s c #5c6153",
".z c #5d6152",
".t c #5d6153",
"i# c #5d624f",
"i. c #5d6250",
"hy c #5d6251",
".y c #5d6253",
"hz c #5e6252",
".x c #5e6253",
".u c #5e6254",
".v c #5e6255",
"h9 c #5e6350",
"h8 c #5e6351",
".w c #5f6255",
"hA c #5f6353",
"h7 c #5f6452",
"h6 c #606452",
"hB c #606454",
"h5 c #606553",
"hC c #616455",
"hD c #616556",
"h4 c #616653",
"h3 c #626654",
"hE c #626656",
"h2 c #626755",
"h1 c #626756",
"hF c #626757",
"h0 c #636757",
"hG c #636758",
"hZ c #636857",
"hH c #636858",
"hI c #646859",
"hJ c #64685a",
"hY c #646958",
"hX c #646959",
"hW c #656959",
"hV c #666959",
"hU c #66695a",
"hK c #66695b",
"hT c #666a5a",
"hS c #666a5b",
"hL c #666a5c",
"hR c #676a5c",
"hM c #676b5c",
"hN c #676b5d",
"hQ c #676c5d",
"hO c #686c5d",
"hP c #686c5e",
".T c #919c79",
"Qt c #929b78",
".# c #949c7a",
".U c #949d7a",
"ha c #96a07b",
".S c #96a07d",
".W c #96a07f",
"#U c #96a17e",
".R c #97a07e",
"#X c #97a180",
"#T c #98a17f",
"aM c #98a180",
".X c #98a181",
"hb c #98a27f",
"cy c #99a280",
"b7 c #99a281",
"#Y c #99a282",
"d# c #9aa381",
"aN c #9aa382",
"br c #9aa383",
"#R c #9aa482",
".Y c #9aa483",
"dJ c #9ba382",
"ee c #9ba483",
"#Z c #9ba484",
".Z c #9ba486",
"aG c #9ba583",
"cz c #9ca484",
"#Q c #9ca583",
"da c #9ca584",
"#0 c #9ca585",
".0 c #9ca586",
"bm c #9ca683",
"gx c #9ca684",
"dK c #9da584",
"#P c #9da585",
"aF c #9da684",
"#O c #9da685",
"aO c #9da686",
"#1 c #9da687",
"bl c #9da784",
"eK c #9da786",
"bs c #9da787",
"aE c #9ea686",
"#N c #9ea786",
"db c #9ea787",
".1 c #9ea788",
"b3 c #9ea885",
"aD c #9ea887",
"bk c #9fa786",
"gy c #9fa787",
".2 c #9fa789",
"hc c #9fa886",
"aC c #9fa887",
"#M c #9fa888",
"#2 c #9fa889",
"bj c #9fa988",
"dc c #9fa989",
"bt c #9fa98a",
"b2 c #a0a886",
"eL c #a0a888",
"#3 c #a0a88a",
".3 c #a0a88b",
"cv c #a0a987",
"aB c #a0a989",
"aP c #a0a98a",
"b8 c #a0a98b",
"dL c #a0aa89",
"#L c #a1a889",
"bi c #a1a988",
"#K c #a1a989",
"aA c #a1a98a",
"aQ c #a1a98b",
"#4 c #a1a98c",
"hu c #a1aa87",
"cu c #a1aa88",
"b1 c #a1aa89",
"bh c #a1aa8a",
"cA c #a1aa8b",
"c8 c #a1ab89",
"#J c #a1ab8a",
"#I c #a1ab8b",
".4 c #a2a98d",
"az c #a2aa8a",
"bu c #a2aa8c",
"aR c #a2aa8d",
"eb c #a2ab89",
"b0 c #a2ab8a",
"#H c #a2ab8b",
"dd c #a2ab8c",
"#G c #a2ab8d",
"dG c #a2ac8a",
"ct c #a2ac8b",
"ht c #a2ad89",
"fM c #a3aa8b",
"#5 c #a3aa8d",
"c7 c #a3ab8b",
"#F c #a3ab8d",
"aS c #a3ab8e",
".5 c #a3ab8f",
"eH c #a3ac89",
"ay c #a3ac8c",
"#E c #a3ac8d",
"#D c #a3ac8e",
"#6 c #a3ac8f",
"c6 c #a3ad8b",
"ax c #a3ad8d",
"bg c #a4ab8c",
"ff c #a4ac8a",
"bf c #a4ac8c",
"bv c #a4ac8f",
"#7 c #a4ac90",
"fJ c #a4ad8b",
"aw c #a4ad8d",
"de c #a4ad8e",
"#C c #a4ad8f",
"aT c #a4ad90",
"dF c #a4ae8c",
"f7 c #a4ae8d",
"be c #a4ae8e",
"bZ c #a5ac8d",
"b9 c #a5ac8f",
".6 c #a5ac91",
"f6 c #a5ad8b",
"cs c #a5ad8d",
"#B c #a5ad8f",
"c. c #a5ad90",
"aU c #a5ad91",
"eG c #a5ae8c",
"ea c #a5ae8d",
"bd c #a5ae8e",
"av c #a5ae8f",
"au c #a5ae90",
"h. c #a5af8c",
"#8 c #a6ad91",
".7 c #a6ad92",
"#9 c #a6ad93",
"gu c #a6ae8b",
"gS c #a6ae8c",
"cr c #a6ae8e",
"#A c #a6ae90",
"#z c #a6ae91",
"aV c #a6ae92",
"fe c #a6af8d",
"bY c #a6af8e",
"bX c #a6af8f",
"bc c #a6af90",
"at c #a6af91",
"eF c #a6b08f",
"hd c #a6b090",
"#y c #a7ae91",
"#x c #a7ae92",
".8 c #a7ae94",
"c5 c #a7af8f",
"as c #a7af91",
"bw c #a7af93",
"a. c #a7af94",
"gt c #a7b08d",
"e# c #a7b08e",
"cq c #a7b08f",
"dE c #a7b090",
"bW c #a7b091",
"bb c #a7b092",
"#w c #a7b093",
"f5 c #a7b18e",
"eE c #a7b18f",
"e. c #a7b190",
"cp c #a7b191",
"c4 c #a8af90",
"cB c #a8af92",
"bx c #a8af95",
"dD c #a8b091",
"ar c #a8b092",
"#v c #a8b093",
"#u c #a8b094",
".9 c #a8b095",
"#. c #a8b096",
"gs c #a8b18e",
"fI c #a8b18f",
"c3 c #a8b191",
"bV c #a8b192",
"bU c #a8b193",
"cC c #a8b194",
"gR c #a8b28f",
"eD c #a8b290",
"fd c #a8b291",
"c2 c #a8b292",
"bT c #a8b293",
"#t c #a9b094",
"#s c #a9b095",
"dC c #a9b191",
"ba c #a9b193",
"aq c #a9b194",
"#r c #a9b195",
"#q c #a9b196",
"gr c #a9b290",
"d9 c #a9b291",
"c1 c #a9b292",
"bS c #a9b293",
"gz c #a9b294",
"df c #a9b295",
"#p c #a9b296",
"#o c #a9b297",
"gQ c #a9b390",
"fH c #a9b391",
"co c #a9b394",
"## c #aab097",
"b# c #aab194",
"b. c #aab195",
"ap c #aab196",
"#a c #aab197",
"dB c #aab292",
"c0 c #aab293",
"bR c #aab294",
"bQ c #aab295",
"dg c #aab296",
"#n c #aab297",
"#m c #aab298",
"hr c #aab391",
"eC c #aab392",
"dA c #aab393",
"dz c #aab394",
"cn c #aab395",
"a9 c #aab396",
"f4 c #aab492",
"fc c #aab493",
"ao c #abb197",
"d8 c #abb293",
"cZ c #abb294",
"bP c #abb295",
"bO c #abb296",
"an c #abb297",
"#b c #abb298",
"d7 c #abb393",
"cY c #abb394",
"cm c #abb395",
"a8 c #abb396",
"a7 c #abb397",
"a# c #abb398",
"aa c #abb399",
"hq c #abb491",
"g9 c #abb492",
"fb c #abb493",
"d6 c #abb494",
"cX c #abb495",
"bN c #abb496",
"bM c #abb497",
"gP c #abb593",
"gO c #abb594",
"#l c #acb299",
"eB c #acb394",
"fh c #acb396",
"eM c #acb397",
"am c #acb398",
"#c c #acb399",
"#d c #acb39a",
"cl c #acb496",
"bL c #acb497",
"bK c #acb498",
"al c #acb499",
"gq c #acb593",
"fG c #acb594",
"d5 c #acb595",
"cW c #acb596",
"d4 c #acb597",
"gp c #acb695",
"a6 c #adb399",
"#k c #adb39a",
"#j c #adb39b",
"fa c #adb495",
"ck c #adb498",
"ak c #adb499",
"aj c #adb49a",
"#i c #adb49b",
"#e c #adb49c",
"fF c #adb596",
"cV c #adb597",
"fN c #adb598",
"a5 c #adb599",
"ai c #adb59a",
"ah c #adb59b",
"#h c #adb59c",
"f# c #adb695",
"eA c #adb696",
"ez c #adb697",
"bJ c #aeb49a",
"cU c #aeb598",
"cT c #aeb599",
"a4 c #aeb59a",
"ag c #aeb59b",
"#f c #aeb59c",
"#g c #aeb59d",
"fE c #aeb696",
"d3 c #aeb697",
"dy c #aeb698",
"dx c #aeb699",
"bI c #aeb69a",
"bH c #aeb69b",
"by c #aeb69c",
"ab c #aeb69d",
"f. c #aeb796",
"e9 c #aeb797",
"e8 c #aeb798",
"cS c #aeb79a",
"g8 c #aeb897",
"cj c #afb59b",
"a3 c #afb59c",
"af c #afb59d",
"ae c #afb59e",
"ey c #afb698",
"fO c #afb699",
"dw c #afb69a",
"bG c #afb69b",
"a2 c #afb69c",
"aW c #afb69d",
"ac c #afb69e",
"fD c #afb797",
"e7 c #afb799",
"cR c #afb79a",
"cQ c #afb79b",
"ci c #afb79c",
"gN c #afb897",
"d2 c #afb899",
"ex c #afb89a",
"fP c #afb89b",
"ew c #afb99a",
"a1 c #b0b69d",
"ad c #b0b69e",
"aX c #b0b69f",
"he c #b0b79a",
"dv c #b0b79b",
"ch c #b0b79c",
"bF c #b0b79d",
"a0 c #b0b79e",
"aY c #b0b79f",
"f3 c #b0b898",
"d1 c #b0b89a",
"d0 c #b0b89b",
"fi c #b0b89c",
"cg c #b0b89d",
"aZ c #b0b89f",
"hp c #b0b998",
"fC c #b0b999",
"ev c #b0b99a",
"f8 c #b0b99b",
"du c #b0b99c",
"cP c #b1b79d",
"bE c #b1b79e",
"bD c #b1b79f",
"gM c #b1b898",
"dZ c #b1b89b",
"dY c #b1b89c",
"cf c #b1b89d",
"ce c #b1b89e",
"bz c #b1b89f",
"g7 c #b1b999",
"e6 c #b1b99a",
"eu c #b1b99b",
"dt c #b1b99c",
"cO c #b1b99d",
"cN c #b1b99e",
"cd c #b1b99f",
"cc c #b1b9a0",
"go c #b1ba99",
"f2 c #b1ba9a",
"gn c #b1ba9b",
"f1 c #b1ba9c",
"dX c #b1ba9d",
"bA c #b2b89f",
"bC c #b2b8a0",
"ho c #b2b999",
"et c #b2b99c",
"ds c #b2b99d",
"cM c #b2b99e",
"cL c #b2b99f",
"bB c #b2b9a0",
"g6 c #b2ba9a",
"fB c #b2ba9b",
"e5 c #b2ba9c",
"dW c #b2ba9d",
"dr c #b2ba9e",
"dq c #b2ba9f",
"dp c #b2baa0",
"gL c #b2bb9b",
"g5 c #b2bb9c",
"es c #b2bb9d",
"er c #b2bb9e",
"cD c #b3b9a0",
"c# c #b3b9a1",
"ca c #b3b9a2",
"e4 c #b3ba9e",
"dV c #b3ba9f",
"cK c #b3baa0",
"cJ c #b3baa1",
"cb c #b3baa2",
"f0 c #b3bb9c",
"fA c #b3bb9d",
"eq c #b3bb9e",
"ep c #b3bb9f",
"eN c #b3bba0",
"do c #b3bba1",
"g4 c #b3bc9c",
"gm c #b3bc9d",
"dU c #b4baa0",
"cE c #b4baa1",
"cF c #b4baa2",
"gK c #b4bb9d",
"e3 c #b4bb9e",
"e2 c #b4bb9f",
"dT c #b4bba0",
"dh c #b4bba1",
"cG c #b4bba2",
"fZ c #b4bc9e",
"fz c #b4bc9f",
"gU c #b4bca0",
"dS c #b4bca1",
"fj c #b4bca2",
"gJ c #b4bd9e",
"gl c #b4bd9f",
"e1 c #b4bda0",
"eo c #b5bba1",
"di c #b5bba2",
"cH c #b5bba3",
"cI c #b5bba4",
"fy c #b5bc9f",
"fx c #b5bca0",
"dR c #b5bca1",
"dn c #b5bca2",
"dm c #b5bca3",
"g3 c #b5bd9e",
"gk c #b5bd9f",
"e0 c #b5bda0",
"eZ c #b5bda1",
"en c #b5bda2",
"gI c #b5be9f",
"fw c #b5bea0",
"fv c #b5bea1",
"hn c #b5bfa0",
"dQ c #b6bca2",
"dl c #b6bca3",
"dk c #b6bca4",
"eY c #b6bda1",
"em c #b6bda2",
"el c #b6bda3",
"dj c #b6bda4",
"dP c #b6bda5",
"gH c #b6bea0",
"fu c #b6bea1",
"eX c #b6bea2",
"eW c #b6bea3",
"eV c #b6bea4",
"hm c #b6bfa0",
"fY c #b6bfa2",
"ek c #b7bda3",
"dM c #b7bda4",
"dN c #b7bda5",
"gj c #b7bea1",
"ft c #b7bea2",
"fs c #b7bea3",
"ef c #b7bea4",
"dO c #b7bea5",
"ej c #b7bea6",
"hl c #b7bfa1",
"fX c #b7bfa2",
"fr c #b7bfa3",
"fq c #b7bfa4",
"eU c #b7bfa5",
"gi c #b7c0a2",
"gh c #b7c0a3",
"gG c #b8bea3",
"fk c #b8bea4",
"eg c #b8bea5",
"eh c #b8bea6",
"g2 c #b8bfa2",
"g1 c #b8bfa3",
"fW c #b8bfa4",
"eO c #b8bfa5",
"ei c #b8bfa6",
"gg c #b8c0a3",
"gf c #b8c0a4",
"ge c #b8c0a5",
"fp c #b8c0a6",
"g0 c #b8c1a4",
"hk c #b9bfa3",
"hj c #b9bfa4",
"fV c #b9bfa5",
"eT c #b9bfa6",
"fQ c #b9c0a5",
"eS c #b9c0a6",
"eR c #b9c0a7",
"gZ c #b9c1a4",
"gY c #b9c1a5",
"gX c #b9c1a6",
"fl c #b9c1a7",
"fU c #bac0a6",
"eP c #bac0a7",
"eQ c #bac0a8",
"f9 c #bac1a6",
"fm c #bac1a7",
"fn c #bac1a8",
"gF c #bac2a7",
"gE c #bac2a8",
"gd c #bbc1a7",
"fo c #bbc1a8",
"gW c #bbc2a7",
"fR c #bbc2a8",
"fS c #bbc2a9",
"hi c #bbc3a8",
"gD c #bbc3a9",
"gV c #bcc2a8",
"fT c #bcc2a9",
"gc c #bcc2aa",
"g. c #bcc3a9",
"g# c #bcc3aa",
"ga c #bcc3ab",
"hh c #bcc4aa",
"gA c #bdc3aa",
"gb c #bdc3ab",
"gB c #bdc4aa",
"gC c #bdc4ab",
"hf c #bec4ab",
"hg c #bec5ab",
"Qt.#.a.b.c.d.e.f.g.h.i.j.k.k.l.m.n.o.p.q.r.s.t.t.t.u.v.v.v.v.v.w.w.w.w.w.w.w.w.w.w.w.w.w.w.w.w.v.v.v.v.v.v.v.v.u.u.u.u.u.u.u.u.u.x.x.x.x.x.x.x.y.y.y.y.y.y.y.t.t.t.t.t.t.t.t.t.t.t.z.z.z.z.z.z.z.z.z.z.z.z.z.z.z.z.z.z.z.z.z.r.r.r.A.p.p.p.p.p.p.p.p.p.p.p.p.p.p.p.p.p.p.p.p.B.B.B.B.B.B.B.B.n.C.C.C.C.D.E.E.F.F.G.G.H.I.j.j.J.J.K.K.K.L.M.N.O.P.Q.R.S",
".T.U.V.W.X.Y.Z.0.1.2.3.4.5.5.6.7.7.8.9#.###a#b#b#c#c#d#e#e#e#e#e#f#f#g#g#g#g#g#g#g#g#f#f#h#h#h#h#h#h#h#h#h#e#i#i#i#i#i#i#i#j#j#k#k#k#k#k#k#d#d#c#c#c#c#c#l#l#l#b#b#b#b#b#b#b#b#b#b#b#b#b#b#b#b#m#m#m#m#m#m#m#m#m#n#n#n#n#n#o#o#o#p#q#q#q#q#q#q#q#q#r#r#r#s#s#s#s#s#s#s#t#t#u#u#u#u#u#u#v#w#w#x#x#x#x#y#z#A#B#C#D#E#E#F#G#H#I#J#K#L#M#M#N#O#P#Q#R#S#T#U",
"#V#W.a#X#Y#Z#0#1#2#3#4#5#6#7#8#9a..9#q#a#aa#aa#k#i#i#f#fababacacacacadadadadadadadacacacacacacacacacacaeafafaf#f#f#f#f#f#fagagagagagagagahahaiaiaiaiaiajajajajajajajajajajakakakakakakakakalalalalalalal#c#camamamamama#a#a#a##b#b#b#b#b#b#b#b#banananao#a#a#a#a#a#aapap#r#r#r#r#r#r#r#r#raq#t#v#v#varasasasatauavav#Bawaxay#HazaA#KaBaCaDaEaFaG#SaHaI",
"aJaKaLaMaN#ZaO.1aPaQaRaSaTaUaV.8.9#q#nam#c#kajagagafaWaWadaXaYaYaZaZaZaZaZaZaZaZaZaZaZaZaZaZaZaZaZaYa0a0a0a0a0a0a0a0adada1a1a1a1a1a1aWaWa2a2a2a2a2a3a3a3agagagagagagagagagagagagagagagagagagagagagagagaga4a4a4a4a4aiaiaiaia5akakakakakakakakakakakaka6#c#c#c#c#c#camama7a7a7a7a7a7a7a8a9a9b.b.b.b.b#b#bababbbbatbcbcaubdbebebfbg#H#HbhbibjbkblbmbnboaI",
"bpaKbq.Xbr#0bs#2btbuaSbvauaVbwbxap#aa#alajajbya2a1a1a0a0bzbAbAbBbBbBbBbBbBbBbBbBbBbBbBbBbBbBbCbCbAbAbAbAbzbzbzbzbDbDbEbEbEbEbEbEbEa0a0bFbFbFbFa1a1a1aWaWaWaWaWaWaWa2a2a2a2a2a2a2a2a2a2a2a2a2a2a2a2a2bGbGbGbGbGbGbHbHbHbIa4a4a4a4a4a4a4a4a4a4a4a4a4bJajajajajajajakakakbKbKbKbKbKbKbKbLbMbNbObObObObPbQbRbRbSbTbUbVbWbWbXbXbYbdbZbfayb0b1#Kb2b3bl.M.Ob4",
"b5.Vb6b7#Z#P.1aPb8#Gb9c.#8bw#ub.#aa#alaiaga2aWbFaZbzbAbCbBbBc#c#cacacbcbcbcbcbcbcbcbcbcacac#c#c#c#bBbBbBbBbBbBbBbBbBbBbBbBbBbBcccccdcdcdcdcdbzbzbzcececececececfcfcfcfcfcfcfcfcgcgcgcgcgcgcgcgbFchchchchchchcicicicia2a2a2a2a2a2a2a2a2a2bGbGbGcjcjagagagagagaga4a4a4a5a5a5a5a5a5a5a5a5a5ckckbLbLbLclcmcmcmcncobSbSbabUcpcpcqbXcrcsawbfctazcucvb3.Mcwcx",
"b5.Vb6cyczaE#2aPcA#E#B#zcBcC#rbO#bakajbGcicha0bzcdcDcEcEcFcGcGcHcHcHcHcHcIcIcIcIcHcHcHcHcHcHcHcGcGcGcGcGcFcFcFcEcEcEcEcEcEcEcJcJcKcKcKcKcDcDcDbBbBbBbBbBbBbBcLcLcLcLcLcLcLcLcLcLcLcLcLcLcLcLcMcMcMcMcMcMcNcNcNcOcfcfcfcfcfcfcfcfcfcfcfcfcfcfcPbFbFbFbFbFbFbFchchchcQcQcQcQcQcQcQcQcRcScScTcTcTcTcUcUcVcVcVcWbNcXcYcZc0c1c2c3c4c5bXbdcsc6c7c8cucvc9.Md.",
"b5.ab6d#dadbdccAddde#Bas#vdfdga7#ca4agcicgcecLbBcKdhdididicHdjdjdjdjdjdjdjdjdjdjdjdjdjdjdjdjdjdjdjdkdkdkdkdldldldldldldldmdmdndndndndidididhdhdhdhdhdhdhdhdhdhdhdhdhdhdhdododododododocJcKcKcKcKcKcKdpdpdpdqdqdqdqdqdqdqdqdqdqdqdqdrdrdrcMcMcMcMcMcMcMcMdsdsdsdscOcOcOcOcOcOcOcOdtdududvdvcRcRcRcRdwdxdxdxdycVcWcWbNcYdzdAdBdCdDdEbXcrdFbfdGc8cudHdIcw",
"aKaLaHdJdKdbdL#H#Eavasaraqb.a7bKa4agchcgcMdpcKcJdidndmdkdMdMdNdNdOdOdOdOdOdOdOdOdOdOdOdOdOdOdOdNdNdNdNdNdNdNdNdNdNdNdPdPdjdjdjdjdjdkdkdkdldldldldldldQdQdQdQdQdQdQdQdndndndndndndndndRdRdRdRdRdRdSdSdSdSdSdhdhdhdhdhdhdhdhdhdhdTdTdTdTdUcKcKcKcKcKcKcKdVdVdVdVdrdrdrdrdrdrdrdrdrdWdXdXdYdYdYdYdYdZd0d1d1d2d2dyd3d3d4d5cXd6d7d8d9dCe.e#bYeac6dGebecc9ed",
".Vbq.Pee#OaC#K#Hdeauar#vbQbObKa5bIchcfcNdqdodhdndndkefdOegeheheheheheheieieieieieieieiehehehehehehehehehehehehehejejdOdOdOdOdOdNdNdNdMdMdMdMdMdMekekekekekekekekelelelelelelelelelemememememenenenenendndndndndndndndndndndRdRdRdReodhdhdhdhdhdhdhdhdTdTdTdTepepepepepepepepepeqereresdsdsdsdsdseteueueuevewexd2eydyezeAd5d5eBeCdBeDeEeFbYeGc6eHeIeceJ",
".Vbq#S#QeKeLazayavatbbbabPeMa5cQcQdYcMdVeNdhdneldMdMegeOeiePePePePePeQeQeQeQeQeQeQeQeQeQePePePePePePePePePePeReReSeSeSeSeSeTeTeTeieieieieieieOeOeOeOeOeOeOeOeUeUeUeUeUeUeUdOdOefefefefefeVeVeVeWeWeWeWeWeWeWeWeWeWeWeWeXeXeXeXememememememememememeYeYeYeYeZeZeZeZeZeZeZeZeZe0e1e1e1e2e3eqeqeqeqe4dWdWdWe5eue6e6d1e7e8e9f.f#fafbfceCfddEe#fedFfffgeceJ",
".Vbq#Sda#NaBazaxavbcbUbRfhbLcTd0fidscLepdhfjeleVfkeieieRflfmfnfofofofofofofofofofofofofofofofofofofofofnfnfnfmfmfmfmfmePePePeReReReReReReSeSeSeSeSeSeSeSeSfpfpfpfpfpfpfpeieOeOeOeOeOeUeUeUfqfqfqfqfqfqfqfqfqfqfqfqfrfrfrfrfsfsfsfsfsfsfsfsfsfsfsftftftfteXeXeXeXeXeXeXeXeXfufufvfvfwfxfyfzfzfzfzepeqeqfAfAe5fBfBeufCd2d2fDfEfFfGd6eCfHc3fIe#eGfJfKecfL",
".VaI#SaFdbaBfMawaubWbScmfhfNfOfPcOdrdVdTdnenfseUfQeSeRfmfnfRfRfSfSfTfTfTfTfTfTfTfTfTfTfTfTfTfTfTfSfSfSfRfRfRfRfRfRfofofofnfnfnfnfnfnfmfmfmfmfmfmfmfmfmfmfmfmfmfmfmfmePfUfUfUfUfUfUeSeSeSfQfQfQfQfQfQfQfQfQfQfQfQfQfQfQfVfVeOeOeOeOeOeOeOeOeOfWfWfWfWfWfrfrfrfrfrfrfrfrfrfrfXfYfYfYeYeYe0e0e0e0e0fzfzfzfZfZfAf0f0f1f2evfCf3fDfEf#d5fbf4c1fIf5fef6fKfgec",
".VaI#SaFdbb1c7f7bXbWbTcmbLcUdwf8drdre2dheZeWfqeOfpf9fmfnfRfTg.g#g#gagagbgbgbgbgbgbgbgbgbgbgagagag#g#g#g#g#g#g#gcgcgcfSfSfSfSfSfSfSfRfRfRfRfRfRfRfRfRfRfRfRfRfRfRfogdgdgdgdgdgdfmfmfmf9f9f9f9f9f9f9f9f9f9f9f9f9f9f9f9fUeSeSeSeSeSeSeSeSeSfQfQfQfQfQgegfgfgfgfgfgfgfgfgfgfggghghghgiftgjfufufufufue0e0e0gkglfZgmfAesgngngofCf3fDf.gpgqfceCgrgsgtgugvfKec",
"gwaH.Ogxgy#Kc7eabXbVgzcncVdxcRdvdXepepdRemeffqfQePfmfRfRfSfSgAgAgBgBgBgBgBgCgCgCgCgCgCgBgBgBgBgBgBgBgBgBgAgAgAgAg.g.g.g.g.g.g.g.g.g.g.g.g.g.g.gDgDgDgDgDgDgDfSfSfRfRfRfRfRgEgEgEgFfmfmfmfmfmfmfmfmfmfmfmf9f9f9f9fUeSeSeSeSeSeSeSeSeSeSfQfQfQfQfQgegfgfgfgfgfgfgfgfgfgfgfgfgfgfgggGgGftftftftgjfugHgHfwgIglgJgJgKfAgLgLf2gogMgNfDf#gOgPeCgQgRe#gSgTfKec",
"gwaI.Ogxbkb1c7csbXarbSclcVfOdvdZdXepgUeYelfreOfQfUgEfRfRg.g.g.g#gbgbgCgCgCgCgCgCgCgCgCgCgCgCgCgCgbgbgbgbgbg#g#g#g#g#g#g#g.g.g.g.g.g.g.g.g.g.g.g.g.g.g.g.fTfTgVgVgVgVgVfRfRfRgWgWgWgWgWgWgWgWgWgWgWgWgWgWgWgWgdgdfmfmfmfmfmfmfmfmfmf9f9f9f9f9gXgYgYgYgYgYgYgYgYgYgYgYgYgZg0g0g0g1g1g2fXfXfXfXfXfufufugHgHgkg3gJfZg4g5g5g6g7fCf3g8fEgpd6g9gQgRgsh.gTh#ec",
"hahb.OgxhcdLaybdhdbVbSclfNdyhedYdseqgUeZelfseOfQflgdfRgDg.g.g#g#g#gBhfhfhfhfhfhghghghfhfhfhfhfhfhfhfgBgBgBgBgBgBgBgBgBgBgBgBgBgBgBgBhhhhhhhhhhhhhhhhg#g#g.g.g.g.g.g.gDgDhihifRfRfRfRfRfRfRfRfRfRgWgWgWgWgWgdfmfmfmfmfmfmfmfmfmf9f9f9f9f9f9gYgYgYgYgYgYgYgYgYgYgYgYgYgYgYgYgYhjhjhkg1g1g1g1g2g2hlhlhlhmhngkg3g3fZg4g4gLgLhohpf3g8fEgpfGhqhrgQgsh.hshthu",
"hahb.O.M.K.J.GhvhwhxhyhzhAhBhChDhEhFhGhHhIhJhKhKhKhLhMhNhNhNhNhOhOhOhOhOhOhOhPhPhPhPhPhPhOhOhOhOhOhOhOhOhOhOhOhOhOhOhOhOhOhOhOhOhQhQhQhQhQhQhQhQhNhNhNhNhNhNhNhNhNhNhNhMhMhMhMhMhMhMhMhMhMhMhMhMhMhMhMhRhLhLhLhLhLhLhLhLhLhLhShShShShShShShShShShShShShShShShShShShShShShShThUhUhVhWhWhWhWhWhXhYhYhYhYhHhZhZh0h0h1h1h2h2h3h4h4h5h6h7h8h9i.i#iaibhshthu"};
