/* XPM */
static char *bmp00131[]={
"13 14 61 1",
"a c #6d7062",
"# c #6d7162",
"f c #6e7263",
"c c #6e7264",
"g c #6f7364",
"l c #717466",
"n c #717567",
"s c #727568",
"q c #737568",
"t c #737769",
"C c #74776a",
"A c #74776b",
"w c #74786b",
"D c #75786b",
"J c #76796c",
"y c #767a6c",
"T c #777a6c",
"O c #777a6d",
"U c #787a6e",
"Z c #787b6e",
"5 c #787c6e",
"4 c #787c6f",
"3 c #797c6f",
"R c #818476",
"S c #828577",
"X c #86897b",
"M c #868a7a",
"N c #8e9282",
"F c #8f9483",
"b c #959a86",
". c #969a87",
"j c #989e8a",
"i c #999e8a",
"G c #9b9f8e",
"Y c #a3a896",
"6 c #a5aa97",
"2 c #a6aa98",
"e c #c8cfb5",
"d c #c8cfb6",
"k c #cad1b7",
"h c #cbd1b7",
"m c #cdd3ba",
"p c #ced5bb",
"o c #ced5bc",
"r c #d0d6be",
"v c #d1d8bf",
"u c #d2d8c0",
"B c #d3d9c1",
"E c #d3d9c2",
"z c #d4d9c2",
"x c #d4dac2",
"I c #d5dac3",
"L c #d5dbc2",
"H c #d5dbc3",
"K c #d7ddc4",
"Q c #d8dec5",
"P c #d8dec6",
"W c #d9dfc7",
"V c #d9dfc8",
"1 c #dae0c8",
"0 c #dae0c9",
".#########aab",
"cdddddeeeeeef",
"ghigggggggjkg",
"lmlmmmmmmmlml",
"nonooooooonpn",
"qrsrrrrrrrsrs",
"tutuuuvvvvtvt",
"wxyxxxzzzzABC",
"DEFGHHHHHHDID",
"JKLMNKKKKKJKJ",
"OPQHRSQQQQTQT",
"UVWWWXOOOOYWO",
"Z000WW111111Z",
"2334555555556"};
