/* XPM */
static char * bmp00132_xpm[] = {
"29 114 523 2",
"  	c #870707",
". 	c #860707",
"+ 	c #850707",
"@ 	c #840707",
"# 	c #830707",
"$ 	c #880707",
"% 	c #8B0707",
"& 	c #8C0707",
"* 	c #890707",
"= 	c #820707",
"- 	c #810707",
"; 	c #800707",
"> 	c #7C0707",
", 	c #7D0707",
"' 	c #6C0707",
") 	c #5F0707",
"! 	c #5A0707",
"~ 	c #5D0707",
"{ 	c #690707",
"] 	c #7E0707",
"^ 	c #660707",
"/ 	c #3D0707",
"( 	c #240D0D",
"_ 	c #1D1616",
": 	c #1F1D1D",
"< 	c #201F1F",
"[ 	c #210E0E",
"} 	c #360707",
"| 	c #610707",
"1 	c #8A0707",
"2 	c #730707",
"3 	c #350707",
"4 	c #1B1616",
"5 	c #272A2A",
"6 	c #313131",
"7 	c #2F3131",
"8 	c #2A2A2A",
"9 	c #292828",
"0 	c #2F3030",
"a 	c #313333",
"b 	c #282B2B",
"c 	c #1A1919",
"d 	c #2D0707",
"e 	c #6D0707",
"f 	c #620707",
"g 	c #1C0D0D",
"h 	c #232626",
"i 	c #2C2B2B",
"j 	c #1C1B1B",
"k 	c #171717",
"l 	c #202020",
"m 	c #2E2D2D",
"n 	c #343434",
"o 	c #303030",
"p 	c #232222",
"q 	c #161616",
"r 	c #180F0F",
"s 	c #560707",
"t 	c #181010",
"u 	c #252626",
"v 	c #181717",
"w 	c #1C1C1C",
"x 	c #4F4F4F",
"y 	c #818181",
"z 	c #9B9B9B",
"A 	c #A3A3A3",
"B 	c #A6A6A6",
"C 	c #A4A4A4",
"D 	c #9C9C9C",
"E 	c #878787",
"F 	c #565656",
"G 	c #171515",
"H 	c #282828",
"I 	c #111212",
"J 	c #520707",
"K 	c #6E0707",
"L 	c #190D0D",
"M 	c #1D1D1D",
"N 	c #111111",
"O 	c #474747",
"P 	c #959595",
"Q 	c #B2B2B2",
"R 	c #B3B3B3",
"S 	c #B1B1B1",
"T 	c #525252",
"U 	c #111010",
"V 	c #1F1F1F",
"W 	c #141010",
"X 	c #630707",
"Y 	c #2D0A0A",
"Z 	c #101414",
"` 	c #686868",
" .	c #B6B6B6",
"..	c #929292",
"+.	c #7D7D7D",
"@.	c #707070",
"#.	c #6E6E6E",
"$.	c #6F6F6F",
"%.	c #767676",
"&.	c #979797",
"*.	c #A5A5A5",
"=.	c #B4B4B4",
"-.	c #777777",
";.	c #141313",
">.	c #121414",
",.	c #200B0B",
"'.	c #7B0707",
").	c #0C0C0C",
"!.	c #0C0B0B",
"~.	c #6B6B6B",
"{.	c #BCBCBC",
"].	c #5C5C5C",
"^.	c #2C2C2C",
"/.	c #090909",
"(.	c #080808",
"_.	c #0B0B0B",
":.	c #070707",
"<.	c #0A0A0A",
"[.	c #222222",
"}.	c #5A5A5A",
"|.	c #0E0D0D",
"1.	c #0C0D0D",
"2.	c #4D0808",
"3.	c #2E0909",
"4.	c #535252",
"5.	c #5F5F5F",
"6.	c #131313",
"7.	c #1E1E1E",
"8.	c #2E2E2E",
"9.	c #323232",
"0.	c #333333",
"a.	c #212121",
"b.	c #0D0D0D",
"c.	c #101010",
"d.	c #646363",
"e.	c #230B0B",
"f.	c #740808",
"g.	c #0D0707",
"h.	c #222323",
"i.	c #989797",
"j.	c #414141",
"k.	c #292929",
"l.	c #3A3A3A",
"m.	c #3C3C3C",
"n.	c #383838",
"o.	c #3B3B3B",
"p.	c #393939",
"q.	c #0F0F0F",
"r.	c #2F2F2F",
"s.	c #939393",
"t.	c #313030",
"u.	c #090707",
"v.	c #690808",
"w.	c #620808",
"x.	c #555454",
"y.	c #1A1A1A",
"z.	c #353535",
"A.	c #151515",
"B.	c #272727",
"C.	c #373737",
"D.	c #242424",
"E.	c #5D5C5C",
"F.	c #080B0B",
"G.	c #500707",
"H.	c #4F0707",
"I.	c #0A0D0D",
"J.	c #232323",
"K.	c #252525",
"L.	c #494949",
"M.	c #868686",
"N.	c #808080",
"O.	c #6C6C6C",
"P.	c #4D4D4D",
"Q.	c #121212",
"R.	c #363636",
"S.	c #0E1414",
"T.	c #3A0707",
"U.	c #3E0808",
"V.	c #262626",
"W.	c #9F9F9F",
"X.	c #B0B0B0",
"Y.	c #AEAEAE",
"Z.	c #ADADAD",
"`.	c #181818",
" +	c #070A0A",
".+	c #320A0A",
"++	c #350B0B",
"@+	c #4C4C4C",
"#+	c #A1A1A1",
"$+	c #A9A9A9",
"%+	c #A8A8A8",
"&+	c #100E0E",
"*+	c #270909",
"=+	c #380D0D",
"-+	c #0D0C0C",
";+	c #606060",
">+	c #A7A7A7",
",+	c #717171",
"'+	c #240808",
")+	c #310B0B",
"!+	c #070808",
"~+	c #AFAFAF",
"{+	c #676767",
"]+	c #220707",
"^+	c #1E0808",
"/+	c #323131",
"(+	c #A6A5A5",
"_+	c #A7A6A6",
":+	c #434242",
"<+	c #190808",
"[+	c #760707",
"}+	c #780707",
"|+	c #150707",
"1+	c #090B0B",
"2+	c #848383",
"3+	c #AAAAAA",
"4+	c #929191",
"5+	c #0E0E0E",
"6+	c #0B0707",
"7+	c #710808",
"8+	c #0A0707",
"9+	c #2E3131",
"0+	c #AEADAD",
"a+	c #464646",
"b+	c #640909",
"c+	c #680909",
"d+	c #7A7878",
"e+	c #590707",
"f+	c #600707",
"g+	c #090D0D",
"h+	c #898888",
"i+	c #ACACAC",
"j+	c #999797",
"k+	c #0C1515",
"l+	c #4D0707",
"m+	c #870808",
"n+	c #8F0808",
"o+	c #550707",
"p+	c #101A1A",
"q+	c #A09D9D",
"r+	c #AEACAC",
"s+	c #1D2525",
"t+	c #420707",
"u+	c #860808",
"v+	c #8E0808",
"w+	c #4C0707",
"x+	c #192222",
"y+	c #ADABAB",
"z+	c #293131",
"A+	c #3C0707",
"B+	c #4B0707",
"C+	c #1A2323",
"D+	c #303737",
"E+	c #900808",
"F+	c #0E1919",
"G+	c #9D9A9A",
"H+	c #A9A7A7",
"I+	c #182020",
"J+	c #3E0707",
"K+	c #8E0707",
"L+	c #080C0C",
"M+	c #858484",
"N+	c #918F8F",
"O+	c #0A1111",
"P+	c #530707",
"Q+	c #760909",
"R+	c #5B5E5E",
"S+	c #AFAEAE",
"T+	c #656666",
"U+	c #690A0A",
"V+	c #1F0707",
"W+	c #191E1E",
"X+	c #A5A4A4",
"Y+	c #A9A8A8",
"Z+	c #292E2E",
"`+	c #180707",
" @	c #7E0909",
".@	c #8D0707",
"+@	c #590808",
"@@	c #6D6B6B",
"#@	c #AFB0B0",
"$@	c #A2A2A2",
"%@	c #838282",
"&@	c #070909",
"*@	c #470707",
"=@	c #810808",
"-@	c #160707",
";@	c #131414",
">@	c #9A9999",
",@	c #282727",
"'@	c #6F0808",
")@	c #4A0808",
"!@	c #373535",
"~@	c #464444",
"{@	c #360808",
"]@	c #2B0909",
"^@	c #363434",
"/@	c #484646",
"(@	c #230A0A",
"_@	c #740707",
":@	c #5B0707",
"<@	c #2C0909",
"[@	c #8C8B8B",
"}@	c #949393",
"|@	c #373636",
"1@	c #570707",
"2@	c #580707",
"3@	c #330808",
"4@	c #0C1010",
"5@	c #4F5050",
"6@	c #919090",
"7@	c #AAA9A9",
"8@	c #ABABAB",
"9@	c #8F8E8E",
"0@	c #5C5D5D",
"a@	c #101313",
"b@	c #2A0808",
"c@	c #720707",
"d@	c #7A0707",
"e@	c #5C0707",
"f@	c #490808",
"g@	c #1E0707",
"h@	c #0B1010",
"i@	c #343939",
"j@	c #545656",
"k@	c #7B7C7C",
"l@	c #797A7A",
"m@	c #5B5C5C",
"n@	c #303434",
"o@	c #070C0C",
"p@	c #170707",
"q@	c #450909",
"r@	c #710707",
"s@	c #790707",
"t@	c #480909",
"u@	c #2B0707",
"v@	c #0C0707",
"w@	c #0C0909",
"x@	c #0F0B0B",
"y@	c #120707",
"z@	c #2E0707",
"A@	c #580808",
"B@	c #540707",
"C@	c #5E0707",
"D@	c #5B0909",
"E@	c #540A0A",
"F@	c #4F0909",
"G@	c #4D0909",
"H@	c #520A0A",
"I@	c #580909",
"J@	c #770707",
"K@	c #700707",
"L@	c #510707",
"M@	c #6B0707",
"N@	c #6F0707",
"O@	c #4E0707",
"P@	c #670707",
"Q@	c #750707",
"R@	c #4A0707",
"S@	c #490707",
"T@	c #480707",
"U@	c #460707",
"V@	c #450707",
"W@	c #410707",
"X@	c #440707",
"Y@	c #430707",
"Z@	c #6A0707",
"`@	c #650707",
" #	c #400707",
".#	c #640707",
"+#	c #390707",
"@#	c #3B0707",
"##	c #330707",
"$#	c #340707",
"%#	c #560A0A",
"&#	c #550A0A",
"*#	c #530A0A",
"=#	c #420A0A",
"-#	c #390A0A",
";#	c #3A0A0A",
">#	c #3B0A0A",
",#	c #3C0A0A",
"'#	c #787C7C",
")#	c #797C7C",
"!#	c #1D1515",
"~#	c #1E1C1C",
"{#	c #1C1616",
"]#	c #350808",
"^#	c #1A1515",
"/#	c #242727",
"(#	c #313232",
"_#	c #303131",
":#	c #262929",
"<#	c #191818",
"[#	c #2D0808",
"}#	c #202323",
"|#	c #272626",
"1#	c #171616",
"2#	c #0F0E0E",
"3#	c #252424",
"4#	c #302E2E",
"5#	c #170F0F",
"6#	c #242525",
"7#	c #1B1B1B",
"8#	c #252323",
"9#	c #262727",
"0#	c #101111",
"a#	c #180C0C",
"b#	c #2B2B2B",
"c#	c #130F0F",
"d#	c #121515",
"e#	c #161515",
"f#	c #131515",
"g#	c #200A0A",
"h#	c #0A0C0C",
"i#	c #191919",
"j#	c #0A0E0E",
"k#	c #0C1111",
"l#	c #909090",
"m#	c #828282",
"n#	c #616161",
"o#	c #141414",
"p#	c #220909",
"q#	c #1A0E0E",
"r#	c #7C7C7C",
"s#	c #868585",
"t#	c #151717",
"u#	c #0D0B0B",
"v#	c #555555",
"w#	c #636363",
"x#	c #0B0F0F",
"y#	c #080A0A",
"z#	c #747474",
"A#	c #400909",
"B#	c #410A0A",
"C#	c #515151",
"D#	c #340C0C",
"E#	c #360A0A",
"F#	c #353434",
"G#	c #717070",
"H#	c #848282",
"I#	c #880808",
"J#	c #1B0707",
"K#	c #1B2121",
"L#	c #A4A2A2",
"M#	c #282D2D",
"N#	c #790808",
"O#	c #830909",
"P#	c #110707",
"Q#	c #4B4F4F",
"R#	c #B1B0B0",
"S#	c #5E6060",
"T#	c #740909",
"U#	c #6B6E6E",
"V#	c #0C0808",
"W#	c #6A0A0A",
"X#	c #110808",
"Y#	c #7A7C7C",
"Z#	c #8B8B8B",
"`#	c #0F1212",
" $	c #5F0808",
".$	c #868888",
"+$	c #989898",
"@$	c #171A1A",
"#$	c #700808",
"$$	c #110A0A",
"%$	c #7D7E7E",
"&$	c #ABAAAA",
"*$	c #131616",
"=$	c #790909",
"-$	c #636666",
";$	c #B2B1B1",
">$	c #787979",
",$	c #670909",
"'$	c #8A0909",
")$	c #3E4545",
"!$	c #B0AFAF",
"~$	c #595D5D",
"{$	c #770909",
"]$	c #111616",
"^$	c #A09F9F",
"/$	c #242A2A",
"($	c #840808",
"_$	c #600808",
":$	c #605F5F",
"<$	c #777575",
"[$	c #800808",
"}$	c #141616",
"|$	c #989696",
"1$	c #232424",
"2$	c #480808",
"3$	c #474646",
"4$	c #380808",
"5$	c #4F4D4D",
"6$	c #5C5A5A",
"7$	c #200808",
"8$	c #454444",
"9$	c #A4A3A3",
"0$	c #484747",
"a$	c #191A1A",
"b$	c #6C6B6B",
"c$	c #767575",
"d$	c #3D0909",
"e$	c #0F0707",
"f$	c #222727",
"g$	c #9C9B9B",
"h$	c #2A2D2D",
"i$	c #350909",
"j$	c #560808",
"k$	c #380909",
"l$	c #1A0707",
"m$	c #0D0E0E",
"n$	c #1A1B1B",
"o$	c #330909",
"p$	c #510808",
"q$	c #5B0808",
"r$	c #540909",
"s$	c #530909",
"t$	c #680707",
"u$	c #570A0A",
"v$	c #580A0A",
"w$	c #590A0A",
"x$	c #5A0A0A",
"          . . + + @ # + $ % & % * @ = = # # = - ; ; > ; @ ",
"        . . + @ @ * * , ' ) ! ~ { > $ * # = = = - ; ; ] , ",
"      . . . @     ^ / ( _ : < : _ [ } | + . - - - ; ; ] ] ",
"    . . . @ 1 2 3 4 5 6 7 8 9 8 0 a b c d e $ ; - ; ; ] ] ",
"  . . . @ 1 f g h i j k l m n o p q j i 5 r s   ] ; ; ] ] ",
"  . . @ 1 | t u v w x y z A B C D E F l G H I J   ] ; ] ] ",
". . @ * K L M N O P Q R Q Q S Q R S R D T U V W X + ] ] ] ",
". . + + Y Z U ` R  .B ..+.@.#.$.%.&.*.=. .-.;.>.,.'.- ] ; ",
". @ % ! ).!.~.{.&.].^./.(./.)._.:.<.[.}...{.+.|.1.2.  , ; ",
"+ @   3.:.4.Q 5.6.:.).7.8.9.n 0.8.a.b.:.c.F  .d.:.e.> - ; ",
"@ * f.g.h.i.j.:.b.k.l.m.l.n.n.n.o.m.p.^.q.:.r.s.t.u.v.+ , ",
"@ 1 w.:.x.o.:.y.z.n.k.w q q q A.k w B.C.C.7.:.D.E.F.G.+ , ",
"# 1 H.I.9 :.w n J.N K.L.` +.M.N.O.P.k.Q.l R.J.:.m S.T.. , ",
"= % U.:.:.A.8 N V.#.W.X.X.Y.Z.Y.X.S C -.^.q.8 `.:. +.+. > ",
"= % ++:.!.w b.@+#+X.$+*.*.B B B *.*.%+X.%+}.).w &+:.*++ '.",
"= % =+:.-+_.;+Y.$+*.B >+>+>+>+>+>+>+>+*.>+S ,+b.). +'+@ '.",
"# 1 )+!+:.F ~+B B >+>+>+>+>+>+>+>+>+>+>+>+*.Q {+:.!+]++ '.",
"@ @ ^+:./+>+>+(+>+>+>+>+>+>+>+>+>+>+>+>+>+_+*.Z.:+:.<+[+] ",
". }+|+1+2+Z.C B B B B B B B B B B B B B B B *.3+4+5+6+{ = ",
"  7+8+9+$+*.B B B B B B B B B B B B B B B B B C 0+a+:.b+@ ",
"* c+:.` X.C B B B B B B B B B B B B B B B B B C ~+d+:.e+. ",
"& f+g+h+i+*.B B B B B B B B B B B B B B B B B *.$+j+k+l+m+",
"n+o+p+q+%+B B B B B B B B B B B B B B B B B B B *.r+s+t+u+",
"v+w+x+y+*.B B B B B B B B B B B B B B B B B B B *.r+z+A+u+",
"n+B+C+r+C *.*.*.*.*.*.*.*.*.*.*.*.*.*.*.*.*.*.*.C r+D+/ m+",
"E+o+F+G+>+C *.*.*.*.*.*.*.*.*.*.*.*.*.*.*.*.*.*.C H+I+J+u+",
"K+f L+M+i+A *.*.*.*.*.*.*.*.*.*.*.*.*.*.*.*.*.C 3+N+O+P+* ",
"1 Q+:.R+S+A *.*.*.*.*.*.*.*.*.*.*.*.*.*.*.*.*.A Z.T+:.U++ ",
". * V+W+X+*.*.*.*.*.*.*.*.*.*.*.*.*.*.*.*.*.*.C Y+Z+`+ @; ",
". .@+@:.@@#@$@*.*.*.*.*.*.*.*.*.*.*.*.*.*.*.A i+%@&@*@. ] ",
"  $ =@-@;@>@$+$@C C C C C C C C C C C C C A B C ,@6+'@= ] ",
"$ .   )@:.!@A >+$@C C C C C C C C C C C $@*.$+~@:.{@'.] ] ",
"$ $ , ) ]@:.^@$@3+#+A C C C C C C C A $@$+%+/@:.(@e+_@- ; ",
"$ $ > :@:@<@:.k.[@S+%+A #+$@A A $@C $+Z.}@|@:.(@s 1@2 = ; ",
"  $ > ! 2@:@3@:.4@5@6@7@S i+8@8@~+_+9@0@a@:.b@1@1@s c@= ; ",
"  $ d@e+s 1@e@f@g@:.h@i@j@$.k@l@m@n@o@:.p@q@e+s o+o+r@= ; ",
".   s@2@1@1@s :@:@t@u@-@v@w@-+x@8+y@z@)@A@e+B@B@o+o+r@= ] ",
"+ . }+2@s 1@1@s 1@! C@D@E@F@G@F@H@I@e@2@o+B@o+o+o+B@r@= ] ",
"@ + J@1@s s 1@1@1@s o+o+1@2@2@2@1@s B@o+o+o+o+o+o+B@r@- ] ",
"= @ [+1@o+s s s s s o+o+B@B@B@B@B@o+o+o+o+o+B@B@B@P+K - , ",
"; = 2 o+B@o+o+o+o+o+B@B@B@B@B@B@o+B@o+o+B@B@B@B@B@J e - > ",
"] - r@B@B@B@B@B@B@B@B@P+P+P+P+B@B@B@B@B@B@B@P+P+P+J ' ] '.",
"> ] K@P+J P+P+J J J J J J J J J J P+P+P+J J J J J L@M@, d@",
"d@, N@L@L@L@L@L@L@L@L@L@L@L@L@L@L@L@L@L@L@L@L@L@L@H.{ '.s@",
"s@> e G.G.G.G.G.G.G.G.G.G.G.G.G.G.G.G.G.G.G.G.G.G.O@P@d@J@",
"}+d@e H.H.H.H.H.H.H.H.H.H.H.H.H.H.H.H.H.H.H.H.H.H.l+P@s@[+",
"J@}+K H.l+l+l+l+l+l+l+l+l+l+l+l+l+l+l+l+l+l+l+l+l+l+{ J@_@",
"Q@Q@r@J R@w+w+B+B+B+B+B+B+B+B+B+B+R@R@B+B+w+w+w+B+H.e _@c@",
"c@c@c@2@*@S@S@S@S@S@S@S@S@S@T@T@T@T@T@S@S@S@S@R@*@o+K@K@N@",
"N@N@K@| U@U@U@U@U@U@U@U@U@U@U@V@U@U@V@U@U@*@*@*@V@~ N@e ' ",
"' M@M@{ O@W@X@Y@Y@Y@Y@Y@Y@Y@Y@Y@Y@Y@Y@Y@X@X@X@t+R@P@Z@{ { ",
"P@^ `@P@!  #J+ #J+J+J+J+ # # # #J+J+J+ # # #J+J+1@^ .#.#X ",
"| | f+f+f+l++#T.T.T.T.T.@#@#@#@#T.T.T.@#@#@#+#S@) f+) C@C@",
"2@2@2@1@1@o+ ###$#$#3 3 3 } } } 3 3 3 3 3 ##J+o+2@s s o+B@",
"%#%#%#%#&#%#*#=#-#;#>#>#,#,#,#,#,#,#>#>#;#=#*#%#&#E@E@*#H@",
"8+8+8+8+8+8+8+u.:.:.:.:.:.:.:.:.:.:.:.:.:.u.6+8+8+8+8+u.u.",
"'#'#'#'#'#'#'#)#)#)#)#)#)#)#)#)#)#)#)#)#)#'#'#'#'#'#'#'#'#",
"          . . + + @ # + $ % & % * @ = = # # = - ; ; > ; @ ",
"        . . + @ @ * * , ' ) ! ~ { > $ * # = = = - ; ; ] , ",
"      . . . @     ^ / ( !#~#7.~#{#[ } | + . - - - ; ; ] ] ",
"    . . . @ 1 2 ]#^#/#0 a o t.6 (#_#:#<#[#e $ ; - ; ; ] ] ",
"  . . . @ 1 f g }#m |#a.1#2#:.<.y.< 3#4#h r s   ] ; ; ] ] ",
"  . . @ 1 | 5#6#|#7#7#N <.q.q.5+/./.y.V 8#9#0#J   ] ; ] ] ",
". . @ * N@a#7.1#c.b.q.w ^.o n 9.b#a.c.c.N <#[.c#X + ] ] ] ",
". . + + <@d#;.<.N K.n.o.p.R.n z.p.o.n.V.N b.e#f#g#'.- ] ; ",
". @ % ! h#2#(.`.n z.D.k A.i#w i#6.q J.n R.i#(.|.j#w+  , ; ",
"+ @ $ u@k#u.k 6 V Q.o }.N.l#s.l#m#n#n o#7#9.w :.L+p#> - ; ",
"@ * c@q#_.q.B.q.r.r#$+S ~+Y.Z.Y.~+S i+s#n.5+K.o#:.).P@+ , ",
"@ % e@t#u#A.b.v#B X.>+B B B B B B B >+S+8@w#c.q u#x#G.+ , ",
"# 1 L@y#_./.w#X.%+*.>+>+>+>+>+>+>+>+>+*.B Q z#b._.g+A#+ , ",
"= 1 B#&@:.C#X.B B >+>+>+>+>+>+>+>+>+>+>+>+C Q w#:. +D#+ > ",
"= % E#:.,@$@$+B >+>+>+>+>+>+>+>+>+>+>+>+>+B B 3+F#:.*++ '.",
"= % b@:.G#X.*.>+>+>+>+>+>+>+>+>+>+>+>+>+>+>+*.Y.H#&@g@; > ",
"# I#J#K#L#%+>+>+>+>+>+>+>+>+>+>+>+>+>+>+>+>+>+>+7@M#y@N#] ",
"+ O#P#Q#S+*._+_+>+>+>+>+>+>+>+>+>+>+>+>+>+_+_+C R#S#u.T#; ",
". N#v@U#S C B B B B B B B B B B B B B B B B B C ~+l@V#W#= ",
"  7+X#Y#S+C B B B B B B B B B B B B B B B B B *.8@Z#`# $+ ",
"$ '@5#.$i+*.B B B B B B B B B B B B B B B B B *.$++$@$~ + ",
"$ #$$$%$Y.C B B B B B B B B B B B B B B B B B *.&$l#*$ $+ ",
"  =$u.-$;$C B B B B B B B B B B B B B B B B B C ~+>$u.,$# ",
"@ '$p@)$y+*.B B B B B B B B B B B B B B B B B C !$~$6+{$- ",
"@ .@} ]$^$B *.*.*.*.*.*.*.*.*.*.*.*.*.*.*.*.*.*._+/$V+($, ",
"+ % _$:.:$S $@*.*.*.*.*.*.*.*.*.*.*.*.*.*.*.A Y.<$:.S@. > ",
".   [$`+}$|$$+A *.*.*.*.*.*.*.*.*.*.*.*.*.C >+$@1$v@#$= ] ",
". + # 2$:.F#~+C C *.*.*.*.*.*.*.*.*.*.*.C *.3+3$:.4$d@; ; ",
".   > f b@:.5$~+>+$@*.*.*.*.*.*.*.*.*.A B 3+6$:.p#e+[+- ; ",
"    ] C@1@7$:.8$^$S+*.$@C C C C C A C Y.9$0$:.<+P+! Q@- ; ",
"  $ , e@e+s '+:.a$b$X+~+3+%+>+%+3+0+Y+c$9#:.p#L@e+1@_@; ] ",
"$ $ > e@1@e+e@d$e$:.f$T m#+$g$s.E 0@h$:.8+i$2@2@s 1@2 - ] ",
"$ * , :@1@2@1@e@j$k$l$:.:.m$n$1.:.:.y@o$p$e@1@s s 1@2 = ; ",
"$ $ > :@1@2@2@1@2@C@q$r$S@t+W@t+S@s$I@~ 2@s s s s s 2 = ; ",
"  $ > :@1@2@2@2@2@s 2@! :@e@e@e@:@e+1@s s s s s s s 2 = ; ",
"    > ! 1@2@2@2@2@2@1@1@1@s 1@s s s 1@s s s s o+o+s 2 = ; ",
". . ] e@s 1@1@2@2@1@1@1@1@1@1@1@1@1@s s s o+o+o+B@1@[+- ] ",
"+ + @ f o+1@1@1@1@1@1@s s s s s s s s s o+o+o+o+B@e@> ; ] ",
"@ # + ' B@s 1@1@1@s s s s s s s s s s o+o+o+o+o+P+P@- ] ] ",
"# = # s@e+o+s s s s o+o+o+o+o+o+o+o+o+o+o+o+o+B@o+2 - ] ] ",
"- ; - - t$P+o+o+o+o+B@B@B@B@B@B@o+B@o+o+B@B@B@J f ] ] ] , ",
"] ] ] ; '.~ J B@B@B@B@P+P+P+P+B@B@B@B@B@B@B@J 2@[+] > > > ",
"> > , , ; 2 o+L@P+J J J J J J J J P+P+P+P+L@B@K ] > '.'.'.",
"'.'.'.'.> , K s G.L@J L@L@L@L@L@L@J J J G.B@' > '.'.d@s@d@",
"d@d@d@d@'.'.> _@C@G.O@H.G.G.G.G.G.H.O@H.! K@'.d@d@s@s@}+}+",
"}+s@s@s@s@d@d@'.}+M@e@J O@l+l+l+H.L@e+t$J@d@s@s@s@}+J@J@J@",
"J@J@J@J@J@}+}+J@}+s@J@K@{ `@f .#t$K Q@}+}+J@J@J@J@[+[+Q@Q@",
"Q@Q@Q@Q@Q@Q@Q@Q@Q@Q@Q@[+[+[+[+[+Q@Q@_@_@_@Q@[+[+Q@_@_@2 c@",
"c@c@c@c@c@c@c@c@c@c@c@c@c@r@r@r@K@K@r@r@c@2 2 2 c@c@r@K@N@",
"N@N@N@N@N@N@N@N@N@N@N@N@N@K K K e e K N@N@K@K@K@N@K K e ' ",
"' M@M@M@M@M@M@M@M@M@M@M@M@M@M@Z@Z@Z@Z@M@' ' ' ' M@M@Z@{ { ",
"P@^ ^ ^ ^ ^ ^ ^ ^ ^ ^ ^ ^ ^ ^ ^ ^ `@^ ^ P@P@P@P@^ `@.#.#X ",
"| | | f+f+f+f+f+f+f+f+| f f f f f | | | | | | | f+f+) C@C@",
"2@2@2@2@1@1@1@1@1@1@2@e+! ! ! ! ! e+e+e+2@2@2@1@1@s s o+B@",
"%#%#%#%#&#&#&#&#&#%#u$v$w$w$w$x$x$w$v$v$u$%#&#&#&#E@E@*#H@",
"8+8+8+8+8+8+8+8+8+8+6+v@6+6+v@v@v@6+v@6+8+8+8+8+8+8+8+u.u.",
"'#'#'#'#'#'#'#'#'#'#'#'#'#'#'#'#'#'#'#'#'#'#'#'#'#'#'#'#'#"};
