/* XPM */
static char * bmp00130_xpm[] = {
"51 82 642 2",
"  	c #A10707",
". 	c #A00707",
"+ 	c #9F0707",
"@ 	c #9E0707",
"# 	c #9D0707",
"$ 	c #9C0707",
"% 	c #9B0707",
"& 	c #990707",
"* 	c #900707",
"= 	c #800707",
"- 	c #760808",
"; 	c #790808",
"> 	c #880707",
", 	c #990808",
"' 	c #A40707",
") 	c #9A0707",
"! 	c #980707",
"~ 	c #970707",
"{ 	c #960707",
"] 	c #950707",
"^ 	c #940707",
"/ 	c #930707",
"( 	c #920707",
"_ 	c #910707",
": 	c #A20707",
"< 	c #620808",
"[ 	c #2E0707",
"} 	c #0F0707",
"| 	c #080707",
"1 	c #070707",
"2 	c #110707",
"3 	c #3C0707",
"4 	c #720808",
"5 	c #A30707",
"6 	c #730707",
"7 	c #200707",
"8 	c #0D1313",
"9 	c #313333",
"0 	c #4B4C4C",
"a 	c #585959",
"b 	c #575858",
"c 	c #484949",
"d 	c #252929",
"e 	c #070C0C",
"f 	c #320707",
"g 	c #8F0707",
"h 	c #A50707",
"i 	c #A40808",
"j 	c #A40909",
"k 	c #5E0707",
"l 	c #090707",
"m 	c #070A0A",
"n 	c #403D3D",
"o 	c #6E6D6D",
"p 	c #7D7C7C",
"q 	c #7C7C7C",
"r 	c #7B7B7B",
"s 	c #7C7B7B",
"t 	c #686666",
"u 	c #313131",
"v 	c #140707",
"w 	c #7D0707",
"x 	c #A60707",
"y 	c #6B0707",
"z 	c #131313",
"A 	c #5D5B5B",
"B 	c #7D7D7D",
"C 	c #777777",
"D 	c #747474",
"E 	c #757575",
"F 	c #4F4C4C",
"G 	c #080A0A",
"H 	c #150707",
"I 	c #850707",
"J 	c #910808",
"K 	c #920A0A",
"L 	c #A61D1D",
"M 	c #AD4242",
"N 	c #A61B1B",
"O 	c #A80707",
"P 	c #A90707",
"Q 	c #AE0707",
"R 	c #920808",
"S 	c #190707",
"T 	c #161717",
"U 	c #6B6A6A",
"V 	c #858585",
"W 	c #7A7A7A",
"X 	c #767676",
"Y 	c #818181",
"Z 	c #545252",
"` 	c #2D0808",
" .	c #981B1B",
"..	c #C39C9C",
"+.	c #AD6868",
"@.	c #8D0B0B",
"#.	c #A61717",
"$.	c #D7B8B8",
"%.	c #F5FAFA",
"&.	c #B86868",
"*.	c #A80808",
"=.	c #900808",
"-.	c #6C0707",
";.	c #5C0707",
">.	c #4E0707",
",.	c #450909",
"'.	c #410808",
").	c #390707",
"!.	c #230707",
"~.	c #151414",
"{.	c #2B2B2B",
"].	c #2C2C2C",
"^.	c #353535",
"/.	c #3D3D3D",
"(.	c #4B4B4B",
"_.	c #5A5A5A",
":.	c #555555",
"<.	c #545454",
"[.	c #646464",
"}.	c #787878",
"|.	c #808080",
"1.	c #393838",
"2.	c #6D0808",
"3.	c #9A0909",
"4.	c #AC6161",
"5.	c #FFFFFF",
"6.	c #DBCACA",
"7.	c #911515",
"8.	c #8C0909",
"9.	c #B58686",
"0.	c #B14949",
"a.	c #F1E5E5",
"b.	c #A83232",
"c.	c #AB0707",
"d.	c #8B0909",
"e.	c #380707",
"f.	c #0C0707",
"g.	c #070D0D",
"h.	c #070909",
"i.	c #091212",
"j.	c #0D1212",
"k.	c #101010",
"l.	c #0B0B0B",
"m.	c #0A0A0A",
"n.	c #080808",
"o.	c #707070",
"p.	c #737171",
"q.	c #111414",
"r.	c #300707",
"s.	c #9B0808",
"t.	c #A13D3D",
"u.	c #F4F0F0",
"v.	c #F8F7F7",
"w.	c #9E4141",
"x.	c #9B4141",
"y.	c #F7F9F9",
"z.	c #D1A1A1",
"A.	c #C38787",
"B.	c #890707",
"C.	c #180707",
"D.	c #272828",
"E.	c #4D4C4C",
"F.	c #616060",
"G.	c #5F5E5E",
"H.	c #4D4B4B",
"I.	c #353434",
"J.	c #454343",
"K.	c #515050",
"L.	c #4F4F4F",
"M.	c #4D4D4D",
"N.	c #494949",
"O.	c #444444",
"P.	c #3A3A3A",
"Q.	c #2F2F2F",
"R.	c #202020",
"S.	c #363636",
"T.	c #807E7E",
"U.	c #3A3D3D",
"V.	c #930808",
"W.	c #940808",
"X.	c #D0AEAE",
"Y.	c #B17272",
"Z.	c #8E0707",
"`.	c #B98888",
" +	c #F6F2F2",
".+	c #F4EEEE",
"++	c #AE3333",
"@+	c #220909",
"#+	c #444141",
"$+	c #777676",
"%+	c #838383",
"&+	c #6B6B6B",
"*+	c #535353",
"=+	c #606060",
"-+	c #666666",
";+	c #636363",
">+	c #626262",
",+	c #616161",
"'+	c #5D5D5D",
")+	c #585858",
"!+	c #373737",
"~+	c #212121",
"{+	c #191919",
"]+	c #5F5F5F",
"^+	c #780707",
"/+	c #9C0808",
"(+	c #AE6464",
"_+	c #CFACAC",
":+	c #DAC8C8",
"<+	c #D9B2B2",
"[+	c #B30C0C",
"}+	c #6F0707",
"|+	c #383535",
"1+	c #868686",
"2+	c #8F8F8F",
"3+	c #949494",
"4+	c #939393",
"5+	c #8C8C8C",
"6+	c #828282",
"7+	c #6A6A6A",
"8+	c #6C6C6C",
"9+	c #696969",
"0+	c #686868",
"a+	c #676767",
"b+	c #656565",
"c+	c #5B5B5B",
"d+	c #2A2A2A",
"e+	c #4A4A4A",
"f+	c #7B7A7A",
"g+	c #6F6E6E",
"h+	c #101313",
"i+	c #680808",
"j+	c #A70707",
"k+	c #9D0808",
"l+	c #9B2828",
"m+	c #EEE7E7",
"n+	c #EBE2E2",
"o+	c #931C1C",
"p+	c #A75656",
"q+	c #E7DCDC",
"r+	c #C47070",
"s+	c #B40707",
"t+	c #430707",
"u+	c #0B1111",
"v+	c #A7A7A7",
"w+	c #B6B6B6",
"x+	c #B1B1B1",
"y+	c #9F9F9F",
"z+	c #8D8D8D",
"A+	c #6D6D6D",
"B+	c #6F6F6F",
"C+	c #6E6E6E",
"D+	c #595959",
"E+	c #272727",
"F+	c #484848",
"G+	c #797979",
"H+	c #747373",
"I+	c #181E1E",
"J+	c #950B0B",
"K+	c #D3B0B0",
"L+	c #A24F4F",
"M+	c #CDA7A7",
"N+	c #AE7878",
"O+	c #F6F0F0",
"P+	c #B83030",
"Q+	c #B70707",
"R+	c #2A0707",
"S+	c #1E2424",
"T+	c #787777",
"U+	c #8B8B8B",
"V+	c #A2A2A2",
"W+	c #CBCBCB",
"X+	c #EEEEEE",
"Y+	c #E3E3E3",
"Z+	c #B7B7B7",
"`+	c #979797",
" @	c #737373",
".@	c #222222",
"+@	c #7E7E7E",
"@@	c #717070",
"#@	c #111515",
"$@	c #630707",
"%@	c #B67575",
"&@	c #C29E9E",
"*@	c #E9DBDB",
"=@	c #F7F8F8",
"-@	c #982C2C",
";@	c #DFB2B2",
">@	c #B70E0E",
",@	c #BC0707",
"'@	c #262C2C",
")@	c #7B7979",
"!@	c #8E8E8E",
"~@	c #A9A9A9",
"{@	c #DEDEDE",
"]@	c #FCFCFC",
"^@	c #C5C5C5",
"/@	c #9B9B9B",
"(@	c #878787",
"_@	c #727272",
":@	c #565656",
"<@	c #333333",
"[@	c #0F0F0F",
"}@	c #111111",
"|@	c #070808",
"1@	c #A13A3A",
"2@	c #F4F2F2",
"3@	c #F0E6E6",
"4@	c #D7BEBE",
"5@	c #920E0E",
"6@	c #CE7979",
"7@	c #B90707",
"8@	c #C00B0B",
"9@	c #310707",
"0@	c #131A1A",
"a@	c #757474",
"b@	c #A0A0A0",
"c@	c #C9C9C9",
"d@	c #EAEAEA",
"e@	c #DFDFDF",
"f@	c #B5B5B5",
"g@	c #3C3C3C",
"h@	c #1A1A1A",
"i@	c #2D2D2D",
"j@	c #3A3C3C",
"k@	c #0B0707",
"l@	c #971717",
"m@	c #DECDCD",
"n@	c #B47676",
"o@	c #C45959",
"p@	c #B80707",
"q@	c #C60909",
"r@	c #575454",
"s@	c #919191",
"t@	c #A4A4A4",
"u@	c #B3B3B3",
"v@	c #AEAEAE",
"w@	c #9C9C9C",
"x@	c #5C5C5C",
"y@	c #090909",
"z@	c #343434",
"A@	c #797A7A",
"B@	c #767575",
"C@	c #111616",
"D@	c #2C0707",
"E@	c #940909",
"F@	c #C59797",
"G@	c #A04343",
"H@	c #BA3535",
"I@	c #B60707",
"J@	c #C20808",
"K@	c #1A1818",
"L@	c #6A6969",
"M@	c #888888",
"N@	c #929292",
"O@	c #525252",
"P@	c #5E5E5E",
"Q@	c #303030",
"R@	c #1C1C1C",
"S@	c #151515",
"T@	c #1E1E1E",
"U@	c #404040",
"V@	c #403E3E",
"W@	c #5D0808",
"X@	c #9B0909",
"Y@	c #AE6363",
"Z@	c #E8DBDB",
"`@	c #982222",
" #	c #B31010",
".#	c #B50707",
"+#	c #C00707",
"@#	c #600707",
"##	c #1A1919",
"$#	c #5C5959",
"%#	c #797878",
"&#	c #838181",
"*#	c #817E7E",
"=#	c #504D4D",
"-#	c #262525",
";#	c #202121",
">#	c #0D0D0D",
",#	c #252525",
"'#	c #585656",
")#	c #1C0707",
"!#	c #810707",
"~#	c #9F3737",
"{#	c #F0F3F3",
"]#	c #CAA5A5",
"^#	c #B30707",
"/#	c #1C2323",
"(#	c #2F3535",
"_#	c #2A3131",
":#	c #151E1E",
"<#	c #191818",
"[#	c #2C2B2B",
"}#	c #505050",
"|#	c #0D0E0E",
"1#	c #110808",
"2#	c #590707",
"3#	c #8B0707",
"4#	c #990D0D",
"5#	c #B06E6E",
"6#	c #A13232",
"7#	c #960808",
"8#	c #C20707",
"9#	c #490707",
"0#	c #250707",
"a#	c #1D0707",
"b#	c #290707",
"c#	c #430808",
"d#	c #510909",
"e#	c #4F0707",
"f#	c #600808",
"g#	c #4C0808",
"h#	c #0A0707",
"i#	c #1C1B1B",
"j#	c #2A2828",
"k#	c #2D2C2C",
"l#	c #282828",
"m#	c #120707",
"n#	c #540808",
"o#	c #BE0707",
"p#	c #C30707",
"q#	c #B10808",
"r#	c #A70909",
"s#	c #A60808",
"t#	c #7C0707",
"u#	c #6A0707",
"v#	c #6D0707",
"w#	c #530707",
"x#	c #121414",
"y#	c #1D1F1F",
"z#	c #4F5050",
"A#	c #616262",
"B#	c #4C4D4D",
"C#	c #222525",
"D#	c #091010",
"E#	c #610707",
"F#	c #770707",
"G#	c #980808",
"H#	c #B20707",
"I#	c #AF0707",
"J#	c #750707",
"K#	c #650707",
"L#	c #680707",
"M#	c #670707",
"N#	c #2D0707",
"O#	c #370707",
"P#	c #560808",
"Q#	c #8D0707",
"R#	c #7B0707",
"S#	c #690707",
"T#	c #6E0707",
"U#	c #660707",
"V#	c #5D0707",
"W#	c #670808",
"X#	c #690808",
"Y#	c #700707",
"Z#	c #7E0707",
"`#	c #840707",
" $	c #830707",
".$	c #760707",
"+$	c #AC0707",
"@$	c #710707",
"#$	c #B10707",
"$$	c #7A0707",
"%$	c #820707",
"&$	c #BD0707",
"*$	c #C90707",
"=$	c #C60707",
"-$	c #C40707",
";$	c #C50707",
">$	c #CC0707",
",$	c #AA0707",
"'$	c #860707",
")$	c #AD0707",
"!$	c #870707",
"~$	c #720707",
"{$	c #B00707",
"]$	c #740707",
"^$	c #790707",
"/$	c #BA0707",
"($	c #BB0707",
"_$	c #141515",
":$	c #5E5C5C",
"<$	c #0F1111",
"[$	c #646262",
"}$	c #5C5A5A",
"|$	c #080B0B",
"1$	c #C29C9C",
"2$	c #B76868",
"3$	c #4B0707",
"4$	c #535151",
"5$	c #414141",
"6$	c #2E2E2E",
"7$	c #262626",
"8$	c #3B0808",
"9$	c #440909",
"0$	c #4D0707",
"a$	c #550707",
"b$	c #620707",
"c$	c #820808",
"d$	c #A10909",
"e$	c #F0E5E5",
"f$	c #AA3232",
"g$	c #242727",
"h$	c #0C0C0C",
"i$	c #121212",
"j$	c #0B1212",
"k$	c #7E0909",
"l$	c #9F3D3D",
"m$	c #C58787",
"n$	c #5C5B5B",
"o$	c #717171",
"p$	c #393939",
"q$	c #434343",
"r$	c #464444",
"s$	c #4B4949",
"t$	c #5F5D5D",
"u$	c #615F5F",
"v$	c #525151",
"w$	c #2A2929",
"x$	c #CEAEAE",
"y$	c #AD3333",
"z$	c #A70808",
"A$	c #560707",
"B$	c #0D1818",
"C$	c #767373",
"D$	c #424242",
"E$	c #3E3E3E",
"F$	c #848484",
"G$	c #4B4848",
"H$	c #090A0A",
"I$	c #1A0707",
"J$	c #B16464",
"K$	c #DBB2B2",
"L$	c #A90C0C",
"M$	c #AC0808",
"N$	c #1C2727",
"O$	c #959595",
"P$	c #909090",
"Q$	c #3E3B3B",
"R$	c #A32828",
"S$	c #ECE7E7",
"T$	c #C57070",
"U$	c #B00808",
"V$	c #AB0808",
"W$	c #460707",
"X$	c #262F2F",
"Y$	c #828080",
"Z$	c #B0B0B0",
"`$	c #A8A8A8",
" %	c #6D6B6B",
".%	c #0E1515",
"+%	c #990C0C",
"@%	c #D2B0B0",
"#%	c #B20808",
"$%	c #450707",
"%%	c #1C2626",
"&%	c #F0F0F0",
"*%	c #CFCFCF",
"=%	c #A5A5A5",
"-%	c #262B2B",
";%	c #1B0707",
">%	c #AF0808",
",%	c #0B1818",
"'%	c #1F1F1F",
")%	c #989898",
"!%	c #BEBEBE",
"~%	c #F7F7F7",
"{%	c #E4E4E4",
"]%	c #ADADAD",
"^%	c #2E3232",
"/%	c #BC0909",
"(%	c #6E0909",
"_%	c #292929",
":%	c #181818",
"<%	c #3B3B3B",
"[%	c #DBDBDB",
"}%	c #CCCCCC",
"|%	c #1D2222",
"1%	c #1F0707",
"2%	c #981717",
"3%	c #272B2B",
"4%	c #1D1D1D",
"5%	c #161616",
"6%	c #9A9A9A",
"7%	c #ACACAC",
"8%	c #A6A6A6",
"9%	c #070B0B",
"0%	c #3D0707",
"a%	c #A10808",
"b%	c #930909",
"c%	c #BA0808",
"d%	c #828181",
"e%	c #8A8A8A",
"f%	c #1F1D1D",
"g%	c #A20909",
"h%	c #0E0707",
"i%	c #656464",
"j%	c #0E0E0E",
"k%	c #131212",
"l%	c #4C4A4A",
"m%	c #727070",
"n%	c #7A7979",
"o%	c #5D5C5C",
"p%	c #212020",
"q%	c #656363",
"r%	c #575757",
"s%	c #131B1B",
"t%	c #2B3030",
"u%	c #202626",
"v%	c #440808",
"w%	c #4D0808",
"x%	c #464545",
"y%	c #454444",
"z%	c #171717",
"A%	c #500707",
"B%	c #4A0909",
"C%	c #420808",
"D%	c #2B0707",
"E%	c #220707",
"F%	c #3A0707",
"G%	c #730808",
"H%	c #540707",
"I%	c #101717",
"J%	c #545555",
"K%	c #232424",
"L%	c #191B1B",
"M%	c #0D1010",
"N%	c #980909",
"O%	c #4A0808",
"P%	c #100707",
"Q%	c #0D0707",
"R%	c #640707",
"S%	c #5F0707",
"T%	c #8A0707",
"U%	c #C10707",
"V%	c #CB0707",
"W%	c #C80707",
"X%	c #C70707",
"Y%	c #CA0707",
"        . . + + @ @ @ # $ % % % % & %   % * = - ; > ,   ' % & ) & & & ) ) % ) & ! ~ { ] ] ^ / ( _ * * ",
": :     . + + + + + @ # # $ $ % )   ] < [ } | 1 1 1 2 3 4 # + ! & & ) ) % % ) & ! ~ { ] ] ^ / ( _ * * ",
"5 5 :   . + + + + + + @ @ # $ % : 6 7 1 8 9 0 a b c d e 1 f > + ~ ) ) % % % ) & ! ~ { ] ] ^ / _ _ * g ",
"h i j :   . . + . . + + + @ $ 5 k l m n o p q r s q p t u 1 v w   & % % % % ) & ! ~ { { ] ^ / _ * * g ",
"x h : : :   . + + @ @ @ @ $ ' y 1 z A B C D D D D D E r q F G H I . ) $ $ % % ) ! ~ ~ ^ J K ( _ * * * ",
"x L M N 5     x O P P P O Q R S T U V s q r r r r W E E X Y Z 1 ` @ $ $ $ $ % ) & & ~  ...+.g R * * @.",
"#.$.%.&.+ *.O =.-.;.>.,.'.).!.1 ~.{.].^./.(._.:.<.[.}.}.X E |.1.1 2.x % # $ $ % ) 3.^ 4.5.6.7.( _ 8.9.",
"0.5.a.b.c.d.e.f.1 g.e 1 h.i.j.z k.l.m.1 1 1 1 1 1 n.u o.}.X }.p.q.r.  # # # # $ % s.~ t.u.v.w._ * x.y.",
"z.5.A.P B.C.1 D.E.F.G.H.I.J.K.L.L.L.M.N.O.P.Q.R.z 1 1 S.C C E T.U.1 V.. # # # # # % % W.X.5.Y.* Z.`.5.",
" +.+++' @+h.#+$+Y %+%+B &+*+=+-+[.[.;+>+,+=+'+)+M.!+~+{+]+r E s ;+1 ^+' # @ @ @ @ # /+{ (+5._+g 7.:+5.",
"5.<+[+}+1 |+r 1+2+3+4+5+6+7+]+8+&+&+7+9+0+a+b+>+=+c+L.d+e+q E f+g+h+i+j+$ + + + + @ k+% l+m+n+o+p+5.q+",
"5.r+s+t+u+t V 3+v+w+x+y+z+r [.A+o.B+C+C+8+&+9+-+;+'+D+E+F+B X G+H+I+k O # + . . + @ # $ J+K+5.L+M+5.N+",
"O+P+Q+R+S+T+U+V+W+X+Y+Z+`+V 7+8+ @o.o.C+A+&+9+b+,+c+O..@F++@X W @@#@$@O # + . . + @ # k+{ %@5.&@*@=@-@",
";@>@,@R+'@)@!@~@{@5.]@^@/@(@8+&+_@o.B+A+&+0+b+,+:@<@[@}@'+q X q =+|@- j+@ . + + + @ # /+& 1@2@3@5.4@5@",
"6@7@8@9@0@a@U+b@c@d@e@f@`+%+a+9+B+8+7+0+b+,+:@g@h@1 1 i@}.}.X |.j@k@V.' + . + + @ # # /+% l@m@5.5.n@( ",
"o@p@q@;.h.r@(@s@t@u@v@w@5+}.x@a+9+-+>+_.(.u {+1 1 y@z@_@A@C G+B@C@D@i   . . + @ # $ $ % s.E@F@5. +G@] ",
"H@I@J@) | K@L@M@z+N@s@U+|.]+O@P@*+O.Q@R@l.1 1 S@T@U@G+r }.T+Y V@1 W@O . . + @ # $ $ % % X@] Y@5.Z@`@{ ",
" #I@.#+#@#1 ##$#%#&#*#p.=#-#{.;#z m.1 1 >#h@,#d+u 7+r C }.|.'#|@)#!#'   . + @ $ $ % ) ) s.! ~#{#]#R ~ ",
"^#s+s+.#7@k 1 1 /#(#_#:#|@1 1 | 1 1 <#E+[#{.{.,#}#G+C r |.Z |#1#2#3#'   . + # $ % ) ) ) ) ) 4#5#6#] 7#",
"^#^#s+s+I@8#/ 9#0#a#7 b#c#d#e#f#g#h#m i#j#k#l#/.C Y B L@z@1 m#n#}+/ ' . + @ # $ % % ) ) ) ) & { { ~ { ",
"^#^#^#s+I@Q+o#p#q#r#s#c.h t#-.u#v#w#)#1 e x#y#z#A#B#C#D#1 R+E#u#F#. : . + @ # $ $ % ) ) ) ) & & G#~ { ",
"^#^#^#s+I@p@Q+.#.#H#I#  J#K#L#M#M#-.u#9#N#v h#| 1 h#v O#P#-.v#L#Q#'   . + @ @ # $ % % ) ) ) & & ! ~ { ",
"^#^#^#^#I@p@p@p@.#^#x R#S#u#S#L#L#M#M#T#-.U#$@V#f#W#X#Y#}+u#M#Z#  : . + @ @ @ # # $ % ) ) ) & ! ! ~ ~ ",
"^#^#^#^#.#Q+p@Q+Q+I#`#S#y u#S#L#L#L#M#U#M#S#u#y y u#u#S#L#M#t#+ 5     + @ @ @ @ # $ % ) ) & & ! ! ~ ~ ",
"s+s+s+^#s+I@I@p@.#3#y -.y u#S#L#L#L#M#M#L#L#S#S#S#L#M#M#y  $+ ' : :   . + @ @ @ # $ ) ) & & ! ! ! ! ! ",
".#.#s+^#^#.#I@p@] T#T#-.y u#S#S#L#L#M#M#L#L#L#L#M#u#}+= ^ 5 ' 5 ' 5   . + + @ @ # $ ) & & & & ! ! ! ! ",
"s+.#.#^#^#s+p@# Y#T#T#-.y u#u#S#L#L#L#L#L#U#R#Q#3#_ )   ' 5 ' h h ' :   . + + @ $ $ ) & & & & & & ! ! ",
"s+.#.#s+^#Q+h .$T#}+v#-.y u#u#S#S#L#L#L#U#Y#& 5         : ' h h h ' 5 :     . + # $ ) & & & & & & & ! ",
".#.#.#s+Q++$t#v#@$}+T#-.-.y u#u#S#S#L#L#L#3#. @ + + + . : ' h x x h ' 5 :     . @ $ % & & & & & & & ! ",
".#I@I@I@p@Z.v#@$Y#}+T#v#-.-.y u#u#S#S#U#t#+ + + + + .   : ' h x x h ' 5 5 :     + # % ) & & ) ) ) & ! ",
"I@Q+I@7@#$$$T#Y#Y#}+T#v#v#-.-.y u#u#M#@$!   + + + + .   : ' h x x h ' 5 5 5 :   . @ $ ) ) ) ) ) ) & ! ",
"Q+Q+Q+,@: @$@$Y#Y#}+}+T#v#v#-.-.y u#u#Z.5 . . . . . .   5 5 ' h h ' ' 5 5 5 5 :   + # % ) ) % % % ) ! ",
"7@7@7@o#! T#@$Y#}+}+}+T#T#v#-.-.-.L#%$' 5 : : : : : : 5 5 5 ' ' ' ' 5 5 5 5 : : . + # $ % % % % % ) ! ",
"&$,@,@8#~ T#@$}+}+}+T#T#T#v#v#v#S#.$. j+' ' 5 5 5 5 5 ' ' ' ' ' ' 5 5 5 : : :   . + # $ % % % % % ) ! ",
"*$=$-$*$' Y#@$}+T#T#T#T#T#v#v#y Y#& P x x x h h h h h x x h ' ' ' ' 5 5 : :   . + @ # $ % ) % % % ) & ",
"j++#;$>$Q+J#Y#Y#}+}+}+T#T#T#v#y * ,$O O O j+j+j+j+j+j+O O j+x h ' ' ' 5 5 : . + @ # $ % ) ) ) % ) & & ",
"`#3#( { +$> }+@$}+}+}+}+T#T#u#I P ,$P P ,$P P O P P P ,$P O j+x h ' ' ' 5 : . + @ # $ ) ) & ) ) ) & ! ",
"'$I `#%$Q#+ .$}+@$Y#Y#Y#Y#y R#j+)$,$,$,$c.c.c.c.c.c.+$+$c.,$P j+h h ' ' :   . @ # $ % ) & & & ) ) & ! ",
"!$'$!$!$`#% ) ~$T#Y#Y#}+-.t#h {$+$+$+$+$+$)$)$)$Q Q Q Q )$c.P j+h ' ' 5 :   + @ # $ % ) & & & & & & ! ",
"!$'$'$'$'$'$+$,$`#F#]$^$Z.)$s+I#Q Q Q Q Q I#I#I#{$#${$I#Q +$,$j+h 5 5 :   . + # $ % % ) & & & & & ! ! ",
"!$'$'$'$'$I B.#$;$/$I@p@o#($s+H#{${${$#${${${$H#^#^#H#{$Q +$,$j+h 5     . . + # $ % ) & & & & & ! ! ~ ",
"        . . + + @ @ @ # $ % % % % & %   % * = - ; > ,   ' % & ) & & & ) ) % ) & ! ~ { ] ] ^ / ( _ * * ",
": :     . + + + + + @ # # $ $ % )   ] < [ } | 1 1 1 2 3 4 # + ! & & ) ) % % ) & ! ~ { ] ] ^ / ( _ * * ",
"5 5 :   . + + + + + + @ @ # $ % : 6 7 1 8 9 0 a b c d e 1 f > + ~ ) ) % % % ) & ! ~ { ] ] ^ / _ _ * g ",
"h i j :   . . + . . + + + @ $ 5 k l m n o p q r s q p t u 1 v w   & % % % % ) & ! ~ { { ] ^ / _ * * g ",
"x h : : :     . . . . . . @ h y 1 _$:$+@G+D D D D D D G+r H.h.v I + ! ) ) ) & ! ! ~ ~ ^ J K ( _ * * * ",
"x L M N : : :       . . + ' g C.<$[$B E E C W r r r q q q M@}$|$` ' h h h ' 5 . ! ~ ~  .1$+.g R * * @.",
"#.$.%.2$  i 5 :         . P 3$|@4$+@E X }. @,+:.<.L.5$^.6$7${.y@1 b#8$9$0$a$b$c$+ d$/ 4.5.6.7.( _ 8.9.",
"0.5.e$f$' i ' 5 : : :   h W.} g$r X X W 7+].1 1 1 1 1 1 y@l.h$i$z j$h.1 e g.1 1 f k$@ l$u.v.w._ * x.y.",
"z.5.m$5 j+h ' ' 5 : 5 . +$}+|@n$q E }.o$z@[@k.~+i@p$q$N.M.L.}#L.L.r$I.s$t$u$v$w$1 f.]$s.x$5.Y.* Z.`.5.",
" +.+y$O z$x h ' ' 5 5   I#A$B$C$}.X r D$Q.E$e+)+'+]+,+>+;+[.[.b+=+*+0+q %+F$6+}.G$H$I$Q#J$5._+g 7.:+5.",
"5.K$L$+$,$O j+x h h ' : M$9#N$*#E G+A+Q.L._.=+>+[.a+9+9+7+&+&+8+=+0+Y U+N@O$P$1+B Q$1 2#R$S$n+o+p+5.q+",
"5.T$Q U$+$,$P P O x h 5 V$W$X$Y$B@q ;+u :.'+>+-+9+7+8+C+C+B+o.C+[.G+5+w@Z$Z+`$O$(@ %.%r.+%@%5.L+M+5.N+",
"O+P+.##%I#Q +$c.,$O x 5 V$$%%%&#X r A+].e+_.>+b+9+&+A+C+o.o. @A+9+%+O$u@e@&%*%=%z+W -%;%~ %@5.&@*@=@-@",
";@>@/$.#H#I#Q )$c.P j+: >%A$,%C$G+C q /.'%<@:.,+b+0+7+A+B+o._@8+9+V )%!%~%5.{%]%P$p ^%I$) 1@2@3@5.4@5@",
"6@7@/%Q+s+#$I#Q +$,$j+: )$(%m t$+@X W _@_%1 :%<%:.,+b+a+7+8+B+7+b+6+3+x+[%d@}%t@5+T+|%1%# 2%m@5.5.n@( ",
"o@/$/%7@.#^##$I#)$,$O 5 x J f.3%T.X C q [.4%1 1 5%Q@N._.>+-+9+a+c+E U+6%7%u@8%4+(@A 9%0%a%b%F@5. +G@] ",
"H@p@c%p@I@s+H#{$Q c.O '   h ).1 }$d%C }.W M.~+S@1 1 m.h@u q$*+G.*+x@+@e%P$N@!@M@C+f%1 - g%^ Y@5.Z@`@{ ",
" #I@Q+I@I@.#^##$I#c.O '   . T#h%}@i%|.X W A+^.d+7$R@j%1 1 1 k%~+{.-#l%m%*#d%n%o%p%1 9#. , ! ~#{#]#R ~ ",
"^#s+.#.#I@I@.#^#{$+$O h : + %$3$l i$q%%+G+G+r%7$d+].d+l#R.>#1 1 1 1 1 s%t%(#u%m 1 v%% % ) ) 4#5#6#] 7#",
"^#^#^#s+I@Q+Q+.#H#)$P h : : !$v#w%| 9%x%B@%+W y%l#].{.-#z%h.v e#A%B%C%D%I$a#E%F%G%+ % & ) ) & { { ~ { ",
"^#^#^#s+I@p@p@I@^#I#,$x 5 : { y -.H%;%1 I%9 J%J%K%L%M%h.1 R+@#T#v#$$5 j+N%, k+h : ) ) ) ) ) & & G#~ { ",
"^#^#^#s+I@p@7@Q+s+{$+$O '   . %$K#v#u#O%D%P%1 1 l Q%C.).a$-.v#L#S#K#T#^ : + @ % % % % ) ) ) & & ! ~ { ",
"^#^#^#^#I@p@p@p@I@H#)$P x :   & 6 R%M#T#2.W#R%V#S%U#L#}+}+S#S#S#S#u#M#@$~ + # # # $ % ) ) ) & ! ! ~ ~ ",
"^#^#^#^#.#Q+p@p@I@^#Q ,$j+5 . . ^ @$R%U#L#S#u#y y u#S#L#S#u#u#u#S#S#S#U#^$% + # # $ % ) ) & & ! ! ~ ~ ",
"s+s+s+^#s+I@Q+Q+I@^#I#,$j+'   + + ] ^+M#K#M#S#S#S#S#S#S#u#u#u#u#u#S#S#S#U#^$% + $ $ ) ) & & ! ! ! ! ! ",
".#.#s+^#^#.#I@I@.#^#I#,$j+h : . @ @ ) T%F#v#S#L#M#S#S#S#u#u#u#u#u#u#S#S#S#U#%$@ $ % ) & & & & ! ! ! ! ",
"s+.#.#^#^#s+I@I@I@^#I#c.O h 5   . # # @ $ { * Q#t#M#S#S#S#u#u#u#u#u#S#S#S#L#L#'$@ $ ) & & & & & & ! ! ",
"s+.#.#s+s+.#I@I@I@^#I#c.O x ' : . + # $ # .   : % 6 M#S#S#u#u#u#u#u#u#S#S#S#M#y Z.# ) & & & & & & & ! ",
".#.#.#.#.#I@Q+Q+I@s+{$+$P j+x ' :   + @ @ @ @ @   Z.u#L#S#u#u#y y u#u#S#S#S#S#M#v#( $ & & & & & & & ! ",
".#I@I@I@Q+Q+p@p@Q+.##$)$c.P j+x ' : . + @ + + + + + !#M#u#u#u#y y u#u#u#S#S#S#S#U#^$) ) & & ) ) ) & ! ",
"I@Q+Q+p@p@7@p@p@Q+.#H#I#+$c.P j+x '   . + + + + + . ) 6 L#u#u#u#u#u#u#u#u#S#S#S#L#y _ $ & ) ) ) ) & ! ",
"Q+Q+p@7@($/$7@Q+I@.#^#{$Q )$c.P j+h 5 :   . . . . . : _ y S#u#u#u#u#u#u#S#S#S#S#S#U#I # ) ) % % % ) ! ",
"7@7@/$($&$,@p@I@s+s+^##${$Q +$,$O x h ' 5 : : : :     5 I L#u#u#u#u#u#u#S#S#S#S#S#K#w # ) % % % % ) ! ",
"&$,@&$+#U%&$p@.#^#H#H##${$Q +$,$P j+x h h ' 5 5 5 5 5 '   ^$L#y u#u#u#u#S#S#S#S#S#K#w # % % % % % ) ! ",
"*$=$;$=$-$o#7@.#H#H#H#H#{$I#)$,$P O j+j+x x h h h h h h O ) @$S#u#u#u#u#S#S#S#L#L#U#%$# ) ) % % % ) & ",
"j++#=$*$V%8#/$I@s+^#^#H##$I#)$c.,$P O O O j+j+j+j+j+j+O j+O * y u#u#u#u#S#S#S#L#L#U#B.# ) ) ) % ) & & ",
"`#3#( ] H#W%&$p@.#s+^#^#H#{$Q +$,$P P P ,$P P O P P P ,$P O j+'$L#u#u#u#S#S#L#L#U#}+] % & & ) ) ) & ! ",
"'$I `#%$3#,@;$/$p@I@.#.#s+H#I#+$c.,$,$,$c.c.c.c.c.c.+$+$c.,$P 5 R#M#y u#S#S#S#M#U#'$# ) & & & ) ) & ! ",
"!$'$'$!$ $$ X%+#/$7@7@p@I@s+#$Q )$+$+$+$+$)$)$)$Q Q Q Q )$c.P P # ]$M#L#S#L#U#U#w ) % ) & & & & & & ! ",
"!$'$'$'$'$'$Q W%U%&$&$,@/$I@H#{$Q Q Q Q Q I#I#I#{$#${$I#Q +$,$j+x $ !#}+u#y ~$!$% $ ) ) & & & & & ! ! ",
"!$'$'$'$'$I > {$Y%Y%*$-$o#7@.#H#{${${$#${${${$H#^#^#H#{$Q +$,$j+' ' : & ( ^ ) + $ % ) & & & & & ! ! ~ "};
