/* XPM */
static char * bmp00131_xpm[] = {
"34 70 591 2",
"  	c #890707",
". 	c #880707",
"+ 	c #870707",
"@ 	c #860707",
"# 	c #850707",
"$ 	c #900707",
"% 	c #A70707",
"& 	c #C20707",
"* 	c #BA0707",
"= 	c #B60707",
"- 	c #B20707",
"; 	c #AF0707",
"> 	c #AE0707",
", 	c #AC0707",
"' 	c #A80707",
") 	c #A50707",
"! 	c #A10707",
"~ 	c #9F0707",
"{ 	c #9D0707",
"] 	c #9C0707",
"^ 	c #9B0707",
"/ 	c #9A0707",
"( 	c #8A0707",
"_ 	c #840707",
": 	c #9E0707",
"< 	c #C00707",
"[ 	c #BE0707",
"} 	c #B80707",
"| 	c #B30707",
"1 	c #B00707",
"2 	c #AD0707",
"3 	c #A90707",
"4 	c #A20707",
"5 	c #C30707",
"6 	c #BB0707",
"7 	c #B50707",
"8 	c #970707",
"9 	c #C40707",
"0 	c #BD0707",
"a 	c #B70707",
"b 	c #AB0707",
"c 	c #A40707",
"d 	c #8E0707",
"e 	c #C10707",
"f 	c #B90707",
"g 	c #B40707",
"h 	c #B10707",
"i 	c #AA0707",
"j 	c #8B0707",
"k 	c #A60707",
"l 	c #A30707",
"m 	c #7C0707",
"n 	c #640707",
"o 	c #480A0A",
"p 	c #350A0A",
"q 	c #3C0A0A",
"r 	c #3E0A0A",
"s 	c #4C0A0A",
"t 	c #680808",
"u 	c #950707",
"v 	c #A00707",
"w 	c #830707",
"x 	c #5F0707",
"y 	c #2A0909",
"z 	c #150F0F",
"A 	c #171515",
"B 	c #171414",
"C 	c #191414",
"D 	c #181515",
"E 	c #1B0D0D",
"F 	c #420707",
"G 	c #8D0707",
"H 	c #7A0707",
"I 	c #380808",
"J 	c #140E0E",
"K 	c #151313",
"L 	c #111111",
"M 	c #232323",
"N 	c #363636",
"O 	c #414141",
"P 	c #3D3D3D",
"Q 	c #323232",
"R 	c #1F1F1F",
"S 	c #101010",
"T 	c #171212",
"U 	c #190C0C",
"V 	c #610808",
"W 	c #320707",
"X 	c #110E0E",
"Y 	c #161515",
"Z 	c #343434",
"` 	c #646464",
" .	c #727171",
"..	c #6D6D6D",
"+.	c #5A5A5A",
"@.	c #2A2A2A",
"#.	c #131111",
"$.	c #110A0A",
"%.	c #5C0808",
"&.	c #820707",
"*.	c #440707",
"=.	c #0D0B0B",
"-.	c #1B1B1B",
";.	c #535353",
">.	c #757575",
",.	c #626262",
"'.	c #413E3E",
").	c #322F2F",
"!.	c #322C2C",
"~.	c #343232",
"{.	c #3E3C3C",
"].	c #676767",
"^.	c #717171",
"/.	c #474747",
"(.	c #0F0F0F",
"_.	c #100707",
":.	c #700707",
"<.	c #620707",
"[.	c #140909",
"}.	c #151414",
"|.	c #606060",
"1.	c #707070",
"2.	c #414040",
"3.	c #261D1D",
"4.	c #2C1414",
"5.	c #2E0B0B",
"6.	c #2F0707",
"7.	c #2E0D0D",
"8.	c #2C1515",
"9.	c #251E1E",
"0.	c #434242",
"a.	c #727272",
"b.	c #505050",
"c.	c #100D0D",
"d.	c #220808",
"e.	c #960707",
"f.	c #0E0D0D",
"g.	c #525252",
"h.	c #6C6C6C",
"i.	c #353333",
"j.	c #281717",
"k.	c #310808",
"l.	c #3A0707",
"m.	c #410707",
"n.	c #430707",
"o.	c #2F0808",
"p.	c #271616",
"q.	c #353434",
"r.	c #393939",
"s.	c #0C0909",
"t.	c #5B0707",
"u.	c #720707",
"v.	c #140707",
"w.	c #282828",
"x.	c #3E3D3D",
"y.	c #261616",
"z.	c #320808",
"A.	c #470707",
"B.	c #4A0707",
"C.	c #4B0707",
"D.	c #400707",
"E.	c #424141",
"F.	c #686868",
"G.	c #191919",
"H.	c #270707",
"I.	c #565656",
"J.	c #616161",
"K.	c #211A1A",
"L.	c #2E0909",
"M.	c #490707",
"N.	c #4D0707",
"O.	c #500707",
"P.	c #510707",
"Q.	c #4F0707",
"R.	c #480707",
"S.	c #2C0909",
"T.	c #211B1B",
"U.	c #3C3B3B",
"V.	c #080808",
"W.	c #6B6B6B",
"X.	c #251212",
"Y.	c #4E0707",
"Z.	c #520707",
"`.	c #540707",
" +	c #550707",
".+	c #221111",
"++	c #403E3E",
"@+	c #272727",
"#+	c #747474",
"$+	c #2B2828",
"%+	c #250909",
"&+	c #4C0707",
"*+	c #570707",
"=+	c #5A0707",
"-+	c #260B0B",
";+	c #2E2C2C",
">+	c #161616",
",+	c #770909",
"'+	c #3D0707",
")+	c #323131",
"!+	c #737373",
"~+	c #1F1B1B",
"{+	c #2A0808",
"]+	c #450707",
"^+	c #530707",
"/+	c #5D0707",
"(+	c #7B0808",
"_+	c #7A0808",
":+	c #5E0707",
"<+	c #250707",
"[+	c #2E2B2B",
"}+	c #656565",
"|+	c #1D1D1D",
"1+	c #6D0C0C",
"2+	c #2D2C2C",
"3+	c #1D1A1A",
"4+	c #290808",
"5+	c #580707",
"6+	c #680707",
"7+	c #B20F0F",
"8+	c #AD0E0E",
"9+	c #690707",
"0+	c #240707",
"a+	c #2C2A2A",
"b+	c #656464",
"c+	c #1C1C1C",
"d+	c #6E0B0B",
"e+	c #6E6E6E",
"f+	c #282626",
"g+	c #200808",
"h+	c #820909",
"i+	c #7D0808",
"j+	c #1C0707",
"k+	c #2F2E2E",
"l+	c #636363",
"m+	c #810909",
"n+	c #141212",
"o+	c #383838",
"p+	c #160909",
"q+	c #390707",
"r+	c #560707",
"s+	c #5C0707",
"t+	c #110808",
"u+	c #404040",
"v+	c #4F4F4F",
"w+	c #080707",
"x+	c #6C0707",
"y+	c #424242",
"z+	c #5B5B5B",
"A+	c #110F0F",
"B+	c #292929",
"C+	c #1E0808",
"D+	c #0D0D0D",
"E+	c #302F2F",
"F+	c #100A0A",
"G+	c #2B0707",
"H+	c #280707",
"I+	c #0F0A0A",
"J+	c #4D4D4D",
"K+	c #0C0B0B",
"L+	c #BC0707",
"M+	c #0E0707",
"N+	c #2C2C2C",
"O+	c #252323",
"P+	c #0F0808",
"Q+	c #3B0707",
"R+	c #220707",
"S+	c #0F0909",
"T+	c #262525",
"U+	c #151515",
"V+	c #170707",
"W+	c #6B0707",
"X+	c #2C0707",
"Y+	c #070707",
"Z+	c #353535",
"`+	c #585858",
" @	c #242323",
".@	c #120707",
"+@	c #1D0707",
"@@	c #110707",
"#@	c #0E0B0B",
"$@	c #272626",
"%@	c #535252",
"&@	c #1E1E1E",
"*@	c #0D0707",
"=@	c #740707",
"-@	c #810707",
";@	c #760707",
">@	c #260707",
",@	c #515151",
"'@	c #111010",
")@	c #100F0F",
"!@	c #3A3A3A",
"~@	c #454545",
"{@	c #0A0707",
"]@	c #800707",
"^@	c #660707",
"/@	c #340707",
"(@	c #0C0C0C",
"_@	c #262626",
":@	c #3C3C3C",
"<@	c #0B0A0A",
"[@	c #190707",
"}@	c #6D0707",
"|@	c #120C0C",
"1@	c #1B1A1A",
"2@	c #1A1919",
"3@	c #150707",
"4@	c #630707",
"5@	c #940707",
"6@	c #6A0707",
"7@	c #4A0808",
"8@	c #400808",
"9@	c #3D0909",
"0@	c #3E0808",
"a@	c #490808",
"b@	c #6F0707",
"c@	c #610707",
"d@	c #7D0707",
"e@	c #7B0707",
"f@	c #600707",
"g@	c #780707",
"h@	c #7E0707",
"i@	c #930707",
"j@	c #D30707",
"k@	c #CB0707",
"l@	c #C70707",
"m@	c #910707",
"n@	c #E80707",
"o@	c #E50707",
"p@	c #DC0707",
"q@	c #D60707",
"r@	c #CF0707",
"s@	c #CA0707",
"t@	c #C50707",
"u@	c #8F0707",
"v@	c #E10707",
"w@	c #FF0707",
"x@	c #F90707",
"y@	c #F00707",
"z@	c #E70707",
"A@	c #E00707",
"B@	c #D90707",
"C@	c #D20707",
"D@	c #8C0707",
"E@	c #D70707",
"F@	c #F80707",
"G@	c #E60707",
"H@	c #DB0707",
"I@	c #D00707",
"J@	c #EF0707",
"K@	c #EA0707",
"L@	c #ED0707",
"M@	c #F30707",
"N@	c #FB0707",
"O@	c #FA0707",
"P@	c #980707",
"Q@	c #CC0707",
"R@	c #D10707",
"S@	c #CE0707",
"T@	c #D50707",
"U@	c #F70707",
"V@	c #E30707",
"W@	c #460A0A",
"X@	c #360D0D",
"Y@	c #3E0D0D",
"Z@	c #420D0D",
"`@	c #4C0C0C",
" #	c #F20707",
".#	c #920707",
"+#	c #990707",
"@#	c #290C0C",
"##	c #080D0D",
"$#	c #070808",
"%#	c #0A0E0E",
"&#	c #161010",
"*#	c #C80707",
"=#	c #EE0707",
"-#	c #DD0707",
";#	c #C90707",
">#	c #3C0909",
",#	c #070909",
"'#	c #5D5B5B",
")#	c #6E6C6C",
"!#	c #6B6969",
"~#	c #565454",
"{#	c #090808",
"]#	c #070A0A",
"^#	c #170E0E",
"/#	c #660808",
"(#	c #070C0C",
"_#	c #100E0E",
":#	c #AFAEAE",
"<#	c #D4D4D4",
"[#	c #D6D7D7",
"}#	c #CACBCB",
"|#	c #D2D3D3",
"1#	c #9F9E9E",
"2#	c #3C3939",
"3#	c #E90707",
"4#	c #E40707",
"5#	c #1D1B1B",
"6#	c #939393",
"7#	c #DDDDDD",
"8#	c #A8ABAB",
"9#	c #454040",
"0#	c #453535",
"a#	c #463535",
"b#	c #494444",
"c#	c #646565",
"d#	c #AFB1B1",
"e#	c #DAD9D9",
"f#	c #767474",
"g#	c #740808",
"h#	c #EB0707",
"i#	c #0E0909",
"j#	c #A6A6A6",
"k#	c #D0D0D0",
"l#	c #5F6060",
"m#	c #3A2121",
"n#	c #701010",
"o#	c #9B0909",
"p#	c #670F0F",
"q#	c #391F1F",
"r#	c #666666",
"s#	c #D7D7D7",
"t#	c #878686",
"u#	c #1D0A0A",
"v#	c #C60707",
"w#	c #8B8989",
"x#	c #CECFCF",
"y#	c #484848",
"z#	c #501313",
"A#	c #BD0B0B",
"B#	c #B50B0B",
"C#	c #480F0F",
"D#	c #4E4F4F",
"E#	c #D3D3D3",
"F#	c #5F5D5D",
"G#	c #600909",
"H#	c #770808",
"I#	c #090707",
"J#	c #3C3E3E",
"K#	c #D8D7D7",
"L#	c #4E1111",
"M#	c #DC0909",
"N#	c #D10A0A",
"O#	c #440E0E",
"P#	c #676969",
"Q#	c #C8C6C6",
"R#	c #1A1D1D",
"S#	c #AC0808",
"T#	c #EC0707",
"U#	c #DE0707",
"V#	c #5B0808",
"W#	c #9E9C9C",
"X#	c #A5A7A7",
"Y#	c #2E1919",
"Z#	c #BE0909",
"`#	c #B30B0B",
" $	c #2B1A1A",
".$	c #B2B4B4",
"+$	c #9A0808",
"@$	c #9C0808",
"#$	c #131C1C",
"$$	c #C7C4C4",
"%$	c #5F6464",
"&$	c #5C0B0B",
"*$	c #540909",
"=$	c #696A6A",
"-$	c #B0B0B0",
";$	c #9A0909",
">$	c #363E3E",
",$	c #D1CECE",
"'$	c #890808",
")$	c #404343",
"!$	c #BCBABA",
"~$	c #181B1B",
"{$	c #4F5656",
"]$	c #C7C6C6",
"^$	c #2B2020",
"/$	c #AB0909",
"($	c #FF1515",
"_$	c #B4B1B1",
":$	c #292F2F",
"<$	c #CD0707",
"[$	c #9F0909",
"}$	c #454C4C",
"|$	c #C8C8C8",
"1$	c #2A2020",
"2$	c #AC0909",
"3$	c #FF0A0A",
"4$	c #FF3737",
"5$	c #FF3636",
"6$	c #FF0909",
"7$	c #262C2C",
"8$	c #650707",
"9$	c #A70909",
"0$	c #232D2D",
"a$	c #C5C2C2",
"b$	c #353737",
"c$	c #FF1B1B",
"d$	c #FF1A1A",
"e$	c #FF0808",
"f$	c #6E0707",
"g$	c #3C4646",
"h$	c #B4B0B0",
"i$	c #0F1212",
"j$	c #7C0909",
"k$	c #091010",
"l$	c #BAB6B6",
"m$	c #585F5F",
"n$	c #646A6A",
"o$	c #8E8E8E",
"p$	c #A40A0A",
"q$	c #D80707",
"r$	c #7E0A0A",
"s$	c #717272",
"t$	c #A6A4A4",
"u$	c #9E0909",
"v$	c #930808",
"w$	c #0F0C0C",
"x$	c #ADABAB",
"y$	c #3C4141",
"z$	c #1A0707",
"A$	c #D90909",
"B$	c #0C0F0F",
"C$	c #B3B1B1",
"D$	c #545252",
"E$	c #160707",
"F$	c #CA0A0A",
"G$	c #BA0909",
"H$	c #938F8F",
"I$	c #590808",
"J$	c #670909",
"K$	c #484646",
"L$	c #C0C0C0",
"M$	c #130707",
"N$	c #9F0808",
"O$	c #FB0808",
"P$	c #444242",
"Q$	c #A8A6A6",
"R$	c #1D1E1E",
"S$	c #780808",
"T$	c #330808",
"U$	c #B1B0B0",
"V$	c #444343",
"W$	c #2D0707",
"X$	c #4F4E4E",
"Y$	c #A1A0A0",
"Z$	c #2D2B2B",
"`$	c #5F0808",
" %	c #F10707",
".%	c #DA0707",
"+%	c #300909",
"@%	c #373838",
"#%	c #979696",
"$%	c #7A7676",
"%%	c #3A4141",
"&%	c #132121",
"*%	c #180F0F",
"=%	c #131D1D",
"-%	c #394242",
";%	c #7A7575",
">%	c #848282",
",%	c #222525",
"'%	c #5F0A0A",
")%	c #410808",
"!%	c #464949",
"~%	c #7C7B7B",
"{%	c #858080",
"]%	c #898787",
"^%	c #878585",
"/%	c #807A7A",
"(%	c #777575",
"_%	c #6D0909",
":%	c #F60707",
"<%	c #770707",
"[%	c #650909",
"}%	c #350707",
"|%	c #141B1B",
"1%	c #262D2D",
"2%	c #252C2C",
"3%	c #3D0808",
"4%	c #8C0808",
"5%	c #730707",
"6%	c #6F0808",
"7%	c #5C0A0A",
"8%	c #5B0B0B",
"9%	c #790707",
"0%	c #7E0808",
"    . . + + @ @ # # #   $ % & & * = - ; > > > > > , ' ) ! ~ { ] ^ / ",
"(     . . + + @ @ @ # # _ # : < [ } | 1 ; ; ; 1 ; 2 3 ) 4 ~ : ] ^ / ",
"(     . . + + + @ @ @ # # _ + 3 5 6 7 - 1 1 1 1 ; , 3 ) 4 ~ : { ] ^ ",
"        . . . + + @ @ @ # # _ 8 9 0 a | 1 ; ; ; > b ' c ! ~ : { ] ^ ",
"          . . . + + @ @ # # # d e e f g h ; > > 2 i % c ! ~ : : { ] ",
"        . . . . + + @ @ # # _ j [ e 6 = h ; 2 , b 3 k l ! ~ ~ : { { ",
"  . . . . . . + + @ @ # m n o p q r s t u ' 2 b i ' k l ! v ~ ~ : { ",
"  . . . . . + + + @ w x y z A B C C D A E F G , i ' k l ! v ~ ~ : { ",
". . + + + + + + @ H I J K L M N O P Q R S T U V ) ' k c 4 ! v ~ : { ",
". + + + + + + @ H W X Y Z `  . ..... . .+.@.#.$.%.l % c l ! v ~ : { ",
"+ + + + + + + &.*.=.-.;.>.,.'.).!.!.~.{.].^./.(._.:.% ) c 4 ! ~ : { ",
"+ + + + + + + <.[.}.|.1.2.3.4.5.6.6.7.8.9.0.a.b.c.d.e.k ) c 4 v ~ { ",
"+ + + + + + _ 6.f.g.h.i.j.k.l.m.n.n.m.l.o.p.q.^.r.s.t.k ) ) l 4 v ~ ",
"@ + + + + + u.v.w.>.x.y.z.m.A.B.C.C.B.A.D.z.y.E.F.G.H.k k ) ) c 4 ! ",
"@ + + + + + t.J I.J.K.L.m.M.N.O.P.P.Q.N.R.D.S.T.F.U.V.~ % k k k c l ",
"@ + + + + @ A.G.W.P X.l.R.Y.Z.`. + +`.Z.Y.R.l..+++` V._ ' ' ' ' % k ",
"@ + + + + @ D.@+#+$+%+m.&+P.`.*+=+=+*+ +P.&+m.-+;+F.>+,+3 3 3 i 3 ' ",
"@ + + + + @ '+)+!+~+{+]+Y.^+*+/+(+_+:+*+^+Y.*.<+[+}+|+1+i i i b b i ",
"@ + + + + + '+2+!+3+4+]+Q.`.5+6+7+8+9+5+`.Y.]+0+a+b+c+d+, b , , 2 , ",
"@ + + + + + ]+R e+f+g+n.Y.`.*+x h+i+x *+^+N.F j+k+l+(.m+; > > > ; ; ",
"@ + + + . . 5+n+,.o+p+q+C.Z.r+5+s+s+5+ +P.C.q+t+u+v+w+] g - 1 h - - ",
"+ + + + .   x+_.y+z+A+H.]+Y.^+ +r+r+ +^+N.*.<+X J.B+C+6 * a 7 7 = } ",
"+ + . . .   # <+D+}+E+F+G+]+&+O.Z.Z.O.&+n.H+I+r.J+K+O.[ 5 0 * L+< < ",
"+ + . . .   @ `.M+N+J.O+P+<+Q+]+R.R.]+Q+R+S+T++.U+V+n : 9 & e [ , / ",
"+ + . . . . @ W+X+Y+Z+`+ @=..@+@H.H++@@@#@$@%@&@*@C.=@) 9 5 9 b + -@",
"+ + . . . . . ;@/+>@Y+M ,@r.c+'@=.#@)@-.!@~@G.{@M.;@! 9 & [ & v &.&.",
"+ + . . . . . ]@^@s+/@_.(@_@P :@P U.r.r.R <@[@Q.}@@ & e L+* [ 2 + -@",
"+ + . . . . . @ =@x /+N.6.@@|@K 1@2@K F+3@/@x W+4@_ [ [ * } * L+c 5@",
"+ + . . . . . . w 6@:+:+/+ +7@8@9@9@0@a@*+s+/+/+x+w 1 < f } } 0 e e ",
"+ . . . . . . . + w W+:+:+:+:+:+/+/+/+/+s+s+/+6@m -@8 e 6 } a f 6 L+",
". . . . . . . . . + -@b@<.:+:+:+/+/+/+s+s+c@b@d@]@]@@ } [ f = = a a ",
". . .   . . . . . . + # e@}@n f@x x x 4@x+g@]@-@-@-@]@c < * = g g g ",
". . . . . . . . . . . . + @ &.m H H e@h@&.&.&.-@-@-@]@/ < * 7 - h - ",
". . . . . . + + + + . . + + @ @ # _ _ _ w &.&.-@-@]@-@3 [ } | 1 1 h ",
". . . . + + + + + + + + + + @ @ # _ _ w w &.&.-@-@]@  L+L+= - ; ; 1 ",
"(   . . . + + + @ w _   i@> j@j@k@l@& L+a 7 - h ; , 3 ) 4 ~ : { ] / ",
"(     . . . + + . ( d m@5@u f n@o@p@q@r@s@t@< f g > 3 ) 4 v : { ] ^ ",
"(       . . . ( u@5@/ v ) 3 ' v@w@x@y@z@A@B@C@s@< = , k 4 v : { ] ^ ",
"(           D@i@/ 4 3 1 a L+} E@w@w@w@w@F@y@G@H@I@5 7 3 l v ~ : { ] ",
"        ( d u : % h * [ L+7 i - y@J@K@L@M@N@O@J@v@C@& - % ! ~ : : ] ",
"      ( d e.v b a < 0 1 ! P@$ u Q@R@k@k@S@T@n@U@M@V@R@< 1 ) v ~ : { ",
"      G u v , f e a ! 5@w 4@W@X@Y@Z@`@t 5@a t@C@L@ #v@S@6 , l ~ ~ : ",
"    j .#{ i } & - +#( t.@#)@##$#$#$#$#%#&#r G * *#G@=#-#;#a 3 ! ~ : ",
".   d P@) 7 e g P@&.>#(.,#f.q.'#)#!#~#[+{#]#^#/#g t@o@K@q@5 h ) ~ : ",
". ( .#~ > 0 f ] w k.(#_#%@:#<#[#}#}#[#|#1#2#V.]#%.| s@3#4#S@6 i v { ",
". G P@k a < k d 8@,#5#6#7#8#l+9#0#a#b#c#d#e#f#{#V.g#6 q@h#H@t@h l : ",
". u@{ 2 0 = / ^@i#}.j#k#l#m#n#~ | 7 o#p#q#r#s#t#Y+u#] v#z@o@S@} % ~ ",
"  .#! | < 3 u@o.$#w#x#y#z#A#w@w@w@w@w@F@B#C#D#E#F#Y+G#L+H@h#E@0 b ! ",
"( i@c } 0 4 H#I#J#K#l#L#M#w@w@w@w@w@w@w@w@N#O#P#Q#R#0+S#R@T#U#9 ; c ",
"( u ) 6 } ~ V#,#W#X#Y#Z#w@w@w@w@w@w@w@w@w@w@`# $.$W.Y++$k@T#4#;#g % ",
"j u ) 6 g @$n.#$$$%$&$w@w@w@w@w@w@w@w@w@w@w@w@*$=$-$Y+-@s@K@z@Q@a i ",
"j 5@c f | ;$/@>$,$o+'$w@w@w@w@w@w@w@w@w@w@w@w@. )$!$~$}@k@K@z@S@f 2 ",
"( i@4 7 - o#W {$]$^$/$w@w@w@w@w@($($w@w@w@w@w@u !@_$:$c@I@3#4#<$6 ; ",
"  m@: h | [$W }$|$1$2$w@w@w@w@3$4$5$6$w@w@w@w@8 r._$7$8$E@K@v@k@* 1 ",
"  u@/ , - 9$Q+0$a$b$d@w@w@w@w@w@c$d$w@w@w@w@e$f$g$h$i$j$v@T#p@*#* - ",
". G e.) h 1 %.k$l$m$W 6$w@w@w@w@w@w@w@w@w@w@e$>@n$o$Y+p$L@=#q$v#* 7 ",
". j .#: , h r$Y+s$t$]#u$w@w@w@w@w@w@w@w@w@w@v$w$x$y$z$A$F@L@q@v#L+f ",
"+ ( u@P@) > l d.B$C$D$E$F$w@w@w@w@w@w@w@w@G$*@` H$Y+I$U@w@3#j@*#l@9 ",
"+   G i@] ' , J$Y+K$L$)+M$N$e$e$w@w@w@O$u {@P$Q$R$_.S$;#w@4#j@k@h +#",
"+ . ( u@e.~ % u@T$Y+~#U$V$Y+W$:.v i u.>@Y+X$Y$Z$Y+`$i@Q@ %.%j@1 -@h@",
"+ +   D@m@8 v u g@+%Y+@%#%$%%%&%(.*%=%-%;%>%,%Y+'%, R@M@U#r@<$! d@# ",
"+ + . ( G .#+#P@]@g@)%Y+(#!%~%{%]%^%/%(%y$Y+M$_%! | :%v@S@5 9 1 &.m ",
"+ . . . ( G .#+#  <%d@[%}%w+Y+|%1%2%|%Y+{@3%4%v <%P@A@j@9 L+6 & c m@",
"+ . . . . ( G .#5@d@5%m d@6%7%R.n.n.R.8%6%9%9%b@H d e S@0 f f [ 9 9 ",
". . . . . .   D@m@$ 9%f$5%<%e@h@0%h@d@9%=@f$6@;@( # ~ l@L+} a f L+[ ",
". . .   . . .   j $ G H f$x+}@f$b@f$}@W+9+W+9%+ + &.+ f & } a = } } ",
". .     . . . .   ( D@d # ;@f$6@9+9+9+x+=@-@+ _ &.&.d@4 t@* = g g 7 ",
". .     . . . . . . .   j j + &.]@h@-@_ @ # w &.-@&.m 8 t@* 7 - - | ",
". . . . . . . . . . . . . . . . . + @ # w &.&.-@-@-@h@' 9 } g h h h ",
". . . . . + + + + + + + + + + @ # _ _ _ w w &.&.-@h@j [ 0 = - 1 ; h "};
