/* XPM */
static char * bmp00104_xpm[] = {
"20 26 106 2",
"  	c #FFFFFF",
". 	c #F7F9F7",
"+ 	c #DAEADA",
"@ 	c #96AA96",
"# 	c #D0EBD0",
"$ 	c #C4EBC4",
"% 	c #C2ECC2",
"& 	c #C6EBC6",
"* 	c #C1ECC1",
"= 	c #C0ECC0",
"- 	c #D6EAD6",
"; 	c #CDEBCD",
"> 	c #BCECBC",
", 	c #B2ECB2",
"' 	c #B4ECB4",
") 	c #ACEDAC",
"! 	c #A3EDA3",
"~ 	c #A8EDA8",
"{ 	c #A6EDA6",
"] 	c #A6EEA6",
"^ 	c #AEEDAE",
"/ 	c #B0EDB0",
"( 	c #CCEBCC",
"_ 	c #B6ECB6",
": 	c #98EE98",
"< 	c #8DEE8D",
"[ 	c #86EE86",
"} 	c #80EF80",
"| 	c #8FEF8F",
"1 	c #97EE97",
"2 	c #90EE90",
"3 	c #93EE93",
"4 	c #86EF86",
"5 	c #7FEF7F",
"6 	c #91EE91",
"7 	c #8BEE8B",
"8 	c #7EEF7E",
"9 	c #82EF82",
"0 	c #76F076",
"a 	c #5AF15A",
"b 	c #46F346",
"c 	c #53F253",
"d 	c #67F167",
"e 	c #78F078",
"f 	c #87EF87",
"g 	c #77F077",
"h 	c #9CEE9C",
"i 	c #B1EDB1",
"j 	c #D8EAD8",
"k 	c #99EE99",
"l 	c #89EF89",
"m 	c #50F250",
"n 	c #2BF52B",
"o 	c #1FF61F",
"p 	c #1DF61D",
"q 	c #29F529",
"r 	c #48F348",
"s 	c #72F072",
"t 	c #70F070",
"u 	c #A7EEA7",
"v 	c #C7EBC7",
"w 	c #92EE92",
"x 	c #96EE96",
"y 	c #8CEF8C",
"z 	c #5CF25C",
"A 	c #3AF43A",
"B 	c #1BF61B",
"C 	c #19F619",
"D 	c #20F520",
"E 	c #39F439",
"F 	c #7EF07E",
"G 	c #AEECAE",
"H 	c #BFECBF",
"I 	c #A9ECA9",
"J 	c #75F175",
"K 	c #81EF81",
"L 	c #4BF24B",
"M 	c #37F437",
"N 	c #34F434",
"O 	c #65F265",
"P 	c #AAEDAA",
"Q 	c #B0ECB0",
"R 	c #B9ECB9",
"S 	c #A5EDA5",
"T 	c #73F173",
"U 	c #8AEF8A",
"V 	c #A7EDA7",
"W 	c #A0EEA0",
"X 	c #9AED9A",
"Y 	c #95EE95",
"Z 	c #9BEE9B",
"` 	c #B1ECB1",
" .	c #D9EAD9",
"..	c #BDECBD",
"+.	c #7BEF7B",
"@.	c #92EF92",
"#.	c #A9EDA9",
"$.	c #A2EDA2",
"%.	c #9FEE9F",
"&.	c #CFEBCF",
"*.	c #CAEBCA",
"=.	c #CBEBCB",
"-.	c #B7ECB7",
";.	c #B8ECB8",
">.	c #BBECBB",
",.	c #C5EBC5",
"      . . . . . . . . . . . . . .       ",
"    . + + + + + + + + + + + + + + .     ",
"  . + + . . . . + + + + + + + + + + @   ",
"  . + . . + + + + + + + + + + + + + @ @ ",
"  . + . + + + + + + + + + + + + + + @ @ ",
"  . + + + + + + + + + + + + + + + + @ @ ",
"  . + + + + + + + + + + + + + + + + @ @ ",
"  . + + + + + + + + + + + + + + + + @ @ ",
"  . + + + + + + + + + + + + + + + + @ @ ",
"  . + + + + + + + + + + + + + + + + @ @ ",
"    @ + + + + + + + + + + + + + + @ @ @ ",
"      @ @ @ @ @ @ @ @ @ @ @ @ @ @ @ @   ",
"        @ @ @ @ @ @ @ @ @ @ @ @ @ @     ",
"                                        ",
"        . . . . . . . . . . . . .       ",
"      . + + # $ % % $ & * = & - + .     ",
"    . + ; > , ' ) ! ~ { ] ^ / & ( +     ",
"    . + _ : < [ } | 1 2 3 4 5 6 / + @   ",
"    . - / 7 8 9 0 a b c d e f g h i @   ",
"    . j k f l m n o o p q r s t u { @   ",
"    . v w x y z A B C C D E c F / G @   ",
"    . H I J K t L b M N L O f P Q R @   ",
"    . % S } T U V h W ) X Y Z ` 1 ( @   ",
"    .  ...Y 1 +.@.! #.$.%.#.^ x ..+ @   ",
"      @ + &.*.=.= -.;._ >.& ,.*.+ @     ",
"        @ @ @ @ @ @ @ @ @ @ @ @ @       "};
