/* XPM */
static char * bmp00103_xpm[] = {
"12 7 5 1",
" 	c #FFFFFF",
".	c #808080",
"+	c #2F2F2F",
"@	c #FEFEFE",
"#	c #0E0E0E",
"  ......... ",
"..++++++++++",
"++++++++++++",
"@@@@@@@#####",
"############",
"############",
"  ######### "};
