/* XPM */
static char * bmp00106_xpm[] = {
"32 32 17 1",
" 	c #404954",
".	c #5E6E82",
"+	c #000000",
"@	c #303030",
"#	c #545454",
"$	c #A5A5A5",
"%	c #FFFFFF",
"&	c #FDFDFD",
"*	c #A6A6A6",
"=	c #ACACAC",
"-	c #A9A9A9",
";	c #434D57",
">	c #646E79",
",	c #627185",
"'	c #7C7C7C",
")	c #A7A7A7",
"!	c #44505E",
"                                ",
".+@@@@@@@@@@@@@@@@@@@@@@@@@@@@+.",
".@@##########################@@.",
".@##$$$$$$$$$$$$$$$$$$$$$$$$##@.",
".@#$$%%&%$$$%%%%%%$$$%%%%$$$$#@.",
".@#$$%*$$%$$%$$$$$$$%$$$=%$$$#@.",
".@#$$%*$$$%$%$$$$$$%*$$$$$$$$#@.",
".@#$$%$$$$%$%%%%%%$%*$$$$$$$$#@.",
".@#$$%$$$$%$%$$$$$$%*$$$$$$$$#@.",
".@#$$%-$$%-$%$$$$$$$%$$$-%$$$#@.",
".@#$$%%%%$$$%%%%%%$$$%%%%$$$$#@.",
".@##$$$$$$$$$$$$$$$$$$$$$$$$##@.",
".@@##########################@@.",
".+@@@@@@@@@@@@@@@@@@@@@@@@@@@@+.",
"                                ",
"                                ",
"                             ;  ",
">+############################+.",
",##''''''''''''''''''''''''''##.",
".#''$$$$$$$$$$$$$$$$$$$$$$$$''#.",
".#'$$%$$$$%$%%%%%%$%%$$$%%$$$'#.",
".#'$$%$$$$%$%$$$$$$$%$$$%$$$$'#.",
".#'$$%)$$$%$%$$$$$$$$%$%)$$$$'#.",
".#'$$%%&%%%$%%%%%%$$$$%$$$$$$'#.",
".#'$$%$$$*%$%$$$$$$$$%$%$$$$$'#.",
".#'$$%$$$$%$%$$$$$$$%$$$%$$$$'#.",
".#'$$%$$$$%$%%%%%%$%%$$$%%$$$'#.",
".#''$$$$$$$$$$$$$$$$$$$$$$$$''#.",
".##''''''''''''''''''''''''''##.",
".+############################+.",
"!!!!!!!!!!!!!!!!!!!!!!!!!!!!!!!!",
"!!!!!!!!!!!!!!!!!!!!!!!!!!!!!!!!"};
