/* XPM */
static char * bmp00102_xpm[] = {
"24 60 633 2",
"  	c #545B66",
". 	c #2F3339",
"+ 	c #010101",
"@ 	c #020202",
"# 	c #020303",
"$ 	c #000000",
"% 	c #030303",
"& 	c #020203",
"* 	c #9BB3C3",
"= 	c #99AEC3",
"- 	c #9BB2C4",
"; 	c #9EABBE",
"> 	c #9AB5C9",
", 	c #9AB2C2",
"' 	c #9BACC2",
") 	c #A4B8C8",
"! 	c #9FAEC6",
"~ 	c #9DB7C9",
"{ 	c #9DB4C4",
"] 	c #9AB7C3",
"^ 	c #9EB8CA",
"/ 	c #96AEC3",
"( 	c #93A9BC",
"_ 	c #91ACBE",
": 	c #A2B7C4",
"< 	c #9DB0C2",
"[ 	c #A4B5CA",
"} 	c #99AFC1",
"| 	c #9EB5C1",
"1 	c #98B0C0",
"2 	c #91A8BD",
"3 	c #A2AEC3",
"4 	c #9AB3C3",
"5 	c #94A9C1",
"6 	c #1F2126",
"7 	c #1D1F23",
"8 	c #1F2125",
"9 	c #9CB4C4",
"0 	c #98A8BF",
"a 	c #99B9C9",
"b 	c #9FB1CD",
"c 	c #9BB4C5",
"d 	c #94AABC",
"e 	c #3B4249",
"f 	c #2E3238",
"g 	c #3C4149",
"h 	c #96ADC3",
"i 	c #384248",
"j 	c #3A4148",
"k 	c #778C9C",
"l 	c #7C8D9D",
"m 	c #798D9D",
"n 	c #8195A4",
"o 	c #7C909F",
"p 	c #8093A2",
"q 	c #A2B1C5",
"r 	c #A0BCCA",
"s 	c #9EADC2",
"t 	c #A6B8CB",
"u 	c #A6B7C7",
"v 	c #98B2C7",
"w 	c #9BAFCA",
"x 	c #92A4BB",
"y 	c #99AFBF",
"z 	c #9DB2BF",
"A 	c #8194A2",
"B 	c #8695A2",
"C 	c #9FB6C6",
"D 	c #98B4C2",
"E 	c #9AAEBE",
"F 	c #9AA9BE",
"G 	c #9BADC2",
"H 	c #A2B8C9",
"I 	c #97B2C1",
"J 	c #93ADBC",
"K 	c #8FAABC",
"L 	c #A3B9CB",
"M 	c #8499A6",
"N 	c #8191A1",
"O 	c #9FB7C3",
"P 	c #97B5C2",
"Q 	c #A0B3CA",
"R 	c #97B1C4",
"S 	c #94ACBA",
"T 	c #9BA9C1",
"U 	c #96ABC2",
"V 	c #A2B2CD",
"W 	c #93A5C0",
"X 	c #9DB7CB",
"Y 	c #98B7C7",
"Z 	c #98B4C3",
"` 	c #AAB8CD",
" .	c #9DB1C4",
"..	c #ABBBCC",
"+.	c #9CB4C2",
"@.	c #9CB6C3",
"#.	c #A4BBCE",
"$.	c #99B4C1",
"%.	c #7F90A2",
"&.	c #8697A4",
"*.	c #9FBAC8",
"=.	c #93A8BC",
"-.	c #A1B4BF",
";.	c #A3B1C3",
">.	c #97A9BD",
",.	c #AAB7CE",
"'.	c #8E9FBA",
").	c #9EB2C1",
"!.	c #9CADC3",
"~.	c #9DB3C7",
"{.	c #96AFBF",
"].	c #9DB2BE",
"^.	c #97A9BE",
"/.	c #94AEBD",
"(.	c #A8BECB",
"_.	c #A3BCCA",
":.	c #9CB2C1",
"<.	c #9DB2CC",
"[.	c #A8B8CD",
"}.	c #81929F",
"|.	c #7F909D",
"1.	c #99B7C7",
"2.	c #98AABB",
"3.	c #95ACBA",
"4.	c #9DACC3",
"5.	c #9FB4C2",
"6.	c #94A4BC",
"7.	c #9DADC6",
"8.	c #9DACC1",
"9.	c #94A8BC",
"0.	c #98ACBC",
"a.	c #97AFC3",
"b.	c #AABBCB",
"c.	c #9FAFC6",
"d.	c #97A7BA",
"e.	c #A6B9CA",
"f.	c #A3BACD",
"g.	c #98B3C0",
"h.	c #97ABC2",
"i.	c #9DAFC7",
"j.	c #A3BCCD",
"k.	c #9EB1C2",
"l.	c #818FA1",
"m.	c #8191A0",
"n.	c #9BB4C4",
"o.	c #9CACC5",
"p.	c #95A5BD",
"q.	c #94A8C0",
"r.	c #9FAFBF",
"s.	c #96ABBC",
"t.	c #A9B8CA",
"u.	c #9CAFC3",
"v.	c #99B2C7",
"w.	c #9FB0C3",
"x.	c #95B1BE",
"y.	c #A1B2CC",
"z.	c #9EB2C9",
"A.	c #97A6BC",
"B.	c #99B1C6",
"C.	c #9EB3CC",
"D.	c #A7B7CB",
"E.	c #9FB3C2",
"F.	c #95A8C0",
"G.	c #A2B3C3",
"H.	c #97AEBF",
"I.	c #81909F",
"J.	c #7F8D9D",
"K.	c #9AADC1",
"L.	c #9EB2C2",
"M.	c #A2AEC4",
"N.	c #9DAEC3",
"O.	c #97B0C1",
"P.	c #A2B6C2",
"Q.	c #A5BACD",
"R.	c #9CB6C4",
"S.	c #9EB8CC",
"T.	c #9CABC3",
"U.	c #A1B9C7",
"V.	c #9DB3CA",
"W.	c #9CB4C5",
"X.	c #99A9C2",
"Y.	c #9AB5CA",
"Z.	c #A2BBCD",
"`.	c #A0B2C4",
" +	c #A1B1C5",
".+	c #9EAFCA",
"++	c #A0ADBF",
"@+	c #97B4C5",
"#+	c #7F91A2",
"$+	c #8293A0",
"%+	c #98AAC1",
"&+	c #A8BBC9",
"*+	c #AABBCC",
"=+	c #9FB5C6",
"-+	c #A5B3C4",
";+	c #9AB6C4",
">+	c #9CB0C3",
",+	c #9BB0C1",
"'+	c #A3B4CA",
")+	c #A7BCCD",
"!+	c #A4B4CA",
"~+	c #A4B6C9",
"{+	c #A2B4C4",
"]+	c #98AEBF",
"^+	c #A3B2C5",
"/+	c #9EB5CC",
"(+	c #98AFBD",
"_+	c #A2BCC8",
":+	c #8191A2",
"<+	c #8295A1",
"[+	c #9DAFC1",
"}+	c #9AB4C2",
"|+	c #A8BECD",
"1+	c #98AEC1",
"2+	c #9EB1C0",
"3+	c #9FAEC7",
"4+	c #93A8BE",
"5+	c #A1B8CA",
"6+	c #9DB5C2",
"7+	c #9FB6C4",
"8+	c #A1BECE",
"9+	c #9AB2C7",
"0+	c #A6BAC9",
"a+	c #9CB2C4",
"b+	c #97B3C4",
"c+	c #99ADC2",
"d+	c #99B4C2",
"e+	c #97ADC1",
"f+	c #9FB2C0",
"g+	c #8593A5",
"h+	c #8597A5",
"i+	c #A4B7C8",
"j+	c #A2B6C5",
"k+	c #90A8BB",
"l+	c #A0B0C2",
"m+	c #A1B1C9",
"n+	c #97ABBD",
"o+	c #9CB2C5",
"p+	c #96AABF",
"q+	c #9FB5C5",
"r+	c #A0B8C8",
"s+	c #96ACBE",
"t+	c #A0B8C5",
"u+	c #98B0C4",
"v+	c #99AFBD",
"w+	c #A1BCC8",
"x+	c #98AAC0",
"y+	c #9CB1C0",
"z+	c #9EB3C9",
"A+	c #8292A2",
"B+	c #869AA8",
"C+	c #99B1C2",
"D+	c #9EB3C5",
"E+	c #A0B2C3",
"F+	c #91ABBC",
"G+	c #9DACC2",
"H+	c #9CB1C7",
"I+	c #9AADBC",
"J+	c #9BB2C7",
"K+	c #9EB1C4",
"L+	c #94A5BF",
"M+	c #9EB2C7",
"N+	c #A0B7C6",
"O+	c #9AB0C3",
"P+	c #9CB9C6",
"Q+	c #9CB4C7",
"R+	c #96AEC1",
"S+	c #A1B5C1",
"T+	c #9EAEC6",
"U+	c #9DB3C1",
"V+	c #9FB8C7",
"W+	c #A1B7C9",
"X+	c #8393A1",
"Y+	c #8799A7",
"Z+	c #93AEBE",
"`+	c #A1B4C5",
" @	c #A2B4CA",
".@	c #9BAEC1",
"+@	c #97A7BE",
"@@	c #97AEC6",
"#@	c #95A9BC",
"$@	c #A3B5C5",
"%@	c #99ACC6",
"&@	c #9BB3CA",
"*@	c #9CB0C1",
"=@	c #9AAEC5",
"-@	c #9CB5C7",
";@	c #A0B6C8",
">@	c #9DB2C8",
",@	c #9FB1C2",
"'@	c #9AADC4",
")@	c #9CB6C2",
"!@	c #A1B6CA",
"~@	c #8493A1",
"{@	c #8595A3",
"]@	c #A4B5C7",
"^@	c #9AAFC4",
"/@	c #9DAFC5",
"(@	c #94A9BD",
"_@	c #9EB5C9",
":@	c #94AEC0",
"<@	c #9CAFBE",
"[@	c #9AAFC8",
"}@	c #9DB2C6",
"|@	c #A0B2BF",
"1@	c #99B0C6",
"2@	c #9FB1C6",
"3@	c #A4B5C9",
"4@	c #A2B7C9",
"5@	c #99ADBC",
"6@	c #9DB4C5",
"7@	c #A0B4CA",
"8@	c #8391A1",
"9@	c #8291A2",
"0@	c #9BADBF",
"a@	c #A4B8C7",
"b@	c #96ABBF",
"c@	c #99AFC3",
"d@	c #92ABBC",
"e@	c #A4BBC9",
"f@	c #9EB6C5",
"g@	c #9BB6C9",
"h@	c #98ABBF",
"i@	c #96ACBF",
"j@	c #A0B3C4",
"k@	c #A2B7C2",
"l@	c #9EB5C5",
"m@	c #A4BACD",
"n@	c #A1B6C9",
"o@	c #9EB0BF",
"p@	c #95AAC0",
"q@	c #9EB4CA",
"r@	c #99B0C5",
"s@	c #8393A3",
"t@	c #8493A5",
"u@	c #9BADBA",
"v@	c #A2B6C6",
"w@	c #9AACC1",
"x@	c #95AABB",
"y@	c #A3B6C2",
"z@	c #A6B8C7",
"A@	c #9AB0C6",
"B@	c #9BADC7",
"C@	c #97ABBB",
"D@	c #A5B2C8",
"E@	c #A3B5C4",
"F@	c #9CB8C7",
"G@	c #A1B4CB",
"H@	c #9CADC0",
"I@	c #96B0C4",
"J@	c #8091A1",
"K@	c #8795A6",
"L@	c #9AAEBC",
"M@	c #96AABD",
"N@	c #94ACBD",
"O@	c #99ABC4",
"P@	c #96AABC",
"Q@	c #9CB2BE",
"R@	c #98AFC4",
"S@	c #9DACBE",
"T@	c #9BB1C1",
"U@	c #9BAEC3",
"V@	c #A5B7CA",
"W@	c #9DAFC2",
"X@	c #98A8BB",
"Y@	c #9FB3CA",
"Z@	c #9AB0C5",
"`@	c #A1B1C4",
" #	c #98B2C6",
".#	c #98ABC1",
"+#	c #A4B4C4",
"@#	c #8092A2",
"##	c #8493A6",
"$#	c #9AACC0",
"%#	c #9BAEC2",
"&#	c #9AB4C3",
"*#	c #9BB2C3",
"=#	c #95ADC0",
"-#	c #94B1BF",
";#	c #9AAEC1",
">#	c #9DB0C4",
",#	c #97ACBD",
"'#	c #9EADBE",
")#	c #97A7C2",
"!#	c #98B1C2",
"~#	c #9AACBE",
"{#	c #94A8BD",
"]#	c #97B2C5",
"^#	c #97AEC3",
"/#	c #99AFC2",
"(#	c #A7BECB",
"_#	c #AABFCE",
":#	c #859AA8",
"<#	c #8294A1",
"[#	c #9AAEC6",
"}#	c #9CAFC4",
"|#	c #99ADC3",
"1#	c #9AB2C6",
"2#	c #9FB9CC",
"3#	c #9BB6C4",
"4#	c #9FB3C1",
"5#	c #9EAFC9",
"6#	c #95A9BF",
"7#	c #9BAFC0",
"8#	c #9EAEC1",
"9#	c #96B2C3",
"0#	c #92AABE",
"a#	c #9BAEC0",
"b#	c #92AFBF",
"c#	c #96A8C0",
"d#	c #A3B2C3",
"e#	c #9DB2C4",
"f#	c #99B3C4",
"g#	c #93B0BD",
"h#	c #A3B8C7",
"i#	c #95B2C1",
"j#	c #9CAEBE",
"k#	c #A5B2C5",
"l#	c #9FAFC5",
"m#	c #A4B9CD",
"n#	c #ABBFCE",
"o#	c #9DB0C3",
"p#	c #92AFBC",
"q#	c #9BABC2",
"r#	c #A1B6C8",
"s#	c #98AFBF",
"t#	c #9CAABD",
"u#	c #99B7C6",
"v#	c #A3B4CE",
"w#	c #A0BCCC",
"x#	c #9BACBD",
"y#	c #9FB2C3",
"z#	c #AAC1CE",
"A#	c #A0B4C2",
"B#	c #98B3C2",
"C#	c #A1B8CD",
"D#	c #8FA6BA",
"E#	c #9CB0BC",
"F#	c #A6B3C9",
"G#	c #A2B1C3",
"H#	c #94AEBF",
"I#	c #9AABC3",
"J#	c #9FBCCB",
"K#	c #A8B7CD",
"L#	c #A0B1C6",
"M#	c #95A7BF",
"N#	c #AAB9CD",
"O#	c #8FABBB",
"P#	c #9AACBA",
"Q#	c #ABBBCD",
"R#	c #A2B1CA",
"S#	c #9BB1C0",
"T#	c #A6B8CA",
"U#	c #A0B8C4",
"V#	c #95AEC1",
"W#	c #A3BAC8",
"X#	c #99B1C1",
"Y#	c #98A9C5",
"Z#	c #9EB1C5",
"`#	c #A1B3C3",
" $	c #9BB5C4",
".$	c #A9B7CB",
"+$	c #A9BCCC",
"@$	c #A0B6C7",
"#$	c #9DAABC",
"$$	c #9DADBE",
"%$	c #99B0BE",
"&$	c #95A8C1",
"*$	c #9EB3C7",
"=$	c #A3BECC",
"-$	c #A7B6CA",
";$	c #9BB8C6",
">$	c #95ABBF",
",$	c #97A9C0",
"'$	c #99B0C2",
")$	c #A4B9C6",
"!$	c #9CB3BE",
"~$	c #92ADBF",
"{$	c #7F94A4",
"]$	c #8492A6",
"^$	c #99ADC1",
"/$	c #95ACC0",
"($	c #A4BECB",
"_$	c #A0B2C0",
":$	c #97B1C6",
"<$	c #93A9BD",
"[$	c #A4B9CC",
"}$	c #AABCCB",
"|$	c #9AA9C0",
"1$	c #98AFC5",
"2$	c #9FB1CA",
"3$	c #9DB7C8",
"4$	c #93AABF",
"5$	c #A4BACB",
"6$	c #9BB2BD",
"7$	c #99ADBF",
"8$	c #9FB7C7",
"9$	c #7D94A3",
"0$	c #8394A5",
"a$	c #99ACC1",
"b$	c #A1B3CB",
"c$	c #A5C1CE",
"d$	c #9BABC1",
"e$	c #90A8BD",
"f$	c #A5B9CA",
"g$	c #A2BDCD",
"h$	c #9CAFBD",
"i$	c #9DB0C1",
"j$	c #A7B9C8",
"k$	c #9BADC5",
"l$	c #9CB4C0",
"m$	c #96ABC0",
"n$	c #92ACBF",
"o$	c #9CB4C9",
"p$	c #A1B3C8",
"q$	c #9EAFC7",
"r$	c #7E92A3",
"s$	c #8293A1",
"t$	c #98B1C5",
"u$	c #9CB3C7",
"v$	c #A5BECA",
"w$	c #9CB0BF",
"x$	c #97AFC0",
"y$	c #A3B3C7",
"z$	c #9DB1C7",
"A$	c #A0B9C9",
"B$	c #9EAFC4",
"C$	c #98AEBD",
"D$	c #9EB6C9",
"E$	c #97AABC",
"F$	c #98ACBF",
"G$	c #9DB6C6",
"H$	c #95B2C3",
"I$	c #9CB3C6",
"J$	c #8394A7",
"K$	c #99B6C6",
"L$	c #94ACC0",
"M$	c #9CB2BD",
"N$	c #A2B4C5",
"O$	c #9EAEC2",
"P$	c #A2B4C1",
"Q$	c #A0B0C3",
"R$	c #A4B9CE",
"S$	c #9EB1C8",
"T$	c #92ABBB",
"U$	c #97B0BE",
"V$	c #9FB2C1",
"W$	c #A6BDCB",
"X$	c #97A9C1",
"Y$	c #9AA9BF",
"Z$	c #8091A2",
"`$	c #9EB9C5",
" %	c #9DB5C9",
".%	c #A0B3C6",
"+%	c #A3B4CB",
"@%	c #9AADC2",
"#%	c #9DAEC2",
"$%	c #A0B2C8",
"%%	c #9AAFC2",
"&%	c #92A6BC",
"*%	c #9FB4C3",
"=%	c #99A7BC",
"-%	c #A1B4C2",
";%	c #A1B8C8",
">%	c #AABCCD",
",%	c #99AAC3",
"'%	c #A6B5C6",
")%	c #97A7C0",
"!%	c #7E909F",
"~%	c #8094A0",
"{%	c #9DB4C1",
"]%	c #A0B2CA",
"^%	c #9DB1C8",
"/%	c #A0B4C8",
"(%	c #99AEBF",
"_%	c #9CB2C3",
":%	c #93A8BD",
"<%	c #9CB5C3",
"[%	c #97A8C0",
"}%	c #9AB1C1",
"|%	c #A9B8CC",
"1%	c #97AAC1",
"2%	c #A0B4C5",
"3%	c #96A6BE",
"4%	c #80909E",
"5%	c #80929F",
"6%	c #A1B5C4",
"7%	c #A5BCCB",
"8%	c #96ADC0",
"9%	c #9BB7C6",
"0%	c #9AACC3",
"a%	c #9CABC1",
"b%	c #A1B1C6",
"c%	c #99ACBD",
"d%	c #A1B5C9",
"e%	c #98B1C3",
"f%	c #A2B8CB",
"g%	c #99B3C3",
"h%	c #9AB5C3",
"i%	c #99ACC2",
"j%	c #A4B4C8",
"k%	c #95A9BE",
"l%	c #9BB0C0",
"m%	c #A5B5C9",
"n%	c #7F8F9E",
"o%	c #8494A1",
"p%	c #A5B9C8",
"q%	c #AABCCC",
"r%	c #98AAC2",
"s%	c #9FB9CA",
"t%	c #94A7BC",
"u%	c #9FACC1",
"v%	c #9AACBD",
"w%	c #98ADC2",
"x%	c #9CB2C7",
"y%	c #A2B3C9",
"z%	c #A5BDCC",
"A%	c #A6BBC9",
"B%	c #9DB2C1",
"C%	c #9DB1C2",
"D%	c #9DB4C6",
"E%	c #9FB1C3",
"F%	c #95AEC2",
"G%	c #9FB1C0",
"H%	c #9CAEC7",
"I%	c #9DB3C9",
"J%	c #9CAFC0",
"K%	c #98ABC2",
"L%	c #98ABBC",
"M%	c #9DAEBF",
"N%	c #9EB6C2",
"O%	c #A0B2C1",
"P%	c #90A7BC",
"                                                ",
"  . . . . . . . . . . . . . . . . . . . . . .   ",
"  . + + + + + + + + + + + + + + + + + + + + .   ",
"  . + @ + + + + + + + + + + + + + + + + + + .   ",
"  . + # + + + + + + + + + + + + + + + + + + .   ",
"  . + + + + + + + + + + + + + + + + + + + + .   ",
"  . + + + + + + + + + + + + + + + + + + $ + .   ",
"  . + + + + + + + + + + + + + + + + + + + + .   ",
"  . + $ + + + + + + + + + + + + + + + + + + .   ",
"  . + + + + + + + + + + + + + + + + + + + + .   ",
"  . + + + + + + + + + + + + + + + + + + + + .   ",
"  . + + + + + + + + + + + + + + + + + $ + + .   ",
"  . + + + + + + + + + + + + + @ + + + + + + .   ",
"  . + + + + + + + + + % + + + + + + + + + + .   ",
"  . + + + + + + + + + @ + + + + + + + $ + @ .   ",
"  . + + + + + + + + + + + + + + + + + $ + + .   ",
"  . + + + + & + + + + $ $ + + + + + + $ + + .   ",
"  . . . . . . . . . . . . . . . . . . . . . .   ",
"                                                ",
"* = - ; > , ' ) ! ~ { ] ^ / ( = - ; > , ' ) ! ~ ",
"_ : < [ } | 1 2 3 4 5 6 7 8 _ : < [ } | 1 2 3 4 ",
"9 0 a { ] ^ / ( b c d e f g 9 0 a { ] ^ / ( b c ",
"* = - ; > , ' ) ! ~ h i $ j * = - ; > , ' ) ! ~ ",
"_ : < [ } | 1 2 3 4 5 k $ l _ : < [ } | 1 2 3 4 ",
"9 0 a { ] ^ / ( b c d m $ n 9 0 a { ] ^ / ( b c ",
"* = - ; > , ' ) ! ~ h o $ p q r s t u v w x y z ",
"_ : < [ } | 1 2 3 4 5 A $ B C D E F G H I J K L ",
"9 0 a { ] ^ / ( b c d M $ N O P Q R S T U V W X ",
"Y Z `  ...4 5 +.@.#.$.%.$ &.*.=.-.;.>.,.'.).!.~.",
"{.].^./.(.c d _.:.<.[.}.$ |.1.2.3.4.5.6.7.8.9.0.",
"a.b.c.d.e.f.g.h.i.j.k.l.$ m.n.o.p.q.r.s.t.u.v.w.",
"x.y.z.A.B.C.D.E.F.G.H.I.$ J.K.L.M.N.O.P.Q.R.S.T.",
"U.V.W.X.Y.Z.`. +.+++@+#+$ $+%+&+*+U.=+-+;+>+,+'+",
")+- ^.!+~+{+]+^+/+(+_+:+$ <+[+}+|+1+2+3+4+5+6+7+",
"8+9+9.0+a+++b+c+d+e+f+g+$ h+i+~.j+k+l+m+n+o+1 p+",
"q+r+s+t+u+v+w+x+y+z+`.A+$ B+C+D+E+F+G+H+I+J+K+L+",
"M+N+O+P+Q+R+S+T+U+V+W+X+$ Y+Z+`+ @.@+@@@#@Q $@%@",
"&@*@=@-@;@>@,@'@| )@!@~@$ {@} ]@^@/@(@_@:@_@<@[@",
"}@|@1@2@3@r+4@5@y 6@7@8@$ 9@0@a@b@c@d@e@f@g@h@i@",
"j@k@l@]@m@)@n@o@p@q@r@s@$ t@u@v@K.w@x@y@z@A@B@C@",
"E *@D@E@F@{ G@H@_@I@c@J@$ K@L@M@N@O@P@Q@`.C+R@S@",
"T@U@V@W@X@Y@Z@`@ #.#+#@#$ ##$#%#&#*#=#-#;#>#,#'#",
")#).!#~#{#]#^#/#O@(#_#:#$ <#[#}#|#1#2#3#4#5#6#7#",
"8#9#0#a#b#c#d#_ : (+_+:+$ <+[+}+|+1+e#f#g#h#i#j#",
"k#l#m#'# @(.n#9 0 e+f+g+$ h+i+~.j+k+o#u p#q#r#s#",
"t#u.u.u#v#w#m#* = z+`.A+$ B+C+D+E+F+x#y#z#A#B#C#",
"D#E#F#G#H#I#J#_ : V+W+X+$ Y+Z+`+ @.@K#J#L#M#N#O#",
"P#Q#R#S#T#U#;@9 0 )@!@~@$ {@} ]@^@/@V#;@W#X#Y#Z#",
"`# $.$+$@$Q@#$$$%$6@7@8@$ 9@0@a@b@c@&$#$*$=$-$9+",
"G#$#;$++>$,$'$)$!$p@~${$$ ]$^$/$($_$:$'$<$[$}$6#",
"|$1$h#2$3$'$4$5$6$7$8$9$$ 0$a$b$c$d$u#4$e$f$g$h$",
"= i$j$k$l$m$n$o$p$q$- r$$ s$t$u$v$w$x$w$y$H+z$A$",
"B$C$q+D$E$F$G$H$I$Q a$J$$ :+K$L$5$M$N$O$P$2@Q$R$",
"S$T$U$w.V$n.W$i@E+X$Y$Z$$ p `$n$ %.%+%@%H.#%K+$%",
"%%&%*%=%-%;%>%,%'%b@)%!%$ ~%{%c 9#*$]%a$^%E$/%(%",
"_%:%<%[%}%T#|%1%2%h#3%4%$ 5%6%7%8%9%0%a%b%c%d%e%",
"f%g%h%i%C+m@j%k%l%m%q#n%$ o%p%q%r%s%t%u%v%<@w%x%",
"y%z%A%B%C%D%E%F%G%H%I%i $ j J%|%K%E%L%M%N%O%P%%#",
"} ]@^@/@V#;@W#X#Y#Z#]+e f g } ]@^@/@V#;@W#X#Y#Z#",
"0@a@b@c@&$#$%#&#*#=#-#6 7 8 0@a@b@c@&$#$*$=$-$9+"};
